<svg width="25" height="25" viewBox="0 0 25 25" fill="none" xmlns="http://www.w3.org/2000/svg">
<path d="M12.5 12.5C14.7091 12.5 16.5 10.7091 16.5 8.5C16.5 6.29086 14.7091 4.5 12.5 4.5C10.2909 4.5 8.5 6.29086 8.5 8.5C8.5 10.7091 10.2909 12.5 12.5 12.5Z" stroke="#051A35" stroke-linecap="round"/>
<path fill-rule="evenodd" clip-rule="evenodd" d="M15.7759 16.5C14.3972 16.0613 12.8896 15.9073 11.4067 16.0538C9.76616 16.2157 8.21472 16.7397 6.95048 17.5712C5.68613 18.4028 4.75374 19.5137 4.30174 20.7789C4.20884 21.0389 4.34433 21.325 4.60438 21.4179C4.86442 21.5108 5.15054 21.3754 5.24345 21.1153C5.61048 20.088 6.38515 19.14 7.5 18.4067C8.61495 17.6734 10.008 17.1967 11.5049 17.0489C12.0548 16.9946 12.6076 16.9858 13.1536 17.021C13.509 16.6974 13.9814 16.5 14.5 16.5H15.7759Z" fill="#051A35"/>
<path d="M18.5 14.5V22.5" stroke="#051A35" stroke-linecap="round"/>
<path d="M22.5 18.5H14.5" stroke="#051A35" stroke-linecap="round"/>
</svg>
