<svg width="25" height="25" viewBox="0 0 25 25" fill="none" xmlns="http://www.w3.org/2000/svg">
<path d="M9.5 4.5H5.5C4.94772 4.5 4.5 4.94772 4.5 5.5V9.5C4.5 10.0523 4.94772 10.5 5.5 10.5H9.5C10.0523 10.5 10.5 10.0523 10.5 9.5V5.5C10.5 4.94772 10.0523 4.5 9.5 4.5Z" stroke="#051A35" stroke-linejoin="round"/>
<path d="M9.5 14.5H5.5C4.94772 14.5 4.5 14.9477 4.5 15.5V19.5C4.5 20.0523 4.94772 20.5 5.5 20.5H9.5C10.0523 20.5 10.5 20.0523 10.5 19.5V15.5C10.5 14.9477 10.0523 14.5 9.5 14.5Z" stroke="#051A35" stroke-linejoin="round"/>
<path d="M19.5 14.5H15.5C14.9477 14.5 14.5 14.9477 14.5 15.5V19.5C14.5 20.0523 14.9477 20.5 15.5 20.5H19.5C20.0523 20.5 20.5 20.0523 20.5 19.5V15.5C20.5 14.9477 20.0523 14.5 19.5 14.5Z" stroke="#051A35" stroke-linejoin="round"/>
<path d="M19.5 4.5H15.5C14.9477 4.5 14.5 4.94772 14.5 5.5V9.5C14.5 10.0523 14.9477 10.5 15.5 10.5H19.5C20.0523 10.5 20.5 10.0523 20.5 9.5V5.5C20.5 4.94772 20.0523 4.5 19.5 4.5Z" stroke="#051A35" stroke-linejoin="round"/>
</svg>
