<svg width="412" height="622" viewBox="0 0 412 622" fill="none" xmlns="http://www.w3.org/2000/svg">
<path fill-rule="evenodd" clip-rule="evenodd" d="M206 250.75C201.624 250.75 197.427 252.488 194.333 255.583C191.238 258.677 189.5 262.874 189.5 267.25V281C189.5 282.948 188.983 284.842 188.026 286.5H223.974C223.017 284.842 222.5 282.948 222.5 281V267.25C222.5 262.874 220.762 258.677 217.667 255.583C214.573 252.488 210.376 250.75 206 250.75ZM233.5 286.5C232.041 286.5 230.642 285.921 229.611 284.889C228.579 283.858 228 282.459 228 281V267.25C228 261.415 225.682 255.819 221.556 251.694C217.431 247.568 211.835 245.25 206 245.25C200.165 245.25 194.569 247.568 190.444 251.694C186.318 255.819 184 261.415 184 267.25V281C184 282.459 183.421 283.858 182.389 284.889C181.358 285.921 179.959 286.5 178.5 286.5C176.981 286.5 175.75 287.731 175.75 289.25C175.75 290.769 176.981 292 178.5 292H233.5V286.5ZM199.863 297.871C201.176 297.109 202.859 297.556 203.621 298.87C203.863 299.287 204.21 299.633 204.627 299.873C205.045 300.114 205.518 300.24 206 300.24C206.482 300.24 206.955 300.114 207.373 299.873C207.79 299.633 208.137 299.287 208.379 298.87C209.141 297.556 210.824 297.109 212.137 297.871C213.451 298.633 213.898 300.316 213.136 301.63C212.411 302.88 211.37 303.918 210.118 304.639C208.865 305.361 207.445 305.74 206 305.74C204.555 305.74 203.135 305.361 201.882 304.639C200.63 303.918 199.589 302.88 198.864 301.63C198.102 300.316 198.549 298.633 199.863 297.871Z" fill="#B4B4B3"/>
<path d="M157.83 342.5V329.9H160.242L167.208 339.314H166.704C166.656 338.942 166.614 338.582 166.578 338.234C166.542 337.874 166.506 337.514 166.47 337.154C166.446 336.782 166.422 336.404 166.398 336.02C166.386 335.624 166.374 335.21 166.362 334.778C166.35 334.334 166.344 333.854 166.344 333.338V329.9H168.99V342.5H166.542L159.432 332.996L160.116 333.014C160.176 333.638 160.224 334.172 160.26 334.616C160.308 335.048 160.344 335.426 160.368 335.75C160.392 336.074 160.41 336.356 160.422 336.596C160.446 336.836 160.458 337.064 160.458 337.28C160.47 337.496 160.476 337.724 160.476 337.964V342.5H157.83ZM176.33 342.68C175.358 342.68 174.488 342.47 173.72 342.05C172.964 341.618 172.364 341.03 171.92 340.286C171.488 339.542 171.272 338.69 171.272 337.73C171.272 336.77 171.488 335.924 171.92 335.192C172.364 334.448 172.964 333.86 173.72 333.428C174.488 332.996 175.358 332.78 176.33 332.78C177.29 332.78 178.148 332.996 178.904 333.428C179.672 333.86 180.272 334.448 180.704 335.192C181.136 335.924 181.352 336.77 181.352 337.73C181.352 338.69 181.136 339.542 180.704 340.286C180.272 341.03 179.672 341.618 178.904 342.05C178.148 342.47 177.29 342.68 176.33 342.68ZM176.33 340.448C176.798 340.448 177.218 340.334 177.59 340.106C177.962 339.866 178.25 339.542 178.454 339.134C178.67 338.714 178.778 338.246 178.778 337.73C178.778 337.202 178.67 336.734 178.454 336.326C178.25 335.906 177.962 335.582 177.59 335.354C177.218 335.114 176.798 334.994 176.33 334.994C175.85 334.994 175.424 335.114 175.052 335.354C174.68 335.594 174.386 335.918 174.17 336.326C173.954 336.734 173.852 337.202 173.864 337.73C173.852 338.246 173.954 338.714 174.17 339.134C174.386 339.542 174.68 339.866 175.052 340.106C175.424 340.334 175.85 340.448 176.33 340.448ZM192.359 342.68C191.567 342.68 190.853 342.464 190.217 342.032C189.581 341.6 189.077 341.012 188.705 340.268C188.333 339.524 188.147 338.672 188.147 337.712C188.147 336.752 188.333 335.906 188.705 335.174C189.089 334.43 189.605 333.848 190.253 333.428C190.901 332.996 191.639 332.78 192.467 332.78C192.935 332.78 193.361 332.852 193.745 332.996C194.141 333.128 194.483 333.314 194.771 333.554C195.071 333.794 195.323 334.07 195.527 334.382C195.731 334.694 195.875 335.03 195.959 335.39L195.419 335.3V332.978H197.957V342.5H195.383V340.214L195.959 340.16C195.863 340.496 195.707 340.814 195.491 341.114C195.275 341.414 195.005 341.684 194.681 341.924C194.369 342.152 194.015 342.338 193.619 342.482C193.223 342.614 192.803 342.68 192.359 342.68ZM193.061 340.466C193.541 340.466 193.961 340.352 194.321 340.124C194.681 339.896 194.957 339.578 195.149 339.17C195.353 338.75 195.455 338.264 195.455 337.712C195.455 337.172 195.353 336.698 195.149 336.29C194.957 335.882 194.681 335.564 194.321 335.336C193.961 335.096 193.541 334.976 193.061 334.976C192.593 334.976 192.179 335.096 191.819 335.336C191.471 335.564 191.195 335.882 190.991 336.29C190.787 336.698 190.685 337.172 190.685 337.712C190.685 338.264 190.787 338.75 190.991 339.17C191.195 339.578 191.471 339.896 191.819 340.124C192.179 340.352 192.593 340.466 193.061 340.466ZM204.659 342.68C203.747 342.68 202.931 342.464 202.211 342.032C201.491 341.6 200.921 341.012 200.501 340.268C200.093 339.524 199.889 338.678 199.889 337.73C199.889 336.794 200.093 335.954 200.501 335.21C200.921 334.454 201.491 333.86 202.211 333.428C202.931 332.996 203.747 332.78 204.659 332.78C205.511 332.78 206.291 332.936 206.999 333.248C207.707 333.56 208.259 333.992 208.655 334.544L207.251 336.236C207.083 336.008 206.873 335.804 206.621 335.624C206.369 335.432 206.093 335.282 205.793 335.174C205.505 335.066 205.205 335.012 204.893 335.012C204.401 335.012 203.963 335.132 203.579 335.372C203.207 335.6 202.913 335.918 202.697 336.326C202.481 336.734 202.373 337.202 202.373 337.73C202.373 338.246 202.481 338.708 202.697 339.116C202.925 339.512 203.231 339.836 203.615 340.088C203.999 340.328 204.431 340.448 204.911 340.448C205.223 340.448 205.517 340.406 205.793 340.322C206.069 340.226 206.327 340.088 206.567 339.908C206.819 339.728 207.047 339.512 207.251 339.26L208.637 340.952C208.229 341.468 207.665 341.888 206.945 342.212C206.225 342.524 205.463 342.68 204.659 342.68ZM211.193 342.5V330.566H213.749V342.5H211.193ZM209.411 335.264V332.978H215.693V335.264H209.411ZM217.575 342.5V332.978H220.131V342.5H217.575ZM218.835 331.016C218.343 331.016 217.959 330.896 217.683 330.656C217.407 330.416 217.269 330.074 217.269 329.63C217.269 329.222 217.407 328.892 217.683 328.64C217.971 328.376 218.355 328.244 218.835 328.244C219.327 328.244 219.711 328.37 219.987 328.622C220.263 328.862 220.401 329.198 220.401 329.63C220.401 330.05 220.257 330.386 219.969 330.638C219.693 330.89 219.315 331.016 218.835 331.016ZM225.849 342.5L221.853 332.978H224.661L227.199 340.088L226.605 340.196L229.269 332.978H232.005L227.811 342.5H225.849ZM233.782 342.5V332.978H236.338V342.5H233.782ZM235.042 331.016C234.55 331.016 234.166 330.896 233.89 330.656C233.614 330.416 233.476 330.074 233.476 329.63C233.476 329.222 233.614 328.892 233.89 328.64C234.178 328.376 234.562 328.244 235.042 328.244C235.534 328.244 235.918 328.37 236.194 328.622C236.47 328.862 236.608 329.198 236.608 329.63C236.608 330.05 236.464 330.386 236.176 330.638C235.9 330.89 235.522 331.016 235.042 331.016ZM239.986 342.5V330.566H242.542V342.5H239.986ZM238.204 335.264V332.978H244.486V335.264H238.204ZM247.484 346.64L249.572 341.744L249.608 343.22L244.964 332.978H247.862L250.184 338.468C250.28 338.672 250.37 338.912 250.454 339.188C250.55 339.452 250.628 339.71 250.688 339.962L250.256 340.142C250.328 339.938 250.412 339.704 250.508 339.44C250.604 339.176 250.7 338.894 250.796 338.594L252.794 332.978H255.71L251.714 342.5L250.076 346.64H247.484Z" fill="#B4B4B3"/>
<path d="M92.8102 373.5V362.3H94.3622L101.21 371.468L100.954 371.612C100.912 371.345 100.874 371.057 100.842 370.748C100.81 370.428 100.778 370.092 100.746 369.74C100.725 369.377 100.704 368.999 100.682 368.604C100.672 368.199 100.661 367.777 100.65 367.34C100.64 366.903 100.634 366.449 100.634 365.98V362.3H102.362V373.5H100.778L94.0422 364.668L94.2182 364.444C94.2715 365.095 94.3142 365.649 94.3462 366.108C94.3889 366.556 94.4209 366.94 94.4422 367.26C94.4742 367.569 94.4955 367.825 94.5062 368.028C94.5169 368.22 94.5222 368.38 94.5222 368.508C94.5329 368.636 94.5382 368.748 94.5382 368.844V373.5H92.8102ZM108.858 373.66C108.036 373.66 107.3 373.473 106.65 373.1C106.01 372.716 105.503 372.199 105.13 371.548C104.756 370.887 104.57 370.135 104.57 369.292C104.57 368.449 104.756 367.703 105.13 367.052C105.503 366.391 106.01 365.873 106.65 365.5C107.3 365.116 108.036 364.924 108.858 364.924C109.668 364.924 110.394 365.116 111.034 365.5C111.684 365.873 112.196 366.391 112.57 367.052C112.943 367.703 113.13 368.449 113.13 369.292C113.13 370.135 112.943 370.887 112.57 371.548C112.196 372.199 111.684 372.716 111.034 373.1C110.394 373.473 109.668 373.66 108.858 373.66ZM108.858 372.156C109.359 372.156 109.807 372.033 110.202 371.788C110.596 371.532 110.906 371.191 111.13 370.764C111.354 370.327 111.46 369.836 111.45 369.292C111.46 368.737 111.354 368.247 111.13 367.82C110.906 367.383 110.596 367.041 110.202 366.796C109.807 366.551 109.359 366.428 108.858 366.428C108.356 366.428 107.903 366.556 107.498 366.812C107.103 367.057 106.794 367.399 106.57 367.836C106.346 368.263 106.239 368.748 106.25 369.292C106.239 369.836 106.346 370.327 106.57 370.764C106.794 371.191 107.103 371.532 107.498 371.788C107.903 372.033 108.356 372.156 108.858 372.156ZM115.965 373.5V362.956H117.613V373.5H115.965ZM114.221 366.7V365.1H119.565V366.7H114.221ZM121.338 373.5V365.1H122.986V373.5H121.338ZM122.138 363.244C121.786 363.244 121.514 363.153 121.322 362.972C121.13 362.791 121.034 362.535 121.034 362.204C121.034 361.895 121.13 361.644 121.322 361.452C121.525 361.26 121.797 361.164 122.138 361.164C122.49 361.164 122.762 361.255 122.954 361.436C123.146 361.617 123.242 361.873 123.242 362.204C123.242 362.513 123.141 362.764 122.938 362.956C122.746 363.148 122.479 363.244 122.138 363.244ZM126.431 373.5V364.156C126.431 363.676 126.538 363.249 126.751 362.876C126.965 362.503 127.258 362.209 127.631 361.996C128.005 361.783 128.437 361.676 128.927 361.676C129.269 361.676 129.589 361.74 129.887 361.868C130.186 361.996 130.426 362.167 130.607 362.38L130.047 363.644C129.909 363.516 129.754 363.415 129.583 363.34C129.423 363.255 129.269 363.212 129.119 363.212C128.895 363.212 128.703 363.249 128.543 363.324C128.394 363.388 128.282 363.495 128.207 363.644C128.133 363.783 128.095 363.953 128.095 364.156V373.5H127.263C127.125 373.5 126.986 373.5 126.847 373.5C126.709 373.5 126.57 373.5 126.431 373.5ZM125.087 366.764V365.244H130.079V366.764H125.087ZM132.079 373.5V365.1H133.727V373.5H132.079ZM132.879 363.244C132.527 363.244 132.255 363.153 132.063 362.972C131.871 362.791 131.775 362.535 131.775 362.204C131.775 361.895 131.871 361.644 132.063 361.452C132.266 361.26 132.538 361.164 132.879 361.164C133.231 361.164 133.503 361.255 133.695 361.436C133.887 361.617 133.983 361.873 133.983 362.204C133.983 362.513 133.882 362.764 133.679 362.956C133.487 363.148 133.221 363.244 132.879 363.244ZM139.822 373.66C139.043 373.66 138.344 373.468 137.726 373.084C137.118 372.7 136.632 372.177 136.27 371.516C135.918 370.855 135.742 370.113 135.742 369.292C135.742 368.471 135.918 367.729 136.27 367.068C136.632 366.407 137.118 365.884 137.726 365.5C138.344 365.116 139.043 364.924 139.822 364.924C140.568 364.924 141.246 365.079 141.854 365.388C142.472 365.687 142.942 366.097 143.262 366.62L142.35 367.74C142.179 367.495 141.96 367.271 141.694 367.068C141.427 366.865 141.144 366.705 140.846 366.588C140.547 366.471 140.259 366.412 139.982 366.412C139.47 366.412 139.011 366.54 138.606 366.796C138.211 367.041 137.896 367.383 137.662 367.82C137.427 368.257 137.31 368.748 137.31 369.292C137.31 369.836 137.432 370.327 137.678 370.764C137.923 371.191 138.248 371.532 138.654 371.788C139.059 372.044 139.507 372.172 139.998 372.172C140.286 372.172 140.563 372.124 140.83 372.028C141.107 371.932 141.374 371.788 141.63 371.596C141.886 371.404 142.126 371.169 142.35 370.892L143.262 372.012C142.92 372.492 142.43 372.887 141.79 373.196C141.16 373.505 140.504 373.66 139.822 373.66ZM148.048 373.66C147.355 373.66 146.72 373.468 146.144 373.084C145.579 372.7 145.125 372.177 144.784 371.516C144.443 370.855 144.272 370.108 144.272 369.276C144.272 368.433 144.443 367.687 144.784 367.036C145.136 366.375 145.605 365.857 146.192 365.484C146.789 365.111 147.456 364.924 148.192 364.924C148.629 364.924 149.029 364.988 149.392 365.116C149.755 365.244 150.069 365.425 150.336 365.66C150.613 365.884 150.837 366.145 151.008 366.444C151.189 366.743 151.301 367.063 151.344 367.404L150.976 367.276V365.1H152.64V373.5H150.976V371.5L151.36 371.388C151.296 371.676 151.163 371.959 150.96 372.236C150.768 372.503 150.517 372.743 150.208 372.956C149.909 373.169 149.573 373.34 149.2 373.468C148.837 373.596 148.453 373.66 148.048 373.66ZM148.48 372.14C148.981 372.14 149.424 372.017 149.808 371.772C150.192 371.527 150.491 371.191 150.704 370.764C150.928 370.327 151.04 369.831 151.04 369.276C151.04 368.732 150.928 368.247 150.704 367.82C150.491 367.393 150.192 367.057 149.808 366.812C149.424 366.567 148.981 366.444 148.48 366.444C147.989 366.444 147.552 366.567 147.168 366.812C146.795 367.057 146.496 367.393 146.272 367.82C146.059 368.247 145.952 368.732 145.952 369.276C145.952 369.831 146.059 370.327 146.272 370.764C146.496 371.191 146.795 371.527 147.168 371.772C147.552 372.017 147.989 372.14 148.48 372.14ZM155.981 373.5V362.956H157.629V373.5H155.981ZM154.237 366.7V365.1H159.581V366.7H154.237ZM161.354 373.5V365.1H163.002V373.5H161.354ZM162.154 363.244C161.802 363.244 161.53 363.153 161.338 362.972C161.146 362.791 161.05 362.535 161.05 362.204C161.05 361.895 161.146 361.644 161.338 361.452C161.54 361.26 161.812 361.164 162.154 361.164C162.506 361.164 162.778 361.255 162.97 361.436C163.162 361.617 163.258 361.873 163.258 362.204C163.258 362.513 163.156 362.764 162.954 362.956C162.762 363.148 162.495 363.244 162.154 363.244ZM169.311 373.66C168.489 373.66 167.753 373.473 167.103 373.1C166.463 372.716 165.956 372.199 165.583 371.548C165.209 370.887 165.023 370.135 165.023 369.292C165.023 368.449 165.209 367.703 165.583 367.052C165.956 366.391 166.463 365.873 167.103 365.5C167.753 365.116 168.489 364.924 169.311 364.924C170.121 364.924 170.847 365.116 171.487 365.5C172.137 365.873 172.649 366.391 173.023 367.052C173.396 367.703 173.583 368.449 173.583 369.292C173.583 370.135 173.396 370.887 173.023 371.548C172.649 372.199 172.137 372.716 171.487 373.1C170.847 373.473 170.121 373.66 169.311 373.66ZM169.311 372.156C169.812 372.156 170.26 372.033 170.655 371.788C171.049 371.532 171.359 371.191 171.583 370.764C171.807 370.327 171.913 369.836 171.903 369.292C171.913 368.737 171.807 368.247 171.583 367.82C171.359 367.383 171.049 367.041 170.655 366.796C170.26 366.551 169.812 366.428 169.311 366.428C168.809 366.428 168.356 366.556 167.951 366.812C167.556 367.057 167.247 367.399 167.023 367.836C166.799 368.263 166.692 368.748 166.703 369.292C166.692 369.836 166.799 370.327 167.023 370.764C167.247 371.191 167.556 371.532 167.951 371.788C168.356 372.033 168.809 372.156 169.311 372.156ZM175.379 373.5V365.1H177.027V366.828L176.739 367.02C176.845 366.647 177.053 366.305 177.363 365.996C177.672 365.676 178.04 365.42 178.467 365.228C178.893 365.025 179.331 364.924 179.779 364.924C180.419 364.924 180.952 365.052 181.379 365.308C181.805 365.553 182.125 365.932 182.339 366.444C182.552 366.956 182.659 367.601 182.659 368.38V373.5H181.011V368.492C181.011 368.012 180.947 367.617 180.819 367.308C180.691 366.988 180.493 366.759 180.227 366.62C179.96 366.471 179.629 366.407 179.235 366.428C178.915 366.428 178.621 366.481 178.355 366.588C178.088 366.684 177.853 366.823 177.651 367.004C177.459 367.185 177.304 367.399 177.187 367.644C177.08 367.879 177.027 368.135 177.027 368.412V373.5H176.211C176.072 373.5 175.933 373.5 175.795 373.5C175.656 373.5 175.517 373.5 175.379 373.5ZM187.694 373.66C186.99 373.66 186.356 373.537 185.79 373.292C185.225 373.047 184.756 372.684 184.382 372.204L185.502 371.244C185.822 371.617 186.169 371.889 186.542 372.06C186.926 372.22 187.358 372.3 187.838 372.3C188.03 372.3 188.206 372.279 188.366 372.236C188.537 372.183 188.681 372.108 188.798 372.012C188.926 371.916 189.022 371.804 189.086 371.676C189.15 371.537 189.182 371.388 189.182 371.228C189.182 370.951 189.081 370.727 188.878 370.556C188.772 370.481 188.601 370.401 188.366 370.316C188.142 370.22 187.849 370.124 187.486 370.028C186.868 369.868 186.361 369.687 185.966 369.484C185.572 369.281 185.268 369.052 185.054 368.796C184.894 368.593 184.777 368.375 184.702 368.14C184.628 367.895 184.59 367.628 184.59 367.34C184.59 366.988 184.665 366.668 184.814 366.38C184.974 366.081 185.188 365.825 185.454 365.612C185.732 365.388 186.052 365.217 186.414 365.1C186.788 364.983 187.182 364.924 187.598 364.924C187.993 364.924 188.382 364.977 188.766 365.084C189.161 365.191 189.524 365.345 189.854 365.548C190.185 365.751 190.462 365.991 190.686 366.268L189.742 367.308C189.54 367.105 189.316 366.929 189.07 366.78C188.836 366.62 188.596 366.497 188.35 366.412C188.105 366.327 187.881 366.284 187.678 366.284C187.454 366.284 187.252 366.305 187.07 366.348C186.889 366.391 186.734 366.455 186.606 366.54C186.489 366.625 186.398 366.732 186.334 366.86C186.27 366.988 186.238 367.132 186.238 367.292C186.249 367.431 186.281 367.564 186.334 367.692C186.398 367.809 186.484 367.911 186.59 367.996C186.708 368.081 186.884 368.172 187.118 368.268C187.353 368.364 187.652 368.455 188.014 368.54C188.548 368.679 188.985 368.833 189.326 369.004C189.678 369.164 189.956 369.351 190.158 369.564C190.372 369.767 190.521 370.001 190.606 370.268C190.692 370.535 190.734 370.833 190.734 371.164C190.734 371.644 190.596 372.076 190.318 372.46C190.052 372.833 189.689 373.127 189.23 373.34C188.772 373.553 188.26 373.66 187.694 373.66ZM199.099 373.5L196.235 365.1L197.899 365.084L199.947 371.372L199.579 371.34L201.803 366.428H202.795L205.035 371.356L204.603 371.388L206.667 365.1H208.331L205.499 373.5H204.363L202.027 368.156L202.395 368.204L200.219 373.5H199.099ZM210.104 373.5V365.1H211.752V373.5H210.104ZM210.904 363.244C210.552 363.244 210.28 363.153 210.088 362.972C209.896 362.791 209.8 362.535 209.8 362.204C209.8 361.895 209.896 361.644 210.088 361.452C210.29 361.26 210.562 361.164 210.904 361.164C211.256 361.164 211.528 361.255 211.72 361.436C211.912 361.617 212.008 361.873 212.008 362.204C212.008 362.513 211.906 362.764 211.704 362.956C211.512 363.148 211.245 363.244 210.904 363.244ZM214.317 373.5V361.66H215.965V373.5H214.317ZM218.332 373.5V361.66H219.98V373.5H218.332ZM230.032 373.66C229.339 373.66 228.704 373.468 228.128 373.084C227.563 372.7 227.11 372.177 226.768 371.516C226.427 370.855 226.256 370.108 226.256 369.276C226.256 368.433 226.427 367.687 226.768 367.036C227.12 366.375 227.59 365.857 228.176 365.484C228.774 365.111 229.44 364.924 230.176 364.924C230.614 364.924 231.014 364.988 231.376 365.116C231.739 365.244 232.054 365.425 232.32 365.66C232.598 365.884 232.822 366.145 232.992 366.444C233.174 366.743 233.286 367.063 233.328 367.404L232.96 367.276V365.1H234.624V373.5H232.96V371.5L233.344 371.388C233.28 371.676 233.147 371.959 232.944 372.236C232.752 372.503 232.502 372.743 232.192 372.956C231.894 373.169 231.558 373.34 231.184 373.468C230.822 373.596 230.438 373.66 230.032 373.66ZM230.464 372.14C230.966 372.14 231.408 372.017 231.792 371.772C232.176 371.527 232.475 371.191 232.688 370.764C232.912 370.327 233.024 369.831 233.024 369.276C233.024 368.732 232.912 368.247 232.688 367.82C232.475 367.393 232.176 367.057 231.792 366.812C231.408 366.567 230.966 366.444 230.464 366.444C229.974 366.444 229.536 366.567 229.152 366.812C228.779 367.057 228.48 367.393 228.256 367.82C228.043 368.247 227.936 368.732 227.936 369.276C227.936 369.831 228.043 370.327 228.256 370.764C228.48 371.191 228.779 371.527 229.152 371.772C229.536 372.017 229.974 372.14 230.464 372.14ZM236.925 377.02V365.1H238.589V367.02L238.333 366.876C238.397 366.556 238.579 366.252 238.877 365.964C239.176 365.665 239.539 365.425 239.965 365.244C240.403 365.052 240.851 364.956 241.309 364.956C242.067 364.956 242.739 365.143 243.325 365.516C243.912 365.889 244.376 366.401 244.717 367.052C245.059 367.703 245.229 368.449 245.229 369.292C245.229 370.124 245.059 370.871 244.717 371.532C244.387 372.183 243.928 372.7 243.341 373.084C242.755 373.457 242.093 373.644 241.357 373.644C240.867 373.644 240.392 373.548 239.933 373.356C239.475 373.153 239.085 372.897 238.765 372.588C238.445 372.279 238.248 371.959 238.173 371.628L238.589 371.404V377.02H236.925ZM241.085 372.124C241.576 372.124 242.013 372.001 242.397 371.756C242.781 371.511 243.085 371.175 243.309 370.748C243.533 370.321 243.645 369.836 243.645 369.292C243.645 368.748 243.533 368.268 243.309 367.852C243.096 367.425 242.797 367.089 242.413 366.844C242.029 366.599 241.587 366.476 241.085 366.476C240.584 366.476 240.141 366.599 239.757 366.844C239.373 367.079 239.069 367.409 238.845 367.836C238.621 368.263 238.509 368.748 238.509 369.292C238.509 369.836 238.621 370.321 238.845 370.748C239.069 371.175 239.373 371.511 239.757 371.756C240.141 372.001 240.584 372.124 241.085 372.124ZM247.019 377.02V365.1H248.683V367.02L248.427 366.876C248.491 366.556 248.673 366.252 248.971 365.964C249.27 365.665 249.633 365.425 250.059 365.244C250.497 365.052 250.945 364.956 251.403 364.956C252.161 364.956 252.833 365.143 253.419 365.516C254.006 365.889 254.47 366.401 254.811 367.052C255.153 367.703 255.323 368.449 255.323 369.292C255.323 370.124 255.153 370.871 254.811 371.532C254.481 372.183 254.022 372.7 253.435 373.084C252.849 373.457 252.187 373.644 251.451 373.644C250.961 373.644 250.486 373.548 250.027 373.356C249.569 373.153 249.179 372.897 248.859 372.588C248.539 372.279 248.342 371.959 248.267 371.628L248.683 371.404V377.02H247.019ZM251.179 372.124C251.67 372.124 252.107 372.001 252.491 371.756C252.875 371.511 253.179 371.175 253.403 370.748C253.627 370.321 253.739 369.836 253.739 369.292C253.739 368.748 253.627 368.268 253.403 367.852C253.19 367.425 252.891 367.089 252.507 366.844C252.123 366.599 251.681 366.476 251.179 366.476C250.678 366.476 250.235 366.599 249.851 366.844C249.467 367.079 249.163 367.409 248.939 367.836C248.715 368.263 248.603 368.748 248.603 369.292C248.603 369.836 248.715 370.321 248.939 370.748C249.163 371.175 249.467 371.511 249.851 371.756C250.235 372.001 250.678 372.124 251.179 372.124ZM261.033 373.66C260.169 373.66 259.401 373.479 258.729 373.116C258.068 372.743 257.545 372.236 257.161 371.596C256.788 370.956 256.601 370.22 256.601 369.388C256.601 368.727 256.708 368.124 256.921 367.58C257.134 367.036 257.428 366.567 257.801 366.172C258.185 365.767 258.638 365.457 259.161 365.244C259.694 365.02 260.27 364.908 260.889 364.908C261.433 364.908 261.94 365.015 262.409 365.228C262.878 365.431 263.284 365.713 263.625 366.076C263.977 366.439 264.244 366.871 264.425 367.372C264.617 367.863 264.708 368.401 264.697 368.988L264.681 369.692H257.817L257.449 368.38H263.257L263.017 368.652V368.268C262.985 367.916 262.868 367.601 262.665 367.324C262.462 367.047 262.206 366.828 261.897 366.668C261.588 366.508 261.252 366.428 260.889 366.428C260.313 366.428 259.828 366.54 259.433 366.764C259.038 366.977 258.74 367.297 258.537 367.724C258.334 368.14 258.233 368.657 258.233 369.276C258.233 369.863 258.356 370.375 258.601 370.812C258.846 371.239 259.193 371.569 259.641 371.804C260.089 372.039 260.606 372.156 261.193 372.156C261.609 372.156 261.993 372.087 262.345 371.948C262.708 371.809 263.097 371.559 263.513 371.196L264.345 372.364C264.089 372.62 263.774 372.844 263.401 373.036C263.038 373.228 262.649 373.383 262.233 373.5C261.828 373.607 261.428 373.66 261.033 373.66ZM269.72 373.66C269.027 373.66 268.392 373.468 267.816 373.084C267.251 372.7 266.797 372.177 266.456 371.516C266.115 370.855 265.944 370.108 265.944 369.276C265.944 368.433 266.115 367.687 266.456 367.036C266.808 366.375 267.277 365.857 267.864 365.484C268.461 365.111 269.128 364.924 269.864 364.924C270.301 364.924 270.701 364.988 271.064 365.116C271.427 365.244 271.741 365.425 272.008 365.66C272.285 365.884 272.509 366.145 272.68 366.444C272.861 366.743 272.973 367.063 273.016 367.404L272.648 367.276V365.1H274.312V373.5H272.648V371.5L273.032 371.388C272.968 371.676 272.835 371.959 272.632 372.236C272.44 372.503 272.189 372.743 271.88 372.956C271.581 373.169 271.245 373.34 270.872 373.468C270.509 373.596 270.125 373.66 269.72 373.66ZM270.152 372.14C270.653 372.14 271.096 372.017 271.48 371.772C271.864 371.527 272.163 371.191 272.376 370.764C272.6 370.327 272.712 369.831 272.712 369.276C272.712 368.732 272.6 368.247 272.376 367.82C272.163 367.393 271.864 367.057 271.48 366.812C271.096 366.567 270.653 366.444 270.152 366.444C269.661 366.444 269.224 366.567 268.84 366.812C268.467 367.057 268.168 367.393 267.944 367.82C267.731 368.247 267.624 368.732 267.624 369.276C267.624 369.831 267.731 370.327 267.944 370.764C268.168 371.191 268.467 371.527 268.84 371.772C269.224 372.017 269.661 372.14 270.152 372.14ZM276.613 373.5V365.1H278.277V367.74L278.117 367.1C278.234 366.695 278.432 366.327 278.709 365.996C278.997 365.665 279.322 365.404 279.685 365.212C280.058 365.02 280.442 364.924 280.837 364.924C281.018 364.924 281.189 364.94 281.349 364.972C281.52 365.004 281.653 365.041 281.749 365.084L281.317 366.876C281.189 366.823 281.045 366.78 280.885 366.748C280.736 366.705 280.586 366.684 280.437 366.684C280.149 366.684 279.872 366.743 279.605 366.86C279.349 366.967 279.12 367.121 278.917 367.324C278.725 367.516 278.57 367.745 278.453 368.012C278.336 368.268 278.277 368.551 278.277 368.86V373.5H276.613ZM287.55 373.5V361.66H289.198V366.828L288.91 367.02C289.017 366.647 289.225 366.305 289.534 365.996C289.844 365.676 290.212 365.42 290.638 365.228C291.065 365.025 291.502 364.924 291.95 364.924C292.59 364.924 293.124 365.052 293.55 365.308C293.977 365.553 294.297 365.932 294.51 366.444C294.724 366.956 294.83 367.601 294.83 368.38V373.5H293.182V368.492C293.182 368.012 293.118 367.617 292.99 367.308C292.862 366.988 292.665 366.759 292.398 366.62C292.132 366.471 291.801 366.407 291.406 366.428C291.086 366.428 290.793 366.481 290.526 366.588C290.26 366.684 290.025 366.823 289.822 367.004C289.63 367.185 289.476 367.399 289.358 367.644C289.252 367.879 289.198 368.135 289.198 368.412V373.5H288.382C288.244 373.5 288.105 373.5 287.966 373.5C287.828 373.5 287.689 373.5 287.55 373.5ZM300.986 373.66C300.122 373.66 299.354 373.479 298.682 373.116C298.021 372.743 297.498 372.236 297.114 371.596C296.741 370.956 296.554 370.22 296.554 369.388C296.554 368.727 296.661 368.124 296.874 367.58C297.087 367.036 297.381 366.567 297.754 366.172C298.138 365.767 298.591 365.457 299.114 365.244C299.647 365.02 300.223 364.908 300.842 364.908C301.386 364.908 301.893 365.015 302.362 365.228C302.831 365.431 303.237 365.713 303.578 366.076C303.93 366.439 304.197 366.871 304.378 367.372C304.57 367.863 304.661 368.401 304.65 368.988L304.634 369.692H297.77L297.402 368.38H303.21L302.97 368.652V368.268C302.938 367.916 302.821 367.601 302.618 367.324C302.415 367.047 302.159 366.828 301.85 366.668C301.541 366.508 301.205 366.428 300.842 366.428C300.266 366.428 299.781 366.54 299.386 366.764C298.991 366.977 298.693 367.297 298.49 367.724C298.287 368.14 298.186 368.657 298.186 369.276C298.186 369.863 298.309 370.375 298.554 370.812C298.799 371.239 299.146 371.569 299.594 371.804C300.042 372.039 300.559 372.156 301.146 372.156C301.562 372.156 301.946 372.087 302.298 371.948C302.661 371.809 303.05 371.559 303.466 371.196L304.298 372.364C304.042 372.62 303.727 372.844 303.354 373.036C302.991 373.228 302.602 373.383 302.186 373.5C301.781 373.607 301.381 373.66 300.986 373.66ZM306.441 373.5V365.1H308.105V367.74L307.945 367.1C308.062 366.695 308.26 366.327 308.537 365.996C308.825 365.665 309.15 365.404 309.513 365.212C309.886 365.02 310.27 364.924 310.665 364.924C310.846 364.924 311.017 364.94 311.177 364.972C311.348 365.004 311.481 365.041 311.577 365.084L311.145 366.876C311.017 366.823 310.873 366.78 310.713 366.748C310.564 366.705 310.414 366.684 310.265 366.684C309.977 366.684 309.7 366.743 309.433 366.86C309.177 366.967 308.948 367.121 308.745 367.324C308.553 367.516 308.398 367.745 308.281 368.012C308.164 368.268 308.105 368.551 308.105 368.86V373.5H306.441ZM316.455 373.66C315.591 373.66 314.823 373.479 314.151 373.116C313.489 372.743 312.967 372.236 312.583 371.596C312.209 370.956 312.023 370.22 312.023 369.388C312.023 368.727 312.129 368.124 312.343 367.58C312.556 367.036 312.849 366.567 313.223 366.172C313.607 365.767 314.06 365.457 314.583 365.244C315.116 365.02 315.692 364.908 316.311 364.908C316.855 364.908 317.361 365.015 317.831 365.228C318.3 365.431 318.705 365.713 319.047 366.076C319.399 366.439 319.665 366.871 319.847 367.372C320.039 367.863 320.129 368.401 320.119 368.988L320.103 369.692H313.239L312.871 368.38H318.679L318.439 368.652V368.268C318.407 367.916 318.289 367.601 318.087 367.324C317.884 367.047 317.628 366.828 317.319 366.668C317.009 366.508 316.673 366.428 316.311 366.428C315.735 366.428 315.249 366.54 314.855 366.764C314.46 366.977 314.161 367.297 313.959 367.724C313.756 368.14 313.655 368.657 313.655 369.276C313.655 369.863 313.777 370.375 314.023 370.812C314.268 371.239 314.615 371.569 315.063 371.804C315.511 372.039 316.028 372.156 316.615 372.156C317.031 372.156 317.415 372.087 317.767 371.948C318.129 371.809 318.519 371.559 318.935 371.196L319.767 372.364C319.511 372.62 319.196 372.844 318.823 373.036C318.46 373.228 318.071 373.383 317.655 373.5C317.249 373.607 316.849 373.66 316.455 373.66Z" fill="#8B94A0"/>
</svg>
