<svg width="25" height="25" viewBox="0 0 25 25" fill="none" xmlns="http://www.w3.org/2000/svg">
<path d="M18.207 14.2071L20.8551 16.8552C21.2112 17.2113 21.2112 17.7887 20.8551 18.1448C18.9299 20.07 15.882 20.2866 13.7039 18.653L12.1285 17.4714C10.385 16.1638 8.83616 14.615 7.52851 12.8714L6.34695 11.296C4.71335 9.11787 4.92995 6.06998 6.85517 4.14476C7.21127 3.78866 7.78861 3.78866 8.14471 4.14476L10.7928 6.79288C11.1833 7.18341 11.1833 7.81657 10.7928 8.2071L9.77169 9.22824C9.6094 9.39053 9.56917 9.63845 9.67181 9.84372C10.8584 12.2171 12.7828 14.1415 15.1562 15.3281C15.3614 15.4308 15.6094 15.3905 15.7716 15.2283L16.7928 14.2071C17.1833 13.8166 17.8165 13.8166 18.207 14.2071Z" stroke="#051A35"/>
</svg>
