<svg width="55" height="55" viewBox="0 0 55 55" fill="none" xmlns="http://www.w3.org/2000/svg">
<path d="M11.4584 29.2407C11.4584 26.1293 11.4584 24.5735 12.0873 23.2059C12.7163 21.8384 13.8976 20.8259 16.26 18.801L18.5517 16.8367C22.8218 13.1766 24.9567 11.3466 27.5 11.3466C30.0433 11.3466 32.1782 13.1766 36.4483 16.8367L38.74 18.801C41.1025 20.8259 42.2838 21.8384 42.9126 23.2059C43.5417 24.5735 43.5417 26.1293 43.5417 29.2407V38.9583C43.5417 43.2795 43.5417 45.4401 42.1992 46.7825C40.8568 48.125 38.6962 48.125 34.375 48.125H20.625C16.3038 48.125 14.1432 48.125 12.8008 46.7825C11.4584 45.4401 11.4584 43.2795 11.4584 38.9583V29.2407Z" stroke="#051A35"/>
<path d="M33.2292 48.125V36.6667C33.2292 35.401 32.2032 34.375 30.9375 34.375H24.0625C22.7969 34.375 21.7709 35.401 21.7709 36.6667V48.125" stroke="#051A35" stroke-linecap="round" stroke-linejoin="round"/>
</svg>
