<svg width="25" height="25" viewBox="0 0 25 25" fill="none" xmlns="http://www.w3.org/2000/svg">
<path d="M12.5 20C16.6421 20 20 16.6421 20 12.5C20 8.35786 16.6421 5 12.5 5C8.35786 5 5 8.35786 5 12.5C5 16.6421 8.35786 20 12.5 20Z" stroke="#051A35"/>
<path d="M12.5 5C12.7199 5 12.9896 5.11667 13.2939 5.45996C13.5978 5.80271 13.8942 6.32754 14.1533 7.01855C14.6702 8.39698 15 10.3349 15 12.5C15 14.6651 14.6702 16.603 14.1533 17.9814C13.8942 18.6725 13.5978 19.1973 13.2939 19.54C12.9896 19.8833 12.7199 20 12.5 20C12.2801 20 12.0104 19.8833 11.7061 19.54C11.4022 19.1973 11.1058 18.6725 10.8467 17.9814C10.3298 16.603 10 14.6651 10 12.5C10 10.3349 10.3298 8.39698 10.8467 7.01855C11.1058 6.32754 11.4022 5.80271 11.7061 5.45996C12.0104 5.11667 12.2801 5 12.5 5Z" stroke="#051A35"/>
<path d="M5 12.5H20" stroke="#051A35" stroke-linecap="round"/>
</svg>
