<svg width="72" height="38" viewBox="0 0 72 38" fill="none" xmlns="http://www.w3.org/2000/svg">
<g clip-path="url(#clip0_302_460)">
<path d="M19.1377 0H14.0475C12.9956 0 12.1428 0.859474 12.1428 1.91969V36.0803C12.1428 37.1405 12.9956 38 14.0475 38H19.1377C20.1896 38 21.0424 37.1405 21.0424 36.0803V1.91969C21.0424 0.859474 20.1896 0 19.1377 0Z" fill="#051A35"/>
<path d="M31.0607 23.4838H12.1428V14.514H30.9475C30.6678 15.0846 30.4414 15.6864 30.2749 16.3129C30.0551 17.134 29.9397 17.9954 29.9397 18.8859C29.9397 19.8592 30.0796 20.7989 30.3371 21.6849C30.5191 22.3114 30.7633 22.9132 31.0585 23.4838H31.0607Z" fill="#FBBC05"/>
<path d="M30.2771 16.3151C30.0573 17.1362 29.9419 17.9976 29.9419 18.8881C29.9419 19.8613 30.0818 20.8011 30.3393 21.6871C30.5213 22.3135 30.7655 22.9154 31.0607 23.4859C32.4659 26.1887 35.0721 28.1576 38.1666 28.6722C39.0945 28.8266 39.7827 29.6231 39.7827 30.5695V35.9594C39.7827 37.105 38.7948 38.0022 37.6671 37.8679C29.791 36.9327 23.4021 31.1065 21.5707 23.4837C21.4286 22.8953 21.3154 22.2934 21.2288 21.6848C21.1045 20.8078 21.0424 19.9106 21.0424 18.9977C21.0424 18.0848 21.1067 17.1899 21.2288 16.3106C21.3132 15.702 21.4286 15.1002 21.5707 14.5117C23.3999 6.89337 29.7887 1.06719 37.6649 0.131953C38.7926 -0.00229121 39.7805 0.897144 39.7805 2.04045V7.20437C39.7805 8.14856 39.0967 8.94731 38.171 9.10169C34.9899 9.62971 32.3239 11.6948 30.9475 14.5162C30.6678 15.0867 30.4414 15.6886 30.2749 16.3151H30.2771Z" fill="#051A35"/>
<path d="M4.44867 23.4837C6.9056 23.4837 8.89733 21.4763 8.89733 19C8.89733 16.5237 6.9056 14.5162 4.44867 14.5162C1.99174 14.5162 0 16.5237 0 19C0 21.4763 1.99174 23.4837 4.44867 23.4837Z" fill="#FBBC05"/>
<path d="M44.9751 17.1809V5.9313H47.1617V11.3011L49.9144 5.70532L51.7302 6.43919L49.3949 11.0281L51.9833 16.682L49.9743 17.4181L47.9364 12.724L47.1617 14.2388V17.1787H44.9751V17.1809Z" fill="#051A35"/>
<path d="M52.9822 17.1809V8.93161L55.0667 8.67655V17.1809H52.9822ZM53.071 7.86661V5.87085H54.9756V7.86661H53.071Z" fill="#051A35"/>
<path d="M58.8449 17.3756C57.9925 17.3756 57.3643 16.9863 56.9625 16.2055C56.5607 15.4246 56.3586 14.3596 56.3586 13.0105C56.3586 12.1916 56.4474 11.4465 56.6272 10.7753C56.8048 10.1063 57.0868 9.57381 57.4686 9.17779C57.8504 8.78177 58.3432 8.58487 58.9493 8.58487C59.3355 8.58487 59.6574 8.67213 59.9171 8.84665C60.1746 9.02117 60.3789 9.24491 60.5276 9.5134V6.03424L62.6121 5.77917V17.0579L60.7074 17.2973V16.0533C60.5676 16.4538 60.3456 16.7738 60.037 17.0132C59.7284 17.2526 59.3333 17.3734 58.8471 17.3734L58.8449 17.3756ZM59.5286 15.7557C59.906 15.7557 60.1658 15.5656 60.31 15.1852C60.4543 14.8048 60.5254 14.2947 60.5254 13.6548V12.3795C60.5254 11.7486 60.4566 11.2295 60.3167 10.82C60.1769 10.4106 59.9304 10.2048 59.573 10.2048C59.1757 10.2048 58.896 10.4621 58.7317 10.9767C58.5674 11.4913 58.4853 12.1647 58.4853 12.9948C58.4853 13.8249 58.5674 14.505 58.7317 15.004C58.896 15.5052 59.1601 15.7535 59.5286 15.7535V15.7557Z" fill="#051A35"/>
<path d="M64.5301 10.5672L64.1439 9.62303C64.3725 9.53353 64.5479 9.38139 64.6722 9.1666C64.7965 8.95181 64.8587 8.62962 64.8587 8.20004H63.8619V5.93579H65.8865V8.17095C65.8865 8.8019 65.7599 9.31874 65.5069 9.72371C65.2538 10.1287 64.9297 10.4106 64.5324 10.5717L64.5301 10.5672Z" fill="#FBBC05"/>
<path d="M69.1586 17.4069C68.315 17.4069 67.6491 17.1697 67.1562 16.6954C66.6656 16.221 66.4104 15.5677 66.3904 14.7376L68.1019 14.543C68.1308 14.9636 68.2484 15.2903 68.4527 15.5252C68.6569 15.7601 68.9211 15.8787 69.2496 15.8787C69.5071 15.8787 69.7091 15.8116 69.8512 15.6774C69.9955 15.5431 70.0665 15.3596 70.0665 15.1292C70.0665 14.9301 70.011 14.76 69.9023 14.6191C69.7935 14.4781 69.6003 14.3349 69.3229 14.185L67.9088 13.4042C67.4515 13.1536 67.1007 12.8291 66.8521 12.4287C66.6035 12.0282 66.4792 11.5829 66.4792 11.0929C66.4792 10.6029 66.5946 10.1711 66.8299 9.79523C67.063 9.41935 67.3849 9.12625 67.7978 8.90922C68.2085 8.69443 68.6835 8.58704 69.2185 8.58704C70.0021 8.58704 70.6259 8.80183 71.0855 9.23141C71.5472 9.66099 71.798 10.2517 71.838 11.0012L70.1265 11.3457C70.0976 10.5269 69.7802 10.1152 69.1741 10.1152C68.9255 10.1152 68.7368 10.1778 68.6081 10.3031C68.4793 10.4284 68.4149 10.6007 68.4149 10.82C68.4149 11.0101 68.4726 11.1802 68.5859 11.3301C68.6991 11.48 68.8966 11.6299 69.1741 11.7798L70.4239 12.4689C70.97 12.7687 71.3696 13.1066 71.6227 13.4825C71.8757 13.8583 72.0023 14.2991 72.0023 14.8092C72.0023 15.3194 71.8824 15.7691 71.6449 16.1584C71.4073 16.5477 71.0744 16.8542 70.6481 17.0735C70.2219 17.2928 69.7247 17.4024 69.1608 17.4024L69.1586 17.4069Z" fill="#051A35"/>
<path d="M48.3093 32.2946C47.4569 32.2946 46.7576 32.0507 46.2115 31.5608C45.6654 31.0708 45.2636 30.3861 45.0061 29.5068C44.7486 28.6275 44.6199 27.6117 44.6199 26.4617C44.6199 24.5622 44.924 23.1123 45.5345 22.1122C46.1449 21.1121 47.0795 20.6132 48.3404 20.6132C49.0441 20.6132 49.6346 20.7899 50.1119 21.1457C50.5892 21.5014 50.9577 21.969 51.2196 22.5485C51.4816 23.128 51.6281 23.7589 51.6592 24.4391L49.6213 24.8732C49.6013 24.5331 49.5503 24.1841 49.4659 23.8238C49.3815 23.4636 49.2439 23.1593 49.0574 22.9087C48.8687 22.6581 48.6068 22.5328 48.2694 22.5328C47.7921 22.5328 47.448 22.8349 47.2349 23.4412C47.0218 24.0453 46.9152 25.0544 46.9152 26.464C46.9152 27.4238 46.9596 28.189 47.0484 28.7595C47.1372 29.3301 47.286 29.7418 47.4946 29.9968C47.7033 30.2519 47.9764 30.3794 48.3138 30.3794C48.6512 30.3794 48.8932 30.2743 49.073 30.0639C49.2506 29.8536 49.3838 29.5874 49.4681 29.2607C49.5525 28.9363 49.6035 28.6029 49.6235 28.2628L51.6614 28.4888C51.6214 29.1399 51.4749 29.7552 51.2218 30.3414C50.9688 30.9253 50.6047 31.3997 50.1274 31.7599C49.6501 32.1201 49.0463 32.2991 48.3116 32.2991L48.3093 32.2946Z" fill="#FBBC05"/>
<path d="M54.4252 32.2633C53.8302 32.2633 53.353 32.0507 52.9956 31.6256C52.6382 31.2005 52.4606 30.6121 52.4606 29.8626C52.4606 29.2025 52.6226 28.6655 52.9445 28.2494C53.2664 27.8355 53.7059 27.5289 54.2609 27.3343C54.8159 27.1396 55.4463 27.0412 56.15 27.0412V26.276C56.15 25.9672 56.0923 25.6987 55.9791 25.4728C55.8659 25.2468 55.655 25.1349 55.3464 25.1349C55.0889 25.1349 54.8958 25.2468 54.767 25.4728C54.6383 25.6987 54.5539 25.965 54.514 26.276L52.6692 25.871C52.798 25.0723 53.1132 24.4727 53.6149 24.0789C54.1166 23.6829 54.7138 23.486 55.4086 23.486C56.3809 23.486 57.0957 23.75 57.5508 24.2802C58.0081 24.8105 58.2345 25.5511 58.2345 26.4997V29.8603C58.2345 30.2608 58.2567 30.6456 58.3011 31.0148C58.3455 31.384 58.4232 31.7397 58.532 32.0798H56.5074C56.3676 31.7196 56.2943 31.3549 56.2832 30.9857C56.1345 31.3459 55.9081 31.648 55.6062 31.8941C55.3043 32.138 54.9091 32.261 54.423 32.261L54.4252 32.2633ZM54.5295 29.5627C54.5295 29.8737 54.5961 30.1221 54.7293 30.3123C54.8625 30.5024 55.0645 30.5964 55.3309 30.5964C55.5795 30.5964 55.7771 30.5114 55.9258 30.3414C56.0746 30.1713 56.15 29.952 56.15 29.6813V28.1666C55.635 28.1666 55.2354 28.2986 54.9513 28.5649C54.6694 28.8289 54.5273 29.1622 54.5273 29.5627H54.5295Z" fill="#FBBC05"/>
<path d="M59.6929 32.0842V23.8797L61.6864 23.6403V25.7255C61.8062 25.0767 62.046 24.5397 62.4078 24.1213C62.7697 23.7007 63.1781 23.4904 63.6354 23.4904C64.0217 23.4904 64.3103 23.5866 64.499 23.7745L64.0528 25.815C63.8441 25.6651 63.591 25.589 63.2936 25.589C62.8673 25.589 62.5077 25.8083 62.2147 26.2491C61.9217 26.6898 61.7751 27.2783 61.7751 28.0189V32.0842H59.6907H59.6929Z" fill="#FBBC05"/>
<path d="M67.8644 32.2789C67.1207 32.2789 66.5169 32.0865 66.0552 31.7016C65.5935 31.3168 65.256 30.7977 65.0429 30.1422C64.8298 29.4866 64.7233 28.755 64.7233 27.945C64.7233 27.0859 64.8476 26.3229 65.0962 25.6584C65.3448 24.9939 65.7022 24.4726 66.1684 24.0989C66.6346 23.7231 67.1962 23.5374 67.8511 23.5374C68.506 23.5374 69.0765 23.6917 69.5027 24.0027C69.9289 24.3137 70.2419 24.7299 70.4395 25.2557C70.6371 25.7815 70.737 26.3789 70.737 27.0478C70.737 27.5087 70.7214 27.992 70.6926 28.5021H66.8388C66.8477 28.8512 66.8832 29.198 66.9432 29.5381C67.0031 29.8781 67.1074 30.1556 67.2562 30.3704C67.4049 30.5852 67.618 30.6926 67.8955 30.6926C68.2329 30.6926 68.4638 30.5583 68.5881 30.2876C68.7124 30.0169 68.7945 29.7171 68.8345 29.3882L70.6792 29.7775C70.5394 30.5583 70.2197 31.1691 69.7202 31.6144C69.2186 32.0596 68.6014 32.2811 67.8666 32.2811L67.8644 32.2789ZM66.8366 27.1642H68.8167V26.9539C68.8167 26.6742 68.7923 26.3923 68.7413 26.1059C68.6924 25.8217 68.5992 25.5801 68.466 25.3854C68.3328 25.1908 68.1419 25.0923 67.8933 25.0923C67.6446 25.0923 67.4315 25.1953 67.2828 25.3989C67.1341 25.6047 67.0275 25.8665 66.9631 26.1864C66.8988 26.5064 66.8566 26.8308 66.8366 27.1619V27.1642Z" fill="#FBBC05"/>
</g>
<defs>
<clipPath id="clip0_302_460">
<rect width="72" height="38" fill="white"/>
</clipPath>
</defs>
</svg>
