<svg width="25" height="25" viewBox="0 0 25 25" fill="none" xmlns="http://www.w3.org/2000/svg">
<path d="M12.5 15C13.8807 15 15 13.8807 15 12.5C15 11.1193 13.8807 10 12.5 10C11.1193 10 10 11.1193 10 12.5C10 13.8807 11.1193 15 12.5 15Z" stroke="#051A35"/>
<path d="M18.7266 11.8805C18.8553 12.134 18.9196 12.2607 18.9196 12.5C18.9196 12.7393 18.8553 12.866 18.7266 13.1195C18.1002 14.3533 16.3121 17 12.5001 17C8.68808 17 6.90001 14.3533 6.27357 13.1195C6.1449 12.866 6.08057 12.7393 6.08057 12.5C6.08057 12.2607 6.1449 12.134 6.27357 11.8805C6.90001 10.6467 8.68808 8 12.5001 8C16.3121 8 18.1002 10.6467 18.7266 11.8805Z" stroke="#051A35"/>
<path d="M18 4H18.2C19.9913 4 20.887 4 21.4435 4.5565C22 5.11299 22 6.00866 22 7.8V8" stroke="#051A35" stroke-linecap="round"/>
<path d="M18 21H18.2C19.9913 21 20.887 21 21.4435 20.4435C22 19.887 22 18.9913 22 17.2V17" stroke="#051A35" stroke-linecap="round"/>
<path d="M7 4H6.8C5.00866 4 4.11299 4 3.5565 4.5565C3 5.11299 3 6.00866 3 7.8V8" stroke="#051A35" stroke-linecap="round"/>
<path d="M7 21H6.8C5.00866 21 4.11299 21 3.5565 20.4435C3 19.887 3 18.9913 3 17.2V17" stroke="#051A35" stroke-linecap="round"/>
</svg>
