<svg width="245" height="129" viewBox="0 0 245 129" fill="none" xmlns="http://www.w3.org/2000/svg">
<g clip-path="url(#clip0_117_784)">
<path d="M65.1214 0H47.8005C44.221 0 41.3193 2.91769 41.3193 6.51684V122.483C41.3193 126.082 44.221 129 47.8005 129H65.1214C68.7008 129 71.6025 126.082 71.6025 122.483V6.51684C71.6025 2.91769 68.7008 0 65.1214 0Z" fill="#051A35"/>
<path d="M105.693 79.7211H41.3193V49.2712H105.308C104.356 51.2081 103.585 53.2512 103.019 55.3779C102.271 58.1654 101.878 61.0897 101.878 64.1126C101.878 67.4166 102.354 70.6067 103.23 73.6144C103.85 75.7411 104.681 77.7843 105.685 79.7211H105.693Z" fill="#FBBC05"/>
<path d="M103.026 55.3855C102.279 58.173 101.886 61.0972 101.886 64.1202C101.886 67.4242 102.362 70.6143 103.238 73.622C103.857 75.7487 104.688 77.7919 105.693 79.7287C110.474 88.9039 119.343 95.5879 129.873 97.3348C133.03 97.8589 135.372 100.563 135.372 103.776V122.073C135.372 125.962 132.01 129.008 128.173 128.552C101.372 125.377 79.6322 105.599 73.4003 79.7211C72.9169 77.7235 72.5317 75.6804 72.2371 73.6144C71.814 70.637 71.6025 67.5913 71.6025 64.4924C71.6025 61.3935 71.8216 58.3553 72.2371 55.3703C72.5241 53.3044 72.9169 51.2612 73.4003 49.2636C79.6247 23.4014 101.365 3.62298 128.165 0.448106C132.003 -0.00761747 135.364 3.04573 135.364 6.92697V24.4571C135.364 27.6624 133.038 30.3739 129.888 30.898C119.063 32.6905 109.991 39.701 105.308 49.2788C104.356 51.2156 103.585 53.2588 103.019 55.3855H103.026Z" fill="#051A35"/>
<path d="M15.1378 79.7211C23.4982 79.7211 30.2756 72.9064 30.2756 64.5C30.2756 56.0936 23.4982 49.2788 15.1378 49.2788C6.77743 49.2788 0 56.0936 0 64.5C0 72.9064 6.77743 79.7211 15.1378 79.7211Z" fill="#FBBC05"/>
<path d="M153.04 58.325V20.1354H160.481V38.3643L169.847 19.3683L176.026 21.8596L168.08 37.4377L176.887 56.6312L170.051 59.1301L163.117 43.195L160.481 48.3371V58.3174H153.04V58.325Z" fill="#051A35"/>
<path d="M180.287 58.325V30.3208L187.38 29.4549V58.325H180.287ZM180.589 26.7054V19.9303H187.07V26.7054H180.589Z" fill="#051A35"/>
<path d="M200.236 58.9858C197.336 58.9858 195.198 57.6642 193.831 55.0134C192.464 52.3626 191.776 48.7472 191.776 44.1672C191.776 41.3873 192.078 38.858 192.69 36.5794C193.294 34.3084 194.254 32.5007 195.553 31.1563C196.852 29.8119 198.529 29.1435 200.591 29.1435C201.906 29.1435 203.001 29.4397 203.885 30.0322C204.761 30.6246 205.456 31.3841 205.962 32.2956V20.4848L213.055 19.6189V57.9072L206.574 58.7199V54.4969C206.098 55.8565 205.343 56.9426 204.293 57.7553C203.243 58.568 201.898 58.9782 200.244 58.9782L200.236 58.9858ZM202.563 53.4867C203.847 53.4867 204.731 52.8411 205.222 51.5499C205.713 50.2587 205.955 48.5269 205.955 46.3546V42.0253C205.955 39.8834 205.72 38.1213 205.245 36.7313C204.769 35.3413 203.93 34.6426 202.714 34.6426C201.362 34.6426 200.41 35.516 199.851 37.263C199.292 39.0099 199.013 41.2961 199.013 44.114C199.013 46.9319 199.292 49.2409 199.851 50.9347C200.41 52.636 201.309 53.4791 202.563 53.4791V53.4867Z" fill="#051A35"/>
<path d="M219.582 35.8731L218.267 32.6678C219.045 32.364 219.642 31.8475 220.065 31.1184C220.488 30.3892 220.7 29.2955 220.7 27.8372H217.308V20.1506H224.197V27.7384C224.197 29.8803 223.766 31.6349 222.905 33.0096C222.044 34.3844 220.941 35.3414 219.589 35.8883L219.582 35.8731Z" fill="#FBBC05"/>
<path d="M235.331 59.0921C232.461 59.0921 230.195 58.287 228.518 56.6768C226.848 55.0666 225.98 52.8487 225.912 50.0308L231.736 49.37C231.834 50.798 232.234 51.9069 232.929 52.7044C233.624 53.5019 234.523 53.9045 235.641 53.9045C236.517 53.9045 237.205 53.6766 237.688 53.2209C238.179 52.7652 238.421 52.1424 238.421 51.36C238.421 50.684 238.232 50.1068 237.862 49.6283C237.492 49.1498 236.834 48.6637 235.89 48.1548L231.078 45.504C229.522 44.6533 228.329 43.552 227.483 42.1924C226.637 40.8328 226.214 39.3213 226.214 37.658C226.214 35.9946 226.607 34.5287 227.407 33.2526C228.2 31.9766 229.296 30.9816 230.701 30.2449C232.098 29.5157 233.715 29.1511 235.535 29.1511C238.202 29.1511 240.324 29.8803 241.888 31.3386C243.459 32.7969 244.313 34.8021 244.449 37.3465L238.625 38.5162C238.526 35.7363 237.446 34.3388 235.384 34.3388C234.538 34.3388 233.896 34.5514 233.458 34.9768C233.02 35.4021 232.801 35.987 232.801 36.7313C232.801 37.3769 232.997 37.9542 233.382 38.4631C233.768 38.972 234.44 39.4808 235.384 39.9897L239.637 42.3291C241.495 43.3469 242.855 44.4938 243.716 45.7698C244.577 47.0458 245.008 48.5421 245.008 50.2739C245.008 52.0056 244.6 53.5323 243.791 54.8539C242.983 56.1755 241.85 57.2161 240.4 57.9604C238.949 58.7048 237.257 59.0769 235.339 59.0769L235.331 59.0921Z" fill="#051A35"/>
<path d="M164.386 109.632C161.485 109.632 159.106 108.804 157.248 107.141C155.389 105.477 154.022 103.153 153.146 100.168C152.27 97.183 151.832 93.7347 151.832 89.8307C151.832 83.3822 152.866 78.4604 154.944 75.0652C157.021 71.6701 160.201 69.9763 164.492 69.9763C166.886 69.9763 168.896 70.5764 170.52 71.784C172.144 72.9917 173.398 74.5791 174.289 76.5463C175.18 78.5135 175.679 80.6554 175.785 82.9644L168.85 84.4379C168.782 83.2834 168.609 82.0986 168.321 80.8757C168.034 79.6528 167.566 78.6199 166.932 77.7692C166.29 76.9185 165.398 76.4932 164.25 76.4932C162.626 76.4932 161.455 77.5185 160.73 79.5769C160.005 81.6276 159.642 85.0532 159.642 89.8382C159.642 93.0967 159.793 95.6943 160.095 97.6311C160.398 99.5679 160.904 100.965 161.614 101.831C162.324 102.697 163.253 103.13 164.401 103.13C165.549 103.13 166.373 102.773 166.984 102.059C167.589 101.345 168.042 100.441 168.329 99.3325C168.616 98.2311 168.79 97.0994 168.858 95.9449L175.792 96.7121C175.656 98.9223 175.158 101.011 174.297 103.001C173.435 104.983 172.197 106.594 170.573 107.817C168.948 109.039 166.894 109.647 164.394 109.647L164.386 109.632Z" fill="#FBBC05"/>
<path d="M185.197 109.525C183.172 109.525 181.548 108.804 180.332 107.361C179.116 105.918 178.511 103.92 178.511 101.376C178.511 99.135 179.063 97.3121 180.158 95.8993C181.253 94.4942 182.749 93.4536 184.638 92.7928C186.526 92.132 188.671 91.7978 191.066 91.7978V89.2002C191.066 88.152 190.869 87.2406 190.484 86.4735C190.099 85.7063 189.381 85.3266 188.331 85.3266C187.455 85.3266 186.798 85.7063 186.36 86.4735C185.922 87.2406 185.635 88.1444 185.499 89.2002L179.222 87.8254C179.66 85.1139 180.732 83.0783 182.439 81.7415C184.147 80.3972 186.179 79.7288 188.543 79.7288C191.851 79.7288 194.284 80.625 195.832 82.4251C197.388 84.2252 198.159 86.7393 198.159 89.9597V101.368C198.159 102.728 198.234 104.034 198.386 105.287C198.537 106.54 198.801 107.748 199.171 108.903H192.282C191.806 107.68 191.557 106.442 191.519 105.188C191.013 106.411 190.243 107.437 189.215 108.272C188.188 109.1 186.843 109.518 185.189 109.518L185.197 109.525ZM185.552 100.358C185.552 101.414 185.778 102.257 186.231 102.902C186.685 103.548 187.372 103.867 188.279 103.867C189.125 103.867 189.797 103.578 190.303 103.001C190.809 102.424 191.066 101.679 191.066 100.76V95.6183C189.313 95.6183 187.954 96.0664 186.987 96.9703C186.027 97.8665 185.544 98.9983 185.544 100.358H185.552Z" fill="#FBBC05"/>
<path d="M203.122 108.918V81.0656L209.905 80.2529V87.3318C210.313 85.1291 211.129 83.3063 212.36 81.8859C213.591 80.458 214.981 79.744 216.537 79.744C217.852 79.744 218.834 80.0706 219.476 80.7086L217.957 87.6356C217.247 87.1267 216.386 86.8685 215.374 86.8685C213.924 86.8685 212.7 87.6128 211.703 89.1091C210.706 90.6054 210.207 92.603 210.207 95.1171V108.918H203.114H203.122Z" fill="#FBBC05"/>
<path d="M230.927 109.579C228.397 109.579 226.342 108.925 224.771 107.619C223.2 106.313 222.052 104.55 221.327 102.325C220.601 100.1 220.239 97.6159 220.239 94.8664C220.239 91.9497 220.662 89.3597 221.508 87.1039C222.354 84.848 223.57 83.0783 225.156 81.8099C226.743 80.5339 228.654 79.9034 230.882 79.9034C233.11 79.9034 235.052 80.4275 236.502 81.4833C237.952 82.539 239.018 83.9518 239.69 85.7367C240.362 87.5216 240.702 89.5496 240.702 91.8206C240.702 93.3853 240.649 95.0259 240.551 96.7576H227.438C227.468 97.9425 227.589 99.1198 227.793 100.274C227.997 101.429 228.352 102.371 228.858 103.1C229.364 103.829 230.089 104.193 231.033 104.193C232.181 104.193 232.967 103.738 233.39 102.819C233.813 101.9 234.092 100.882 234.228 99.7654L240.506 101.087C240.03 103.738 238.942 105.811 237.242 107.323C235.535 108.834 233.435 109.586 230.935 109.586L230.927 109.579ZM227.43 92.2156H234.168V91.5016C234.168 90.5522 234.085 89.5952 233.911 88.6229C233.745 87.6583 233.428 86.838 232.974 86.1772C232.521 85.5164 231.872 85.1822 231.026 85.1822C230.18 85.1822 229.454 85.5316 228.948 86.2228C228.442 86.9216 228.08 87.8102 227.861 88.8964C227.641 89.9825 227.498 91.0839 227.43 92.208V92.2156Z" fill="#FBBC05"/>
</g>
<defs>
<clipPath id="clip0_117_784">
<rect width="245" height="129" fill="white"/>
</clipPath>
</defs>
</svg>
