<svg width="25" height="25" viewBox="0 0 25 25" fill="none" xmlns="http://www.w3.org/2000/svg">
<path d="M3 6.2C3 5.07989 3 4.51984 3.21799 4.09202C3.40973 3.71569 3.71569 3.40973 4.09202 3.21799C4.51984 3 5.0799 3 6.2 3H18.8C19.9201 3 20.4802 3 20.908 3.21799C21.2843 3.40973 21.5903 3.71569 21.782 4.09202C22 4.51984 22 5.0799 22 6.2V18.8C22 19.9201 22 20.4802 21.782 20.908C21.5903 21.2843 21.2843 21.5903 20.908 21.782C20.4802 22 19.9201 22 18.8 22H6.2C5.07989 22 4.51984 22 4.09202 21.782C3.71569 21.5903 3.40973 21.2843 3.21799 20.908C3 20.4802 3 19.9201 3 18.8V6.2Z" stroke="#051A35" stroke-linecap="round"/>
<path d="M13 15.5294C13 17.6878 10.8603 19.204 9.92687 19.7628C9.66233 19.9211 9.33767 19.9211 9.07313 19.7628C8.13974 19.204 6 17.6878 6 15.5294C6 13.4118 7.69587 12 9.5 12C11.3667 12 13 13.4118 13 15.5294Z" stroke="#051A35"/>
<path d="M19 22L13 7" stroke="#051A35"/>
<path d="M22 5L3 9" stroke="#051A35"/>
<path d="M9.5 16.5C10.0523 16.5 10.5 16.0523 10.5 15.5C10.5 14.9477 10.0523 14.5 9.5 14.5C8.94772 14.5 8.5 14.9477 8.5 15.5C8.5 16.0523 8.94772 16.5 9.5 16.5Z" fill="#051A35"/>
</svg>
