<svg width="30" height="30" viewBox="0 0 30 30" fill="none" xmlns="http://www.w3.org/2000/svg">
<path d="M15.0004 4.375C16.0498 4.37505 17.0532 4.58997 17.9679 4.97802C17.6327 5.26995 17.3367 5.60572 17.089 5.97656C16.433 5.74839 15.7298 5.62505 15.0004 5.625C11.7608 5.625 9.03865 8.06079 8.68077 11.2805L8.36705 14.1137L8.35851 14.1882C8.20861 15.4941 7.81742 16.7592 7.20738 17.9199L6.93272 18.4106L6.89488 18.4741L6.17222 19.679C5.83748 20.2369 5.61125 20.6154 5.47276 20.9094C5.33296 21.2064 5.3355 21.3132 5.34093 21.3476L5.36778 21.4562C5.40475 21.562 5.47008 21.657 5.557 21.7297L5.59117 21.7517C5.64317 21.7787 5.75607 21.8174 6.00133 21.842C6.32466 21.8745 6.76582 21.875 7.41612 21.875H22.5845C23.2349 21.875 23.676 21.8745 23.9994 21.842C24.325 21.8092 24.4167 21.7522 24.4437 21.7297L24.523 21.6491C24.5944 21.5632 24.6422 21.4592 24.6598 21.3476L24.661 21.3061C24.6574 21.2477 24.6327 21.132 24.5279 20.9094C24.4588 20.7625 24.3675 20.5939 24.252 20.3931L23.8285 19.679L23.1058 18.4741L23.068 18.4106C22.3958 17.2811 21.9398 16.0377 21.7215 14.7449L21.6422 14.1882L21.6337 14.1137L21.5909 13.7366C22.0187 13.7077 22.431 13.6246 22.8227 13.4949L22.8763 13.9759L22.8849 14.0454L22.9544 14.5374C23.147 15.6779 23.5492 16.7746 24.1422 17.771L24.1777 17.8307L24.9003 19.0356L25.336 19.7692C25.4639 19.9919 25.5725 20.1939 25.6583 20.376C25.8072 20.692 25.926 21.0309 25.9098 21.388L25.8952 21.5417C25.8334 21.9332 25.649 22.2944 25.3714 22.5732L25.2457 22.688C24.9244 22.9567 24.522 23.046 24.1252 23.086C23.7243 23.1262 23.208 23.125 22.5845 23.125H7.41612C6.79276 23.125 6.27641 23.1262 5.8756 23.086C5.52807 23.051 5.17606 22.9785 4.87828 22.7807L4.755 22.688C4.45082 22.4334 4.23591 22.0896 4.13976 21.7077L4.10557 21.5417C4.04043 21.1279 4.17236 20.737 4.3424 20.376C4.51406 20.0116 4.77978 19.5701 5.10045 19.0356L5.82311 17.8307L5.85851 17.771L6.10142 17.3376C6.6395 16.3137 6.98362 15.1974 7.11583 14.0454L7.12437 13.9759L7.43932 11.1426C7.86753 7.28981 11.1238 4.375 15.0004 4.375ZM20.2348 6.46485C21.4415 7.6095 22.2758 9.14934 22.5272 10.896C22.1705 11.1088 21.7578 11.235 21.315 11.2463C21.1295 9.65499 20.3668 8.25707 19.2497 7.25341C19.5044 6.9135 19.8422 6.63952 20.2348 6.46485Z" fill="#051A35"/>
<path d="M11.3778 23.0073C11.5915 23.9376 12.0623 24.7596 12.7172 25.3458C13.372 25.9322 14.1745 26.25 15 26.25C15.8255 26.25 16.628 25.9322 17.2829 25.3458C17.9378 24.7596 18.4087 23.9376 18.6223 23.0073" stroke="#051A35" stroke-linecap="round"/>
<path d="M23.75 8.75C23.75 10.1307 22.6307 11.25 21.25 11.25C19.8693 11.25 18.75 10.1307 18.75 8.75C18.75 7.36929 19.8693 6.25 21.25 6.25C22.6307 6.25 23.75 7.36929 23.75 8.75Z" fill="#F2B705"/>
</svg>
