<svg width="30" height="30" viewBox="0 0 30 30" fill="none" xmlns="http://www.w3.org/2000/svg">
<path d="M8.05976 11.2118C8.4527 7.6754 11.4418 5 15 5C18.5581 5 21.5472 7.6754 21.9402 11.2118L22.255 14.0445C22.259 14.0806 22.261 14.0987 22.263 14.1166C22.4242 15.5211 22.8813 16.8756 23.6045 18.0906C23.6136 18.1061 23.623 18.1216 23.6416 18.1527L24.3642 19.357C25.0198 20.4499 25.3477 20.9962 25.277 21.4449C25.2298 21.7432 25.0762 22.0146 24.8446 22.2085C24.4963 22.5 23.8591 22.5 22.5847 22.5H7.41525C6.14081 22.5 5.5036 22.5 5.15539 22.2085C4.92368 22.0146 4.77008 21.7432 4.72298 21.4449C4.6522 20.9962 4.98005 20.4499 5.63574 19.357L6.35828 18.1527C6.37698 18.1216 6.38633 18.1061 6.39551 18.0906C7.11856 16.8756 7.57576 15.5211 7.73695 14.1166C7.739 14.0987 7.741 14.0806 7.74501 14.0445L8.05976 11.2118Z" stroke="#051A35"/>
<path d="M11.3778 23.0074C11.5915 23.9376 12.0623 24.7596 12.7172 25.3459C13.372 25.9323 14.1745 26.25 15 26.25C15.8255 26.25 16.628 25.9323 17.2829 25.3459C17.9378 24.7596 18.4087 23.9376 18.6223 23.0074" stroke="#051A35" stroke-linecap="round"/>
</svg>
