<svg width="346" height="324" viewBox="0 0 346 324" fill="none" xmlns="http://www.w3.org/2000/svg">
<path d="M308.907 54.3392C306.957 47.6447 300.82 42.5617 293.997 41.1309C287.175 39.7001 279.87 41.6656 274.177 45.6491C271.677 47.4112 269.305 49.6252 266.308 50.1674C263.883 50.6192 261.398 49.9264 258.936 50.0318C252.527 50.3104 247.429 56.1013 245.803 62.3139C244.176 68.5264 245.238 75.1155 246.315 81.4109L257.686 83.0375C255.841 80.6202 257.392 76.855 260.02 75.3188C262.648 73.7826 265.871 73.8579 268.906 73.9784L286.662 74.6411C291.896 74.8444 297.438 74.9649 301.994 72.382C308.064 69.0234 310.858 61.0337 308.907 54.3392Z" fill="#EBEBEB"/>
<path d="M319.374 27.9152C317.808 25.6561 313.877 24.15 311.181 26.2962C310.228 27.2902 309.649 28.5843 309.543 29.9576C309.437 31.3309 309.811 32.6983 310.602 33.8266C311.453 34.8998 312.667 35.6262 314.015 35.8701C315.364 36.114 316.755 35.8587 317.929 35.1519C319.056 34.365 319.836 33.1727 320.106 31.8242C320.375 30.4756 320.113 29.0751 319.374 27.9152Z" fill="#EBEBEB"/>
<path d="M283.409 265.378C270.517 256.831 267.242 240.468 267.392 225.678C267.392 223.208 267.076 220.618 268.198 218.426C269.32 216.235 272.023 214.661 274.222 215.678C276.075 216.491 276.926 218.599 277.987 220.339C279.411 222.658 281.464 224.525 283.906 225.723C285.495 226.476 287.446 226.951 288.982 226.062C291.075 224.835 291.241 221.89 291.181 219.435C291.045 214.867 290.907 210.296 290.766 205.722C290.691 203.275 290.623 200.767 291.331 198.426C292.039 196.084 293.666 193.907 295.985 193.154C298.304 192.401 301.219 193.719 301.768 196.114C301.888 197.126 301.936 198.145 301.911 199.163C302.009 200.18 302.506 201.295 303.485 201.551C304.464 201.807 305.436 201.099 306.151 200.361C308.621 197.823 310.263 194.593 311.791 191.385C313.32 188.177 314.803 184.886 317.063 182.13C319.322 179.374 322.417 177.152 325.926 176.858C329.435 176.565 333.23 178.651 334.209 182.077C335.188 185.503 333.245 189.073 331.122 191.919C327.972 196.158 324.226 199.92 319.999 203.087C319.173 203.57 318.522 204.303 318.139 205.18C317.65 206.829 319.239 208.418 320.865 208.945C322.71 209.51 324.691 209.269 326.604 209.45C328.516 209.631 330.617 210.421 331.385 212.214C332.447 214.699 330.414 217.372 328.373 219.142C324.334 222.675 319.719 225.49 314.728 227.463C312.943 228.171 311.053 228.796 309.63 230.098C308.207 231.401 307.371 233.623 308.305 235.332C309.239 237.041 311.498 237.538 313.38 237.139C315.263 236.74 316.927 235.678 318.712 234.955C322.048 233.6 326.408 233.728 328.637 236.589C330.105 238.465 330.293 241.108 329.631 243.435C328.864 245.701 327.65 247.79 326.061 249.579C320.874 256.125 314.042 261.176 306.264 264.218C298.508 267.125 291.286 268.029 283.447 265.378" fill="#EBEBEB"/>
<path d="M286.994 256.025C289.253 247.919 291.976 239.948 295.149 232.154L297.604 226.002C298.417 223.991 299.223 221.988 300.127 220.083C301.878 216.424 303.829 212.865 305.97 209.42C307.996 206.122 310.037 203.064 311.995 200.218C313.953 197.371 315.76 194.766 317.575 192.454C320.366 188.792 323.443 185.358 326.777 182.183C327.959 181.061 328.908 180.217 329.556 179.66L330.309 179.027C330.391 178.952 330.479 178.884 330.572 178.824C330.502 178.909 330.424 178.988 330.339 179.057L329.631 179.728C328.998 180.307 328.072 181.173 326.912 182.311C323.613 185.522 320.562 188.978 317.786 192.65C316.016 194.969 314.186 197.59 312.266 200.436C310.346 203.283 308.327 206.348 306.317 209.646C304.192 213.08 302.257 216.627 300.518 220.271C299.622 222.169 298.824 224.157 298.011 226.175L295.556 232.32C292.392 240.099 289.664 248.048 287.385 256.131" fill="#E0E0E0"/>
<path d="M300.255 220.06C300.13 219.724 300.042 219.376 299.991 219.021C299.848 218.343 299.667 217.365 299.464 216.145C299.065 213.712 298.613 210.369 298.161 206.604C297.71 202.838 297.19 199.51 296.746 197.085C296.535 195.88 296.347 194.901 296.211 194.224C296.117 193.877 296.062 193.521 296.045 193.162C296.196 193.489 296.307 193.833 296.377 194.186C296.572 194.849 296.806 195.82 297.062 197.025C297.582 199.442 298.131 202.808 298.606 206.543C299.08 210.278 299.487 213.554 299.803 216.099C299.954 217.244 300.082 218.215 300.187 218.991C300.25 219.344 300.273 219.703 300.255 220.06Z" fill="#E0E0E0"/>
<path d="M331.649 213.381C331.237 213.482 330.815 213.543 330.391 213.562C329.586 213.652 328.418 213.78 326.98 213.984C324.096 214.368 320.135 215.03 315.798 215.957C311.46 216.883 307.574 217.907 304.781 218.72C303.38 219.119 302.258 219.473 301.482 219.707C301.085 219.856 300.674 219.967 300.255 220.038C300.628 219.838 301.019 219.671 301.422 219.541C302.175 219.247 303.297 218.848 304.69 218.411C307.469 217.515 311.355 216.446 315.707 215.512C319.418 214.702 323.168 214.084 326.942 213.66C328.388 213.502 329.563 213.426 330.384 213.389C330.804 213.345 331.228 213.343 331.649 213.381Z" fill="#E0E0E0"/>
<path d="M287.37 255.431C287.277 255.317 287.201 255.19 287.144 255.054L286.58 253.924C286.09 252.946 285.42 251.507 284.614 249.715C283.01 246.146 280.939 241.13 278.733 235.573C276.527 230.016 274.508 224.993 272.98 221.393L271.15 217.146L270.66 215.986C270.595 215.853 270.547 215.711 270.517 215.565C270.609 215.682 270.685 215.811 270.743 215.949L271.308 217.071C271.797 218.057 272.468 219.496 273.273 221.28C274.877 224.857 276.948 229.865 279.155 235.43C281.361 240.995 283.379 246.01 284.908 249.61L286.738 253.872L287.227 255.039C287.29 255.163 287.338 255.295 287.37 255.431Z" fill="#E0E0E0"/>
<path d="M328.946 240.912C328.818 240.996 328.678 241.059 328.531 241.1L327.327 241.537L322.876 243.096C319.111 244.413 313.945 246.304 308.237 248.367C302.529 250.43 297.325 252.29 293.538 253.533C291.648 254.158 290.111 254.647 289.019 254.964L287.784 255.317C287.644 255.368 287.497 255.399 287.348 255.408C287.477 255.329 287.616 255.268 287.762 255.227L288.967 254.79L293.417 253.232C297.182 251.914 302.348 250.024 308.056 247.96C313.764 245.897 318.96 244.029 322.748 242.787C324.646 242.169 326.182 241.68 327.266 241.364L328.501 241.01C328.645 240.958 328.794 240.925 328.946 240.912Z" fill="#E0E0E0"/>
<path d="M9.11522 184.765C9.11522 184.765 3.58039 187.446 10.9602 199.073C18.3399 210.7 23.2121 216.393 23.2121 216.393C23.2121 216.393 24.5826 219.127 22.2407 219.789C19.8987 220.452 14.5597 220.106 13.769 223.125C12.9783 226.145 15.4106 228.909 20.1096 231.002C24.8085 233.095 34.9294 238.05 35.8405 238.532C36.7517 239.014 37.7156 240.219 36.1869 240.927C34.6583 241.635 22.9485 243.977 24.3944 249.467C25.8402 254.956 39.8693 258.563 41.3754 259.008C42.8814 259.452 43.3408 260.069 43.2956 260.822C43.2504 261.575 39.2443 262.057 35.9384 262.856C32.6326 263.654 28.9427 265.167 30.0421 268.27C31.1416 271.372 39.8316 277.306 59.5236 277.374L68.6579 276.817L72.8975 268.654C80.9023 250.641 79.0649 240.31 76.6627 238.043C74.2605 235.776 71.3915 238.517 69.3131 241.198C67.2347 243.879 65.2015 247.366 64.4334 247.072C63.6653 246.778 63.2963 246.161 63.5297 244.587C63.7632 243.013 66.1729 228.705 61.7601 225.136C57.3473 221.566 50.4118 231.318 49.1618 232.418C47.9117 233.517 47.1587 232.124 47.1286 231.123C47.0985 230.121 46.7219 218.84 46.7445 213.697C46.7671 208.554 45.3589 205.218 42.1585 204.661C39.0786 204.141 37.2111 209.179 35.6447 211.016C34.0784 212.854 32.1431 210.512 32.1431 210.512C32.1431 210.512 28.9954 203.735 21.4123 192.243C13.8292 180.752 8.99473 184.826 8.99473 184.826" fill="#EBEBEB"/>
<path d="M69.3281 278.948C63.7933 270.476 54.177 255.257 45.8936 242.237C37.6102 229.217 30.0798 217.447 24.5826 208.946C21.834 204.713 19.6126 201.28 18.0688 198.892C17.3158 197.718 16.7058 196.799 16.2992 196.159L15.8399 195.444C15.742 195.285 15.6968 195.195 15.6968 195.195L15.87 195.429L16.3444 196.129L18.1592 198.832C19.7331 201.189 21.9846 204.608 24.7558 208.84C30.2907 217.304 37.8361 229.067 46.1346 242.087C54.4331 255.107 63.9966 270.341 69.4788 278.835" fill="#E0E0E0"/>
<path d="M21.209 223.923C21.4312 223.934 21.6512 223.972 21.8642 224.036C22.2783 224.127 22.8732 224.277 23.6112 224.473C25.1173 224.865 27.0978 225.452 29.3117 226.137L34.9745 227.93L36.6915 228.457C36.9058 228.511 37.115 228.584 37.3165 228.675C37.0939 228.668 36.8734 228.63 36.6614 228.562C36.2472 228.472 35.6523 228.321 34.9218 228.118C33.4158 227.719 31.4428 227.101 29.2289 226.416L23.5585 224.676L21.834 224.149C21.6186 224.095 21.4092 224.02 21.209 223.923Z" fill="#E0E0E0"/>
<path d="M37.8888 228.005C37.8135 228.005 38.8376 223.773 40.1479 218.599C41.4582 213.426 42.6556 209.247 42.7309 209.262C42.8062 209.277 41.7745 213.494 40.4266 218.675C39.0786 223.856 37.9641 228.027 37.8888 228.005Z" fill="#E0E0E0"/>
<path d="M49.7266 248.578C49.8096 248.366 49.9157 248.164 50.0428 247.976C50.2989 247.554 50.6152 247.027 50.9841 246.402C51.7824 245.069 52.8667 243.224 53.9963 241.13C55.1258 239.037 56.0822 237.132 56.7675 235.739C57.0913 235.084 57.3624 234.534 57.5732 234.09C57.6599 233.881 57.7712 233.684 57.9046 233.502C57.8485 233.719 57.7729 233.931 57.6786 234.135C57.513 234.541 57.272 235.121 56.9256 235.829C56.2931 237.245 55.3593 239.18 54.2297 241.266C53.1002 243.352 51.9706 245.182 51.1423 246.492C50.7206 247.147 50.3892 247.667 50.1257 247.998C50.0149 248.206 49.881 248.4 49.7266 248.578Z" fill="#E0E0E0"/>
<path d="M33.845 248.171C34.0504 248.128 34.2606 248.113 34.47 248.126H36.1719C37.6027 248.126 39.5832 248.126 41.7745 248.126C43.9658 248.126 45.9388 248.194 47.3696 248.239L49.0714 248.307C49.2794 248.301 49.4872 248.324 49.6889 248.375C49.4849 248.409 49.2782 248.424 49.0714 248.42H47.3696C45.9388 248.42 43.9583 248.42 41.767 248.42C39.5756 248.42 37.6027 248.352 36.1644 248.307L34.47 248.239C34.26 248.236 34.0507 248.214 33.845 248.171Z" fill="#E0E0E0"/>
<path d="M41.9703 267.652C42.2345 267.613 42.5014 267.595 42.7685 267.599L44.9448 267.562C46.7822 267.562 49.3199 267.562 52.1288 267.562C54.9376 267.562 57.4678 267.562 59.3052 267.622L61.4815 267.675C61.7489 267.669 62.0162 267.689 62.2797 267.735C62.0156 267.775 61.7486 267.792 61.4815 267.788H59.3052C57.4678 267.788 54.9301 267.788 52.1288 267.788C49.3275 267.788 46.7822 267.788 44.9448 267.727L42.7685 267.675C42.5024 267.697 42.2347 267.689 41.9703 267.652Z" fill="#E0E0E0"/>
<path d="M61.7978 267.6C61.9056 267.339 62.0341 267.087 62.1818 266.847C62.468 266.32 62.8445 265.627 63.3038 264.798C64.2451 263.074 65.5629 260.687 66.8958 258.021C68.2287 255.355 69.426 252.893 70.2619 251.116L71.2484 249C71.3578 248.738 71.4888 248.486 71.64 248.247C71.562 248.522 71.4638 248.791 71.3463 249.052C71.143 249.564 70.8342 250.302 70.4426 251.206C69.6896 253.006 68.5149 255.483 67.1519 258.164C65.7889 260.845 64.4635 263.217 63.477 264.941C62.98 265.785 62.5659 266.448 62.2722 266.937C62.1353 267.172 61.9765 267.394 61.7978 267.6Z" fill="#E0E0E0"/>
<path d="M104.525 141.767C101.382 140.48 98.7002 138.276 96.8291 135.441C95.84 133.969 95.3953 132.198 95.5715 130.434C95.8502 128.694 97.2508 127.06 99.0129 126.985C99.6178 126.991 100.214 127.13 100.76 127.39C101.306 127.65 101.789 128.025 102.176 128.491C102.947 129.414 103.582 130.443 104.058 131.548C104.148 130.663 104.46 129.815 104.965 129.083C105.471 128.35 106.154 127.758 106.95 127.361C107.764 127.012 108.672 126.952 109.525 127.192C110.377 127.432 111.122 127.957 111.634 128.679C112.643 130.185 112.327 132.444 111.461 133.8C110.492 135.17 109.379 136.432 108.14 137.565C106.634 139.071 104.525 140.313 104.525 141.804" fill="#EBEBEB"/>
<path d="M319.374 121.224C317.199 120.333 315.343 118.805 314.05 116.841C313.365 115.823 313.056 114.598 313.177 113.377C313.248 112.768 313.52 112.199 313.952 111.762C314.383 111.326 314.948 111.046 315.557 110.968C315.974 110.969 316.386 111.062 316.765 111.239C317.143 111.416 317.479 111.672 317.748 111.992C318.285 112.632 318.727 113.348 319.058 114.115C319.118 113.502 319.333 112.913 319.682 112.405C320.031 111.897 320.503 111.485 321.054 111.209C321.618 110.968 322.248 110.928 322.839 111.095C323.429 111.263 323.944 111.627 324.299 112.127C324.599 112.675 324.747 113.293 324.725 113.917C324.704 114.541 324.515 115.148 324.179 115.674C323.503 116.613 322.734 117.481 321.882 118.264C320.828 119.326 319.374 120.17 319.374 121.201" fill="#F5F5F5"/>
<path d="M186.237 102.037C184.277 101.231 182.606 99.8532 181.44 98.0833C180.833 97.1612 180.566 96.0558 180.687 94.9582C180.758 94.4136 181.007 93.9076 181.395 93.5194C181.783 93.1311 182.289 92.8824 182.834 92.812C183.21 92.8148 183.581 92.899 183.922 93.0589C184.262 93.2188 184.564 93.4506 184.807 93.7382C185.288 94.313 185.684 94.9548 185.981 95.6434C186.037 95.0915 186.231 94.5625 186.545 94.1057C186.86 93.6488 187.285 93.2789 187.781 93.0304C188.289 92.8137 188.857 92.7777 189.388 92.9284C189.92 93.0792 190.384 93.4075 190.703 93.8587C190.976 94.3507 191.11 94.9075 191.091 95.4697C191.073 96.032 190.902 96.5787 190.597 97.0516C189.993 97.902 189.299 98.6846 188.527 99.386C187.578 100.342 186.267 101.103 186.267 102.037" fill="#EBEBEB"/>
<path d="M22.2407 118.965C18.732 117.524 15.7382 115.06 13.6485 111.894C12.5375 110.249 12.0367 108.267 12.2328 106.291C12.5416 104.356 14.1154 102.526 16.0808 102.436C16.7557 102.443 17.4211 102.595 18.0318 102.882C18.6426 103.169 19.1843 103.585 19.6201 104.1C20.4827 105.133 21.1928 106.284 21.7286 107.519C21.8247 106.529 22.1709 105.58 22.7347 104.76C23.2985 103.941 24.0614 103.278 24.9516 102.835C25.8691 102.439 26.8952 102.373 27.856 102.647C28.8167 102.922 29.6529 103.52 30.2229 104.341C31.3524 106.043 30.9759 108.528 30.0271 110.064C28.9399 111.579 27.6955 112.975 26.3146 114.228C24.6128 115.93 22.2708 117.293 22.2708 118.965" fill="#F5F5F5"/>
<path d="M250.185 151.376C247.19 150.147 244.633 148.049 242.843 145.351C241.894 143.947 241.466 142.256 241.631 140.57C241.902 138.913 243.242 137.354 244.922 137.279C245.496 137.286 246.061 137.416 246.581 137.66C247.101 137.905 247.562 138.257 247.934 138.695C248.671 139.577 249.277 140.561 249.733 141.616C249.817 140.771 250.114 139.961 250.596 139.262C251.078 138.562 251.73 137.997 252.49 137.618C253.263 137.279 254.128 137.215 254.943 137.435C255.758 137.656 256.473 138.148 256.97 138.83C257.386 139.585 257.589 140.439 257.56 141.3C257.531 142.162 257.27 142.999 256.804 143.725C255.877 145.026 254.814 146.225 253.634 147.302C252.181 148.763 250.185 149.922 250.185 151.353" fill="#EBEBEB"/>
<path d="M27.8734 57.7129L28.6264 59.091C29.4714 60.644 30.7442 61.922 32.2937 62.7733L33.6718 63.5263L32.2937 64.2794C30.7429 65.1222 29.4692 66.3959 28.6264 67.9467L27.8734 69.3247L27.1204 67.9467C26.2731 66.3992 25.0006 65.1266 23.4531 64.2794L22.075 63.5263L23.4531 62.7733C24.9973 61.9217 26.2688 60.6502 27.1204 59.106L27.8734 57.7129Z" fill="#EBEBEB"/>
<path d="M257.987 9.66895L258.74 11.047C259.582 12.5957 260.853 13.869 262.4 14.7143L263.778 15.4673L262.4 16.2204C260.856 17.0701 259.586 18.3422 258.74 19.8877L257.987 21.2657L257.234 19.8877C256.387 18.3422 255.118 17.0701 253.574 16.2204L252.196 15.4673L253.574 14.7143C255.121 13.869 256.392 12.5957 257.234 11.047L257.987 9.66895Z" fill="#EBEBEB"/>
<path d="M64.4108 66.4028L65.5027 68.3984C66.7237 70.6203 68.5521 72.4487 70.774 73.6696L72.7696 74.7615L70.774 75.8535C68.5521 77.0744 66.7237 78.9028 65.5027 81.1247L64.4108 83.1203L63.3265 81.1247C62.0967 78.8966 60.2544 77.0673 58.0175 75.8535L56.0295 74.8218L58.0175 73.7299C60.2544 72.516 62.0967 70.6868 63.3265 68.4586L64.4108 66.4028Z" fill="#EBEBEB"/>
<path d="M58.6952 20.603L59.1019 21.3561C59.5646 22.2039 60.2629 22.8997 61.1125 23.3591L61.8655 23.7733L61.1125 24.1875C60.266 24.6511 59.5686 25.3458 59.1019 26.1906L58.6952 26.9436L58.2811 26.1906C57.8143 25.3458 57.117 24.6511 56.2705 24.1875L55.5174 23.7733L56.2705 23.3591C57.1284 22.9032 57.8349 22.2071 58.3037 21.3561L58.6952 20.603Z" fill="#F5F5F5"/>
<path d="M277.242 0L277.656 0.753038C278.118 1.6011 278.813 2.29892 279.659 2.76365L280.412 3.17029L279.659 3.58446C278.813 4.0492 278.118 4.74701 277.656 5.59507L277.242 6.34811L276.828 5.59507C276.364 4.74597 275.666 4.04805 274.817 3.58446L274.064 3.17029L274.817 2.76365C275.663 2.29892 276.359 1.6011 276.82 0.753038L277.242 0Z" fill="#F5F5F5"/>
<path d="M337.907 279.958C337.907 280.063 262.452 280.153 169.399 280.153C76.3464 280.153 0.876984 280.063 0.876984 279.958C0.876984 279.852 76.3088 279.762 169.399 279.762C262.49 279.762 337.907 279.845 337.907 279.958Z" fill="#263238"/>
<path d="M238.626 102.887V80.0779H267.392V128.189L238.626 102.887Z" fill="#F2B705"/>
<path d="M269.463 78.73H235.765V88.6475H269.463V78.73Z" fill="#F2B705"/>
<path d="M269.403 88.6474C269.403 88.7604 261.872 88.8432 252.61 88.8432C243.348 88.8432 235.825 88.7604 235.825 88.6474C235.825 88.5345 243.355 88.4517 252.61 88.4517C261.865 88.4517 269.403 88.542 269.403 88.6474Z" fill="#263238"/>
<path d="M32.5422 152.234L163.104 40.3704L313.132 152.663L300.556 163.447L163.526 63.579L45.743 163.311L32.5422 152.234Z" fill="#F2B705"/>
<g opacity="0.3">
<path d="M163.526 63.5788L163.104 40.3701L313.132 152.663L300.556 163.447L163.526 63.5788Z" fill="black"/>
</g>
<path d="M163.526 63.5788C163.469 63.2784 163.444 62.9731 163.45 62.6676C163.45 61.9974 163.398 61.1615 163.368 60.1825C163.3 57.9987 163.217 55.1372 163.119 51.982C163.021 48.8267 162.976 45.8748 162.983 43.7738C162.983 42.7271 162.983 41.8762 163.029 41.2888C163.018 40.9807 163.043 40.6724 163.104 40.3701C163.16 40.673 163.185 40.9808 163.179 41.2888C163.179 41.9515 163.232 42.7949 163.262 43.7738C163.33 45.9577 163.413 48.8117 163.511 51.9744C163.608 55.1372 163.654 58.074 163.646 60.175C163.646 61.2293 163.646 62.0802 163.601 62.6676C163.612 62.9732 163.587 63.2791 163.526 63.5788Z" fill="#263238"/>
<path d="M129.812 117.044C128.571 114.585 127.611 111.993 126.951 109.318C126.288 106.619 126.553 103.776 127.704 101.246C128.457 99.8074 129.526 98.5724 130.113 97.0664C130.919 95.003 130.723 92.5481 132.101 90.786C134.24 88.06 138.547 88.8959 141.74 87.5555C144.233 86.5163 146.04 84.1216 148.638 83.3987C150.897 82.7737 153.322 83.5644 155.415 84.581C157.509 85.5976 159.61 86.8401 161.929 87.2693C163.601 87.4353 165.28 87.5107 166.96 87.4952C168.631 87.6007 170.401 88.045 171.53 89.2875C172.66 90.53 172.818 92.7364 171.53 93.7681C174.49 93.3991 177.133 96.4413 176.967 99.4158C176.802 102.39 174.46 104.921 171.696 106.043C168.932 107.165 165.845 107.119 162.886 106.796C154.512 105.794 146.198 102.277 140.731 95.8238" fill="#263238"/>
<path d="M132.056 106.607L124.601 147.979C123.336 155.013 125.49 166.052 133.397 166.971C141.846 167.905 147.772 165.465 148.954 158.883C149.512 155.766 150.25 146.684 150.332 146.368C150.332 146.368 161.041 147.271 163.676 136.985C164.956 132.015 166.749 121.563 168.255 112.082C169.035 107.174 167.939 102.151 165.184 98.0141C162.43 93.877 158.219 90.9283 153.39 89.7544L152.396 89.5135C141.529 87.533 133.743 95.6658 132.056 106.607Z" fill="#FFBE9D"/>
<path d="M150.332 146.36C145.569 145.185 141.242 142.672 137.862 139.116C137.862 139.116 139.496 147.919 150.016 149.493L150.332 146.36Z" fill="#EB996E"/>
<path d="M162.012 119.334C161.924 119.72 161.687 120.056 161.353 120.269C161.019 120.481 160.615 120.554 160.227 120.471C160.037 120.44 159.854 120.371 159.69 120.269C159.526 120.167 159.385 120.033 159.273 119.875C159.162 119.717 159.083 119.539 159.041 119.35C158.999 119.162 158.996 118.967 159.03 118.777C159.117 118.389 159.353 118.051 159.687 117.837C160.021 117.623 160.426 117.549 160.815 117.632C161.006 117.664 161.188 117.733 161.352 117.836C161.516 117.939 161.658 118.074 161.769 118.232C161.881 118.391 161.96 118.57 162.001 118.759C162.043 118.948 162.047 119.143 162.012 119.334Z" fill="#263238"/>
<path d="M164.806 116.608C164.58 116.758 163.661 115.659 162.08 115.275C160.498 114.891 159.135 115.403 159.015 115.169C158.947 115.064 159.218 114.763 159.813 114.514C160.617 114.21 161.494 114.158 162.328 114.364C163.153 114.564 163.894 115.02 164.444 115.666C164.874 116.156 164.919 116.547 164.806 116.608Z" fill="#263238"/>
<path d="M147.109 116.103C147.023 116.489 146.788 116.826 146.455 117.04C146.123 117.254 145.719 117.329 145.332 117.248C145.141 117.217 144.958 117.148 144.793 117.045C144.629 116.943 144.486 116.808 144.375 116.649C144.263 116.491 144.185 116.311 144.143 116.122C144.102 115.932 144.099 115.737 144.135 115.546C144.223 115.16 144.46 114.824 144.794 114.611C145.128 114.398 145.532 114.326 145.92 114.409C146.111 114.439 146.294 114.507 146.458 114.609C146.622 114.711 146.763 114.845 146.874 115.003C146.985 115.161 147.064 115.34 147.104 115.529C147.144 115.718 147.146 115.913 147.109 116.103Z" fill="#263238"/>
<path d="M149.15 113.114C148.924 113.257 148.006 112.165 146.417 111.781C144.828 111.397 143.48 111.909 143.352 111.675C143.292 111.562 143.555 111.261 144.158 111.02C144.957 110.709 145.834 110.656 146.665 110.87C147.491 111.063 148.233 111.517 148.781 112.165C149.18 112.662 149.263 113.046 149.15 113.114Z" fill="#263238"/>
<path d="M152.072 126.269C152.971 126.212 153.875 126.268 154.76 126.435C155.174 126.488 155.581 126.503 155.717 126.247C155.846 125.832 155.846 125.388 155.717 124.974L155.265 121.6C154.67 116.811 154.346 112.903 154.512 112.88C154.677 112.858 155.34 116.728 155.935 121.525C156.078 122.707 156.206 123.829 156.327 124.906C156.465 125.457 156.404 126.038 156.153 126.548C156.059 126.676 155.936 126.781 155.796 126.855C155.655 126.929 155.499 126.971 155.34 126.977C155.102 126.982 154.864 126.957 154.632 126.902C153.756 126.799 152.896 126.586 152.072 126.269Z" fill="#263238"/>
<path d="M147.109 126.232C147.373 126.277 146.959 128.001 148.134 129.583C149.308 131.164 151.146 131.42 151.146 131.661C151.146 131.774 150.656 131.894 149.881 131.729C148.867 131.499 147.968 130.917 147.343 130.087C146.74 129.294 146.47 128.297 146.59 127.308C146.703 126.57 146.996 126.194 147.109 126.232Z" fill="#263238"/>
<path d="M151.07 106.999C150.814 107.39 149.278 106.803 147.365 106.57C145.453 106.336 143.819 106.487 143.668 106.035C143.6 105.824 143.962 105.485 144.67 105.214C145.605 104.903 146.599 104.808 147.577 104.939C148.554 105.069 149.489 105.421 150.31 105.967C150.927 106.389 151.191 106.811 151.07 106.999Z" fill="#263238"/>
<path d="M165.34 111.879C164.979 112.172 163.978 111.532 162.667 111.193C161.357 110.855 160.182 110.847 160.017 110.403C159.949 110.199 160.212 109.876 160.77 109.65C161.521 109.401 162.329 109.38 163.091 109.591C163.854 109.801 164.537 110.233 165.054 110.832C165.446 111.321 165.506 111.721 165.34 111.879Z" fill="#263238"/>
<path d="M131.04 114.454C130.881 114.334 124.466 110.629 122.975 117.737C121.484 124.846 128.924 124.876 128.999 124.673C129.074 124.47 131.04 114.454 131.04 114.454Z" fill="#FFBE9D"/>
<path d="M127.372 121.51C127.372 121.51 127.229 121.57 127.003 121.623C126.681 121.689 126.346 121.627 126.07 121.45C125.377 121.013 124.993 119.688 125.234 118.4C125.339 117.788 125.584 117.208 125.949 116.706C126.065 116.5 126.228 116.325 126.424 116.195C126.62 116.064 126.845 115.981 127.079 115.953C127.23 115.945 127.379 115.99 127.5 116.081C127.621 116.172 127.706 116.302 127.741 116.45C127.794 116.668 127.741 116.796 127.741 116.819C127.741 116.841 127.915 116.728 127.922 116.427C127.917 116.243 127.851 116.065 127.734 115.922C127.653 115.828 127.554 115.751 127.442 115.696C127.331 115.64 127.21 115.607 127.086 115.599C126.786 115.598 126.49 115.674 126.226 115.819C125.963 115.963 125.741 116.173 125.58 116.427C125.149 116.979 124.857 117.628 124.729 118.317C124.481 119.763 124.932 121.254 125.896 121.766C126.074 121.863 126.272 121.918 126.474 121.927C126.676 121.936 126.878 121.899 127.064 121.819C127.327 121.698 127.395 121.548 127.372 121.51Z" fill="#EB996E"/>
<path d="M170.717 102.503C169.384 105.101 163.021 105.862 158.45 104.273C154.233 102.767 152.802 100.033 150.167 97.5556C148.51 95.9893 148.51 95.9893 145.724 95.5827C143.465 95.2589 141.552 97.4351 139.775 98.8659C140.49 104.597 137.727 110.124 135.046 115.237C134.812 115.836 134.382 116.338 133.826 116.66C132.839 117.105 131.71 116.299 131.168 115.357C130.302 113.851 130.272 112.022 130.415 110.29C130.591 106.331 131.553 102.448 133.246 98.8659C134.957 95.2749 137.689 92.268 141.1 90.221C145.459 87.7968 150.59 87.1622 155.408 88.4514C160.207 89.7742 164.465 92.5783 167.577 96.4637C169.103 98.1798 170.175 100.251 170.695 102.488" fill="#263238"/>
<path d="M155.438 119.206C155.498 119.206 155.506 118.588 155.83 117.556C156.308 116.101 157.253 114.844 158.518 113.98C159.445 113.354 160.513 112.967 161.626 112.854C162.739 112.741 163.862 112.905 164.896 113.332C166.124 113.829 167.174 114.685 167.908 115.787C168.696 116.96 169.09 118.355 169.031 119.767C168.973 121.179 168.466 122.536 167.585 123.641C166.767 124.673 165.661 125.438 164.407 125.84C163.341 126.179 162.207 126.25 161.108 126.045C160.008 125.84 158.976 125.366 158.104 124.665C156.916 123.707 156.08 122.383 155.724 120.9C155.483 119.838 155.528 119.221 155.468 119.221C155.408 119.221 155.431 119.371 155.415 119.665C155.393 120.094 155.424 120.524 155.506 120.945C155.791 122.527 156.619 123.96 157.848 124.996C158.761 125.772 159.856 126.304 161.03 126.544C162.205 126.783 163.42 126.723 164.565 126.367C165.929 125.949 167.134 125.127 168.021 124.01C168.989 122.816 169.546 121.342 169.61 119.806C169.674 118.271 169.241 116.756 168.375 115.486C167.842 114.696 167.157 114.02 166.359 113.499C165.561 112.979 164.667 112.623 163.729 112.453C162.792 112.283 161.829 112.303 160.9 112.511C159.97 112.718 159.091 113.11 158.315 113.663C157.008 114.596 156.066 115.953 155.649 117.504C155.531 117.918 155.466 118.346 155.453 118.776C155.415 119.055 155.415 119.206 155.438 119.206Z" fill="#263238"/>
<path d="M138.585 115.539C138.645 115.539 138.645 114.921 138.977 113.882C139.453 112.427 140.398 111.172 141.665 110.313C142.591 109.688 143.658 109.302 144.769 109.189C145.881 109.076 147.003 109.239 148.036 109.665C149.293 110.192 150.361 111.09 151.095 112.239C151.83 113.388 152.197 114.733 152.147 116.096C152.085 117.51 151.576 118.867 150.694 119.974C149.878 121.008 148.771 121.774 147.516 122.173C146.452 122.516 145.319 122.588 144.22 122.383C143.12 122.178 142.09 121.702 141.221 120.998C140.036 120.038 139.199 118.715 138.841 117.233C138.593 116.179 138.645 115.561 138.585 115.561C138.525 115.561 138.547 115.712 138.525 116.005C138.507 116.432 138.537 116.859 138.615 117.278C138.898 118.863 139.726 120.299 140.957 121.337C141.686 121.951 142.53 122.413 143.44 122.696C144.35 122.979 145.307 123.077 146.255 122.985C147.204 122.894 148.124 122.613 148.963 122.161C149.801 121.708 150.541 121.093 151.138 120.351C152.106 119.157 152.663 117.682 152.727 116.147C152.791 114.611 152.358 113.096 151.492 111.826C150.96 111.036 150.275 110.36 149.477 109.838C148.679 109.316 147.785 108.96 146.848 108.789C145.91 108.619 144.948 108.638 144.018 108.845C143.087 109.052 142.208 109.444 141.432 109.996C140.12 110.929 139.175 112.29 138.758 113.844C138.645 114.257 138.579 114.682 138.562 115.109C138.555 115.38 138.562 115.539 138.585 115.539Z" fill="#263238"/>
<path d="M152.561 116.359C152.629 116.502 153.555 116.118 154.602 116.487C155.649 116.856 156.108 117.722 156.281 117.647C156.455 117.572 156.327 117.346 156.101 116.977C155.793 116.486 155.326 116.115 154.778 115.926C154.23 115.737 153.634 115.741 153.089 115.938C152.712 116.088 152.524 116.292 152.561 116.359Z" fill="#263238"/>
<path d="M129.037 113.302C129.037 113.46 131.296 113.656 134.127 113.731C136.958 113.807 139.225 113.731 139.233 113.581C139.24 113.43 136.974 113.227 134.142 113.151C131.311 113.076 129.044 113.144 129.037 113.302Z" fill="#263238"/>
<path d="M51.6092 171.113L65.5328 186.927L82.672 171.113L96.5806 187.356C96.5806 187.356 80.8797 203.659 72.5436 207.236C64.712 210.595 60.992 207.582 58.3037 206.905C55.6153 206.227 41.3754 180.631 41.3754 180.631L51.6092 171.113Z" fill="#FFBE9D"/>
<path d="M60.3218 152.934C60.3218 152.934 59.5688 154.041 57.6109 157.543C55.653 161.044 55.8488 165.224 54.7795 168.522C53.4993 172.498 52.2568 173.244 52.2568 173.244L41.3754 180.631C41.3754 180.631 36.1041 177.385 34.327 174.426C32.5498 171.466 29.6807 161.293 29.6807 161.293L24.7182 152.384C24.6812 152.131 24.7097 151.871 24.801 151.631C25.0011 151.27 25.2908 150.966 25.6423 150.748C25.9938 150.531 26.3953 150.408 26.8082 150.39C27.2211 150.373 27.6315 150.462 28.0001 150.649C28.3686 150.836 28.6829 151.115 28.9126 151.458C28.9126 151.458 30.5994 149.952 33.4308 151.662C35.7803 153.055 35.5469 155.073 35.5469 155.073C36.9325 155.728 43.5893 166.173 45.2535 163.469C45.9847 162.171 46.9709 161.033 48.1527 160.126C53.424 157.339 52.4526 157.332 54.7117 154.365C56.9708 151.398 59.8248 150.705 60.3218 152.934Z" fill="#FFBE9D"/>
<path d="M32.0151 166.037C31.9746 165.892 31.9518 165.743 31.9474 165.593C31.9474 165.254 31.8796 164.84 31.8344 164.305C31.744 163.138 31.6311 161.542 31.488 159.584C31.4202 158.582 31.3525 157.49 31.2696 156.323C31.2696 155.736 31.1943 155.126 31.1567 154.501C31.0612 153.841 31.0919 153.169 31.247 152.52C31.3611 152.157 31.6016 151.847 31.9248 151.647C32.2566 151.452 32.6415 151.368 33.0242 151.406C33.4053 151.444 33.7728 151.568 34.0989 151.769C34.425 151.97 34.7012 152.242 34.9068 152.565C35.2821 153.217 35.5371 153.932 35.6598 154.674C35.818 155.427 35.9836 156.135 36.1418 156.88C37.0002 160.826 37.7985 164.524 38.4762 167.671L38.303 167.543C39.8466 167.45 41.3912 167.708 42.8212 168.296C43.9204 168.734 44.9385 169.352 45.8334 170.126C46.3957 170.623 46.9008 171.182 47.3394 171.79C47.4901 172.001 47.5879 172.182 47.6557 172.295C47.7235 172.408 47.7612 172.468 47.7536 172.476C47.1438 171.673 46.4523 170.936 45.6903 170.277C44.8005 169.546 43.7986 168.964 42.7233 168.552C41.3343 168.011 39.8431 167.782 38.3557 167.882H38.2051V167.739C37.5123 164.591 36.699 160.894 35.8255 156.956C35.6598 156.203 35.5017 155.45 35.336 154.749C35.207 154.049 34.9518 153.378 34.583 152.769C34.4123 152.492 34.1801 152.259 33.9046 152.086C33.629 151.914 33.3175 151.807 32.9941 151.775C32.6947 151.728 32.3884 151.789 32.1302 151.948C31.8721 152.107 31.6791 152.352 31.5859 152.641C31.4458 153.245 31.4152 153.87 31.4955 154.486C31.4955 155.111 31.5633 155.713 31.5934 156.3C31.6537 157.475 31.7139 158.56 31.7666 159.569C31.857 161.527 31.9323 163.131 31.985 164.298C31.985 164.825 31.985 165.247 31.985 165.585C32.0081 165.735 32.0182 165.886 32.0151 166.037Z" fill="#EB996E"/>
<path d="M49.6136 159.328C49.2523 159.639 48.867 159.921 48.4615 160.171C47.5434 160.826 46.7416 161.63 46.0894 162.551C45.4565 163.481 45.0586 164.551 44.9297 165.668C44.9244 166.142 44.8917 166.614 44.8318 167.084C44.6721 166.622 44.6106 166.132 44.6511 165.646C44.7044 164.458 45.0906 163.31 45.7656 162.332C46.437 161.359 47.3038 160.535 48.3109 159.915C48.7029 159.637 49.1454 159.437 49.6136 159.328Z" fill="#EB996E"/>
<path d="M31.4654 156.812C30.9312 155.93 30.4485 155.017 30.0196 154.079C29.4864 153.193 29.0473 152.254 28.7093 151.278C29.3886 152.063 29.9493 152.943 30.3735 153.891C30.9161 154.788 31.2864 155.779 31.4654 156.812Z" fill="#EB996E"/>
<path d="M73.8313 196.746C72.8733 194.827 71.7335 193.003 70.4276 191.301C69.0202 189.686 67.4646 188.206 65.7813 186.881C66.3682 187.133 66.9159 187.468 67.4079 187.875C68.6428 188.795 69.7605 189.862 70.7363 191.053C71.7101 192.247 72.5322 193.557 73.1837 194.954C73.4889 195.515 73.7073 196.119 73.8313 196.746Z" fill="#EB996E"/>
<path d="M125.535 142.987C125.535 142.987 105.384 148.363 96.5806 154.342C92.1829 157.355 77.0016 175.284 77.0016 175.284L92.1678 197.755L107.839 182.386L125.535 142.987Z" fill="#E0E0E0"/>
<path d="M98.9602 184.833L104.149 245.257L116.491 246.115H176.659L176.501 183.944L173.85 156.594L150.679 147.761C142.448 155.766 129.24 153.748 125.482 143.1L98.9602 184.833Z" fill="#E0E0E0"/>
<path d="M97.4165 166.007C97.5219 166.007 98.2975 174.291 99.1409 184.517C99.9843 194.743 100.587 203.057 100.481 203.072C100.376 203.087 99.6003 194.788 98.7493 184.554C97.8984 174.321 97.311 166.015 97.4165 166.007Z" fill="#263238"/>
<g opacity="0.3">
<path d="M123.871 234.195L122.568 234.684C127.458 234.393 132.225 233.033 136.534 230.702C140.843 228.371 144.589 225.124 147.509 221.19C139.971 226.183 132.35 231.138 123.871 234.195Z" fill="black"/>
</g>
<path d="M148.247 202.198C148.218 202.327 148.169 202.452 148.103 202.567C147.968 202.838 147.81 203.177 147.606 203.591C147.403 204.005 147.125 204.57 146.771 205.173C146.417 205.775 146.018 206.483 145.573 207.228C144.495 208.988 143.321 210.687 142.057 212.319C140.503 214.31 138.828 216.204 137.041 217.989C135.239 219.763 133.33 221.425 131.326 222.967C129.687 224.221 127.98 225.382 126.213 226.446C125.46 226.92 124.759 227.289 124.149 227.628C123.539 227.967 123.005 228.238 122.56 228.449L121.536 228.938C121.421 229.004 121.297 229.053 121.167 229.081C121.269 228.998 121.38 228.927 121.499 228.871L122.485 228.313C122.922 228.087 123.449 227.801 124.044 227.432C124.639 227.063 125.339 226.679 126.07 226.212C127.576 225.286 129.27 224.096 131.107 222.681C133.087 221.134 134.975 219.475 136.763 217.711C138.536 215.932 140.211 214.056 141.778 212.093C143.201 210.263 144.406 208.561 145.34 207.078C145.829 206.325 146.221 205.662 146.582 205.067C146.944 204.472 147.237 203.945 147.471 203.516L148.028 202.529C148.094 202.414 148.167 202.304 148.247 202.198Z" fill="#263238"/>
<path d="M58.7932 282.193L63.5524 303.881C63.5524 303.881 42.8815 314.408 43.3333 318.505L85.9778 312.375L79.9535 278.285L58.7932 282.193Z" fill="#455A64"/>
<g opacity="0.6">
<path d="M76.3239 299.656C76.7545 299.706 77.1512 299.914 77.4376 300.239C77.7241 300.565 77.8799 300.985 77.8751 301.418C77.8389 301.848 77.6407 302.248 77.3205 302.538C77.0003 302.827 76.5822 302.984 76.1507 302.977C75.6935 302.923 75.2726 302.701 74.9694 302.355C74.6662 302.009 74.5022 301.562 74.5091 301.102C74.5919 300.655 74.8443 300.257 75.2133 299.992C75.5824 299.727 76.0396 299.615 76.4895 299.679" fill="white"/>
</g>
<g opacity="0.6">
<path d="M85.9778 312.375L85.3679 308.941L44.3875 316.291C43.9879 316.582 43.6662 316.968 43.4508 317.413C43.2355 317.858 43.133 318.35 43.1526 318.844L85.9778 312.375Z" fill="white"/>
</g>
<path d="M62.8219 303.79C62.8671 303.994 63.9213 303.903 65.081 304.385C66.2407 304.867 66.926 305.635 67.0992 305.515C67.2724 305.394 66.7452 304.257 65.3596 303.7C63.974 303.143 62.7466 303.61 62.8219 303.79Z" fill="#263238"/>
<path d="M58.6953 306.441C58.6953 306.644 59.6441 306.833 60.5025 307.586C61.361 308.339 61.7375 309.22 61.9408 309.175C62.1442 309.129 62.0689 307.932 60.977 307.021C59.8851 306.11 58.6953 306.238 58.6953 306.441Z" fill="#263238"/>
<path d="M57.1892 312.217C57.385 312.217 57.4829 311.14 56.7449 310.108C56.0069 309.077 54.93 308.791 54.8698 309.017C54.8096 309.242 55.525 309.702 56.1199 310.568C56.7148 311.434 56.9482 312.232 57.1892 312.217Z" fill="#263238"/>
<path d="M62.2872 298.73C62.4077 298.903 63.3038 298.444 64.4936 298.308C65.6834 298.173 66.6549 298.376 66.7528 298.18C66.8507 297.985 65.819 297.427 64.4259 297.586C63.0328 297.744 62.1592 298.587 62.2872 298.73Z" fill="#263238"/>
<g opacity="0.3">
<path d="M59.742 286.486L60.5854 290.356L81.3768 286.373L80.7668 282.864L59.742 286.486Z" fill="black"/>
</g>
<path d="M61.4062 294.332C61.4062 294.423 62.2647 294.4 63.5298 293.941C64.2695 293.664 64.9725 293.297 65.6232 292.849C66.0115 292.586 66.3813 292.296 66.7302 291.983C66.9443 291.807 67.1298 291.599 67.2799 291.365C67.3876 291.194 67.4356 290.992 67.4165 290.79C67.3975 290.589 67.3124 290.399 67.1745 290.251C67.045 290.125 66.8874 290.031 66.7146 289.977C66.5418 289.923 66.3587 289.911 66.1805 289.942C65.9175 289.987 65.6634 290.074 65.4274 290.198C64.2581 290.711 63.2394 291.515 62.468 292.533C61.6472 293.617 61.4514 294.453 61.5342 294.483C61.617 294.513 62.0011 293.798 62.8596 292.864C63.3632 292.32 63.9353 291.845 64.5614 291.448C64.9293 291.22 65.3146 291.021 65.7136 290.853C66.1353 290.658 66.5193 290.582 66.6699 290.763C66.8205 290.944 66.7377 290.861 66.6699 291.004C66.5564 291.173 66.4195 291.325 66.2633 291.456C65.9455 291.758 65.6084 292.04 65.2542 292.299C64.6577 292.746 64.0197 293.134 63.349 293.459C62.6842 293.71 62.0353 294.002 61.4062 294.332Z" fill="#263238"/>
<path d="M61.7074 294.581C61.7902 294.581 62.0613 293.783 61.8957 292.427C61.7135 291.16 61.1933 289.966 60.3896 288.971C60.224 288.711 59.9943 288.498 59.7225 288.353C59.4508 288.208 59.1463 288.135 58.8383 288.142C58.6555 288.186 58.4883 288.279 58.3553 288.412C58.2224 288.545 58.1289 288.712 58.0853 288.895C58.0256 289.165 58.0003 289.44 58.01 289.716C58.0251 290.204 58.1139 290.686 58.2736 291.147C58.5332 291.92 58.9809 292.616 59.5763 293.173C60.608 294.121 61.5116 294.212 61.5191 294.136C61.5267 294.061 60.7661 293.752 59.9453 292.811C59.4703 292.271 59.1183 291.633 58.9136 290.944C58.7957 290.542 58.7348 290.127 58.7329 289.709C58.7329 289.242 58.8157 288.85 58.9965 288.865C59.1772 288.88 59.6215 289.099 59.8625 289.422C60.1403 289.754 60.3921 290.106 60.6155 290.477C60.9621 291.12 61.2156 291.81 61.3685 292.525C61.7074 293.76 61.617 294.573 61.7074 294.581Z" fill="#263238"/>
<path d="M57.3021 287.661C57.3021 287.661 42.6781 227.794 42.5125 219.601C42.3393 210.903 50.3215 203.591 55.6831 202.341C61.0447 201.091 72.9427 205.218 79.5243 213.441C86.1059 221.664 107.055 237.275 107.055 237.275C115.715 243.774 128.547 246.537 140.189 240.445C140.189 240.445 157.313 267.08 158.428 266.41C160.438 265.19 159.128 268.541 157.524 272.683C154.354 280.861 148.073 287.834 140.784 288.007L98.9301 289.882L82.6494 271.666L84.1555 284.264L57.3021 287.661Z" fill="#263238"/>
<path d="M83.7564 280.657C83.6868 280.449 83.6364 280.234 83.6058 280.017C83.5229 279.603 83.3874 278.985 83.2669 278.18C82.9004 275.915 82.6491 273.632 82.5139 271.342C82.3036 267.945 82.2684 264.539 82.4084 261.138C82.4687 259.218 82.5741 257.207 82.7021 255.114C82.8757 252.972 82.9385 250.823 82.8904 248.675C82.7583 244.524 82.2975 240.389 81.5123 236.311C80.8998 232.974 80.044 229.687 78.952 226.476C78.2276 224.309 77.3024 222.213 76.1883 220.218C75.8894 219.675 75.5626 219.147 75.2094 218.637C75.0828 218.457 74.9696 218.268 74.8705 218.072C75.0195 218.232 75.1555 218.403 75.2771 218.584C75.6553 219.082 76.0023 219.602 76.3163 220.143C77.4922 222.119 78.4612 224.211 79.208 226.386C80.3474 229.598 81.2362 232.893 81.8662 236.243C82.6724 240.337 83.1459 244.49 83.2819 248.66C83.328 250.821 83.2627 252.983 83.0862 255.137C82.9506 257.222 82.8452 259.233 82.7699 261.161C82.6117 264.986 82.6268 268.443 82.7699 271.334C82.913 274.226 83.1991 276.56 83.4175 278.164C83.5154 278.97 83.6283 279.588 83.6811 280.017C83.7232 280.228 83.7484 280.442 83.7564 280.657Z" fill="#455A64"/>
<path d="M110.022 250.438C109.902 250.438 110.022 247.87 109.555 244.752C109.089 241.635 108.328 239.195 108.441 239.157C108.723 239.649 108.934 240.179 109.066 240.731C109.462 242.029 109.756 243.356 109.947 244.7C110.136 246.044 110.217 247.401 110.188 248.758C110.212 249.323 110.156 249.889 110.022 250.438Z" fill="#455A64"/>
<path d="M102.018 290.514L81.1132 297.992C81.1132 297.992 83.1916 321.133 79.464 322.887L62.0086 283.504L94.088 270.506L102.018 290.514Z" fill="#455A64"/>
<g opacity="0.6">
<path d="M77.9128 284.92C77.6415 284.583 77.2562 284.358 76.83 284.287C76.4038 284.217 75.9664 284.305 75.601 284.535C75.2606 284.791 75.0295 285.166 74.9541 285.585C74.8787 286.004 74.9645 286.436 75.1943 286.795C75.4821 287.152 75.892 287.391 76.3453 287.465C76.7985 287.538 77.2629 287.442 77.6492 287.194C77.9856 286.888 78.1901 286.463 78.2196 286.01C78.2491 285.556 78.1013 285.108 77.8074 284.761" fill="white"/>
</g>
<g opacity="0.6">
<path d="M62.0086 283.503L65.2467 282.193L80.7668 320.809C80.7334 321.303 80.5785 321.782 80.3158 322.203C80.053 322.623 79.6906 322.972 79.2607 323.219L62.0086 283.503Z" fill="white"/>
</g>
<path d="M81.5801 298.557C81.3843 298.632 80.9023 297.691 79.8933 296.975C78.8842 296.26 77.8525 296.087 77.8601 295.876C77.8676 295.665 79.1101 295.499 80.3225 296.388C81.5349 297.276 81.7759 298.526 81.5801 298.557Z" fill="#263238"/>
<path d="M81.5198 303.452C81.3466 303.572 80.6764 302.857 79.5845 302.518C78.4926 302.179 77.5438 302.345 77.476 302.149C77.4083 301.953 78.4625 301.396 79.8104 301.825C81.1584 302.254 81.7006 303.369 81.5198 303.452Z" fill="#263238"/>
<path d="M77.4459 307.834C77.3329 307.676 78.1989 307.013 79.4716 307.081C80.7442 307.149 81.5274 307.902 81.3993 308.045C81.2713 308.188 80.4731 307.857 79.4264 307.812C78.3797 307.767 77.5212 308.023 77.4459 307.834Z" fill="#263238"/>
<path d="M86.151 296.328C85.9402 296.328 85.8573 295.311 85.3377 294.234C84.8182 293.157 84.1329 292.442 84.2609 292.269C84.3889 292.096 85.413 292.653 86.0004 293.926C86.5878 295.198 86.3468 296.358 86.151 296.328Z" fill="#263238"/>
<g opacity="0.3">
<path d="M97.8758 291.99L94.1558 293.323L86.4899 273.586L89.7882 272.246L97.8758 291.99Z" fill="black"/>
</g>
<path d="M90.3229 294.709C90.24 294.709 89.8108 294.016 89.5322 292.698C89.3748 291.925 89.3091 291.137 89.3364 290.349C89.3572 289.881 89.4101 289.416 89.4945 288.956C89.5292 288.68 89.6054 288.41 89.7204 288.157C89.8092 287.975 89.9553 287.827 90.1362 287.736C90.317 287.645 90.5228 287.616 90.722 287.653C90.8977 287.696 91.0609 287.779 91.1983 287.897C91.3356 288.015 91.4433 288.163 91.5127 288.331C91.6178 288.585 91.6838 288.854 91.7084 289.129C91.7752 289.597 91.7979 290.071 91.7762 290.544C91.7446 291.341 91.5844 292.126 91.3018 292.871C90.8123 294.144 90.2099 294.754 90.1421 294.701C90.0743 294.648 90.4735 293.948 90.8123 292.713C91.0023 292.001 91.101 291.267 91.106 290.529C91.1071 290.095 91.0719 289.662 91.0006 289.234C90.9403 288.767 90.7973 288.406 90.5714 288.368C90.481 288.368 90.4509 288.368 90.3605 288.504C90.279 288.691 90.2232 288.889 90.1948 289.091C90.1072 289.519 90.0468 289.951 90.0141 290.386C89.9434 291.138 89.9434 291.894 90.0141 292.645C90.1627 293.326 90.2658 294.015 90.3229 294.709Z" fill="#263238"/>
<path d="M89.9614 294.596C89.9012 294.535 90.4509 293.843 91.6858 293.293C92.4154 292.966 93.194 292.763 93.9901 292.69C94.4608 292.642 94.9352 292.642 95.4059 292.69C95.7109 292.694 96.0099 292.776 96.2738 292.929C96.5376 293.082 96.7575 293.301 96.9119 293.564C96.9803 293.743 96.9961 293.939 96.9574 294.127C96.9187 294.315 96.8272 294.488 96.6936 294.626C96.4984 294.82 96.2781 294.987 96.0384 295.123C95.6181 295.369 95.164 295.551 94.6905 295.665C93.899 295.86 93.0722 295.86 92.2808 295.665C90.9253 295.296 90.368 294.573 90.4283 294.528C91.068 294.775 91.7218 294.983 92.3862 295.153C93.0987 295.273 93.829 295.235 94.5248 295.04C94.9246 294.927 95.3072 294.759 95.6619 294.543C96.0685 294.309 96.3472 294.008 96.2342 293.873C96.1212 293.737 95.7071 293.459 95.3004 293.428C94.8762 293.372 94.4479 293.351 94.0203 293.368C93.2868 293.401 92.5617 293.538 91.8666 293.775C90.6843 294.189 90.0367 294.709 89.9614 294.596Z" fill="#263238"/>
<path d="M98.7945 265.732C98.7945 265.732 140.784 226.461 154.565 228.554C168.345 230.648 171.696 237.327 172.946 242.749C174.196 248.171 173.782 264.474 154.986 274.083C136.19 283.692 96.076 294.136 96.076 294.136L87.7249 270.739L98.7945 265.732Z" fill="#263238"/>
<path d="M98.7945 265.732C98.7945 265.732 98.5536 265.86 98.0792 266.086L95.9556 267.065L87.755 270.83L87.8002 270.717C89.8786 276.493 92.7552 284.475 96.2116 294.099L96.0384 294.001C105.896 291.358 117.455 288.029 130.031 283.805C136.311 281.674 142.832 279.332 149.444 276.463C151.101 275.777 152.72 274.957 154.361 274.204C155.19 273.827 155.958 273.322 156.763 272.886L157.961 272.208C158.367 271.99 158.714 271.696 159.113 271.455C162.259 269.434 165.033 266.887 167.313 263.925C170.943 259.277 172.991 253.591 173.157 247.697C173.243 245.816 173.053 243.934 172.592 242.109C172.156 240.317 171.42 238.611 170.416 237.064C169.418 235.554 168.155 234.238 166.688 233.178C165.253 232.132 163.683 231.286 162.02 230.663C160.397 230.031 158.728 229.527 157.027 229.157L154.504 228.705L153.262 228.63L152.019 228.743C150.394 229.001 148.804 229.448 147.283 230.075C144.352 231.278 141.524 232.716 138.826 234.375C133.964 237.341 129.264 240.564 124.744 244.029C116.461 250.34 110.007 255.867 105.594 259.692C103.396 261.613 101.701 263.126 100.557 264.15L99.2464 265.34C98.9527 265.604 98.7945 265.732 98.7945 265.732L99.2162 265.31L100.496 264.113C101.626 263.074 103.298 261.537 105.489 259.595C109.872 255.731 116.257 250.174 124.571 243.826C129.086 240.339 133.784 237.096 138.645 234.112C141.357 232.438 144.2 230.987 147.147 229.774C148.695 229.133 150.312 228.676 151.967 228.411C152.388 228.374 152.817 228.313 153.247 228.291L154.549 228.366L157.095 228.818C158.817 229.182 160.507 229.686 162.148 230.324C163.842 230.956 165.443 231.815 166.907 232.877C168.411 233.959 169.704 235.306 170.725 236.853C171.758 238.435 172.522 240.178 172.984 242.011C173.45 243.871 173.643 245.789 173.556 247.704C173.556 248.668 173.421 249.632 173.33 250.596C173.24 251.56 173.029 252.524 172.758 253.457C171.822 257.325 170.079 260.95 167.645 264.098C165.346 267.105 162.544 269.691 159.361 271.741C158.97 271.997 158.608 272.291 158.194 272.494L156.989 273.179C156.176 273.624 155.4 274.128 154.565 274.505C152.915 275.295 151.289 276.109 149.625 276.802C143.02 279.678 136.469 282.013 130.181 284.136C117.583 288.346 106.016 291.666 96.1438 294.264L96.0158 294.302L95.9706 294.174C92.5519 284.543 89.7204 276.545 87.6872 270.762V270.687H87.7625L95.9857 267.004L98.1319 266.056C98.5385 265.83 98.7945 265.732 98.7945 265.732Z" fill="#455A64"/>
<path d="M121.197 237.553C120.55 236.378 121.883 234.315 120.618 233.871C115.768 232.161 119.488 224.495 114.526 225.836L107.884 237.598C110.783 239.375 109.548 244.375 112.078 246.635C113.584 247.952 115.776 247.877 117.696 247.44C125 245.806 131.168 241.951 133.05 234.706C133.359 233.381 121.815 238.735 121.197 237.553Z" fill="#E0E0E0"/>
<path d="M190.356 107.955C186.23 108.513 181.644 111.111 180.062 114.974C178.835 117.986 180.236 122.459 180.288 125.712C180.288 128.333 180.371 130.983 180.522 133.589C180.522 133.845 180.462 134.093 180.431 134.342C179.92 137.817 179.669 141.326 179.678 144.839C179.678 145.788 179.791 146.737 179.904 147.663C179.972 148.122 180.032 148.582 180.13 149.034C180.228 149.485 180.296 149.945 180.416 150.374C180.83 152.058 181.402 153.7 182.126 155.276C183.334 157.899 184.818 160.385 186.554 162.694C187.692 164.242 188.916 165.726 190.221 167.137L190.5 167.43L193.564 175.292C194.589 177.913 195.643 180.563 197.443 182.755C199.242 184.946 201.961 186.52 204.732 186.249C206.002 186.062 207.209 185.578 208.256 184.836C209.303 184.094 210.16 183.115 210.756 181.979C211.946 179.682 212.547 177.125 212.503 174.539L190.356 107.955ZM187.804 161.843C186.313 159.506 185.018 157.051 183.933 154.501C182.635 151.424 181.92 148.132 181.825 144.794C181.825 144.259 181.825 143.732 181.825 143.205C183.081 148.12 184.695 152.937 186.652 157.618L189.091 163.876C188.685 163.213 188.255 162.536 187.804 161.805V161.843Z" fill="#263238"/>
<path d="M227.549 158.454L197.699 170.457C197.699 170.457 208.723 195.036 218.189 192.83C227.654 190.624 232.255 168.093 232.255 168.093L227.549 158.454Z" fill="#FFBE9D"/>
<path d="M229.025 159.425C229.025 159.425 232.308 181.881 222.82 183.696C216.171 184.961 200.718 168.951 200.718 168.951C198.022 169.75 196.019 171.135 193.888 172.461C190.593 174.547 188.155 177.746 187.018 181.477C185.881 185.208 186.12 189.223 187.691 192.793C190.989 200.413 195.319 210.331 197.766 215.459C202.081 224.495 212.187 230.143 212.187 230.143L211.359 249.361C211.359 249.361 237.421 243.894 251.39 245.294C265.359 246.695 274.606 243.645 274.606 243.645L256.044 211.347L241.857 158.002C241.857 158.002 235.381 158.454 229.025 159.425Z" fill="#455A64"/>
<path d="M241.857 158.002C241.857 158.002 250.328 157.927 255.253 168.1C257.791 173.334 268.356 190.94 268.356 190.496L284.275 166.85L298.161 174.577C298.161 174.577 285.217 201.965 283.161 206.076C281.105 210.188 278.432 215.941 270.623 216.762C262.814 217.583 255.216 211.009 253.574 207.108C251.932 203.207 240.019 182.86 240.019 182.258C240.019 181.655 241.857 158.002 241.857 158.002Z" fill="#455A64"/>
<path d="M268.71 233.359C268.601 233.228 268.505 233.087 268.424 232.937C268.236 232.628 267.995 232.184 267.671 231.71C267.016 230.595 266.097 229.036 264.952 227.109C262.656 223.148 259.478 217.665 255.863 211.445V211.4V211.355C255.788 209.653 255.698 207.883 255.554 206.084C255.287 202.119 254.57 198.199 253.416 194.397C252.485 191.293 251.039 188.368 249.139 185.744C247.85 183.98 246.301 182.421 244.545 181.121C243.912 180.676 243.415 180.367 243.039 180.142C242.853 180.042 242.677 179.926 242.512 179.795C242.706 179.872 242.895 179.962 243.077 180.066C243.595 180.35 244.098 180.662 244.583 181C246.391 182.264 247.985 183.81 249.304 185.578C251.27 188.204 252.768 191.149 253.732 194.284C254.913 198.107 255.646 202.054 255.916 206.046C256.059 207.861 256.142 209.638 256.217 211.317V211.227C259.779 217.477 262.919 222.982 265.193 226.958C266.285 228.916 267.174 230.49 267.806 231.619L268.499 232.884C268.583 233.036 268.653 233.195 268.71 233.359Z" fill="#263238"/>
<path d="M269.041 200.752C268.551 199.137 268.285 197.462 268.251 195.775C268.179 194.588 268.179 193.399 268.251 192.213C268.245 191.716 268.313 191.221 268.454 190.744C268.567 190.744 268.454 193.003 268.65 195.752C268.846 198.501 269.154 200.73 269.041 200.752Z" fill="#263238"/>
<path d="M232.956 194.555C233.115 194.848 233.239 195.159 233.325 195.481C233.456 195.849 233.566 196.223 233.656 196.603C233.762 197.04 233.912 197.544 233.995 198.109C234.116 198.724 234.204 199.345 234.259 199.969C234.349 200.639 234.356 201.362 234.387 202.123C234.407 205.437 233.748 208.719 232.451 211.769C232.168 212.432 231.851 213.081 231.502 213.712C231.216 214.268 230.897 214.806 230.546 215.323C230.245 215.813 229.921 216.22 229.65 216.589C229.415 216.903 229.164 217.204 228.897 217.492C228.691 217.754 228.459 217.994 228.204 218.208C228.144 218.155 229.108 217.108 230.305 215.195C230.635 214.672 230.936 214.132 231.209 213.576C231.533 212.997 231.804 212.334 232.112 211.649C232.72 210.143 233.191 208.585 233.521 206.995C233.829 205.396 233.995 203.773 234.018 202.145C234.018 201.392 234.018 200.684 233.927 200.022C233.837 199.359 233.799 198.742 233.716 198.177C233.4 195.94 232.88 194.607 232.956 194.555Z" fill="#263238"/>
<path d="M217.202 119.567C216.566 117.302 215.479 115.188 214.007 113.353C212.535 111.517 210.707 109.998 208.634 108.885C206.56 107.773 204.283 107.091 201.94 106.879C199.596 106.668 197.234 106.931 194.995 107.654C185.959 110.493 180.906 120.147 183.165 129.244C185.153 137.211 187.329 145.186 188.512 147.919C192.081 156.157 198.301 157.325 200.711 157.453C201.533 157.411 202.348 157.282 203.143 157.069C203.159 157.066 203.175 157.069 203.189 157.077C203.203 157.086 203.213 157.098 203.218 157.114L205.327 167.408C207.089 173.989 212.917 178.063 219.582 176.331C226.246 174.599 229.206 167.724 227.564 161.09L217.202 119.567Z" fill="#FFBE9D"/>
<path d="M188.873 133.378C188.962 133.741 189.191 134.054 189.509 134.25C189.828 134.446 190.211 134.509 190.575 134.425C190.756 134.392 190.928 134.324 191.082 134.224C191.237 134.125 191.37 133.996 191.474 133.845C191.578 133.693 191.652 133.523 191.69 133.344C191.728 133.164 191.731 132.979 191.697 132.798C191.607 132.435 191.379 132.122 191.06 131.926C190.742 131.73 190.359 131.667 189.995 131.751C189.814 131.784 189.642 131.852 189.487 131.951C189.333 132.051 189.2 132.18 189.096 132.331C188.991 132.482 188.918 132.653 188.88 132.832C188.842 133.012 188.839 133.197 188.873 133.378Z" fill="#263238"/>
<path d="M186.042 130.674C186.26 130.81 187.118 129.763 188.624 129.371C190.131 128.98 191.418 129.439 191.531 129.221C191.644 129.002 191.328 128.837 190.778 128.618C190.013 128.336 189.178 128.299 188.391 128.513C187.609 128.714 186.911 129.157 186.395 129.778C186.004 130.253 185.959 130.621 186.042 130.674Z" fill="#263238"/>
<path d="M202.955 130.004C203.044 130.367 203.273 130.68 203.592 130.874C203.91 131.069 204.293 131.13 204.657 131.043C204.837 131.012 205.009 130.945 205.164 130.846C205.318 130.747 205.451 130.619 205.555 130.468C205.66 130.318 205.733 130.148 205.772 129.969C205.81 129.789 205.812 129.605 205.779 129.424C205.688 129.062 205.459 128.75 205.141 128.555C204.823 128.359 204.441 128.296 204.077 128.378C203.896 128.409 203.723 128.477 203.568 128.576C203.413 128.675 203.279 128.804 203.175 128.956C203.07 129.107 202.997 129.278 202.959 129.458C202.922 129.638 202.92 129.824 202.955 130.004Z" fill="#263238"/>
<path d="M200.876 127.105C201.095 127.241 201.961 126.186 203.459 125.802C204.958 125.418 206.253 125.87 206.374 125.644C206.426 125.546 206.17 125.268 205.62 125.042C204.853 124.767 204.02 124.732 203.233 124.944C202.45 125.147 201.75 125.589 201.23 126.209C200.846 126.676 200.771 127.045 200.876 127.105Z" fill="#263238"/>
<path d="M198.233 139.583C197.377 139.543 196.52 139.608 195.68 139.779C195.289 139.846 194.927 139.861 194.777 139.62C194.654 139.231 194.654 138.813 194.777 138.423C194.905 137.414 195.033 136.352 195.176 135.238C195.703 130.72 195.982 127.015 195.793 127C195.605 126.984 195.04 130.644 194.506 135.17C194.385 136.285 194.272 137.354 194.159 138.37C194.047 138.878 194.111 139.409 194.34 139.877C194.429 139.993 194.542 140.089 194.673 140.157C194.803 140.224 194.946 140.262 195.093 140.268C195.321 140.267 195.549 140.239 195.771 140.185C196.613 140.086 197.44 139.883 198.233 139.583Z" fill="#263238"/>
<path d="M203.203 157.054C203.203 157.054 209.122 156.014 215.252 149.802C215.252 149.802 214.89 157.995 203.738 159.825L203.203 157.054Z" fill="#EB996E"/>
<path d="M199.784 142.987C199.981 142.556 200.283 142.181 200.662 141.897C201.04 141.613 201.485 141.428 201.953 141.36C202.292 141.303 202.638 141.315 202.972 141.395C203.306 141.475 203.62 141.622 203.896 141.827C204.159 142.023 204.354 142.295 204.455 142.607C204.557 142.919 204.558 143.254 204.461 143.567C204.289 143.898 204.023 144.171 203.696 144.351C203.368 144.53 202.995 144.609 202.623 144.576C201.85 144.512 201.098 144.294 200.409 143.936C200.21 143.864 200.025 143.754 199.867 143.612C199.792 143.543 199.738 143.453 199.714 143.354C199.69 143.255 199.696 143.15 199.732 143.055" fill="#EB996E"/>
<path d="M202.917 139.447C202.669 139.493 203.075 141.112 201.976 142.625C200.876 144.139 199.092 144.41 199.137 144.636C199.137 144.741 199.604 144.847 200.342 144.681C201.3 144.441 202.147 143.877 202.736 143.085C203.298 142.328 203.544 141.383 203.422 140.449C203.279 139.756 203.03 139.41 202.917 139.447Z" fill="#263238"/>
<path d="M198.971 122.323C199.227 122.692 200.673 122.112 202.495 121.864C204.318 121.615 205.854 121.713 205.997 121.292C206.057 121.088 205.711 120.772 205.041 120.539C204.146 120.259 203.2 120.184 202.273 120.321C201.346 120.458 200.462 120.803 199.687 121.329C199.107 121.743 198.858 122.15 198.971 122.323Z" fill="#263238"/>
<path d="M185.138 126.533C185.484 126.804 186.433 126.179 187.668 125.84C188.903 125.501 190.025 125.471 190.183 125.049C190.243 124.853 189.987 124.552 189.43 124.356C188.711 124.136 187.944 124.131 187.222 124.342C186.501 124.554 185.857 124.972 185.371 125.546C185.032 126.028 184.972 126.397 185.138 126.533Z" fill="#263238"/>
<path d="M239.311 157.189C236.887 148.409 234.126 139.731 231.028 131.157C229.168 125.991 227.172 120.832 224.251 116.186C221.329 111.54 217.473 107.383 212.556 104.943C209.082 103.182 205.167 102.483 201.298 102.933C197.533 102.707 193.813 103.55 190.974 105.945C189.551 107.15 188.346 109.115 189.114 110.825C189.724 112.18 191.29 112.76 192.698 113.204L204.333 116.894L204.423 116.984L205.101 117.7C206.498 119.226 207.636 120.971 208.467 122.866C209.691 125.69 210.48 128.683 210.809 131.744C211.223 135.208 211.178 139.116 211.329 143.28C211.361 147.266 211.972 151.226 213.143 155.035C214.205 158.101 215.677 161.009 217.519 163.68C218.685 165.386 219.966 167.012 221.351 168.545C221.483 169.152 221.566 169.769 221.6 170.39C221.705 172.205 221.359 174.012 221.374 175.834C221.389 177.657 221.864 179.599 223.249 180.774C223.979 181.326 224.843 181.671 225.752 181.773C226.661 181.875 227.581 181.73 228.415 181.354C230.076 180.568 231.45 179.283 232.346 177.679C234.432 174.275 235.004 170.111 234.703 166.12C234.665 165.623 234.612 165.134 234.552 164.614C235.249 164.493 235.931 164.296 236.585 164.027C237.349 163.736 238.031 163.266 238.575 162.657C239.119 162.047 239.508 161.316 239.711 160.525C239.83 159.397 239.694 158.257 239.311 157.189ZM218.806 162.867C217.218 160.209 215.942 157.376 215.003 154.425C213.998 150.769 213.477 146.997 213.452 143.205C213.354 140.6 213.317 138.039 213.158 135.584C213.369 136.586 213.558 137.595 213.738 138.597C215.124 146.338 215.93 154.275 218.814 161.587C219.326 162.882 219.906 164.177 220.41 165.48C219.906 164.697 219.371 163.831 218.806 162.867Z" fill="#263238"/>
<path d="M224.808 116.871L224.462 116.819L223.452 116.721C223.008 116.675 222.474 116.623 221.856 116.547C221.239 116.472 220.523 116.404 219.747 116.284C218.181 116.081 216.329 115.772 214.288 115.373C212.247 114.974 210.018 114.431 207.699 113.784C205.38 113.136 203.181 112.398 201.253 111.69C199.325 110.982 197.563 110.252 196.117 109.612C195.364 109.303 194.747 108.994 194.182 108.731C193.617 108.467 193.12 108.241 192.728 108.046L191.81 107.601L191.486 107.458C191.58 107.529 191.681 107.589 191.787 107.639L192.691 108.121C193.082 108.324 193.564 108.573 194.129 108.874C194.694 109.175 195.334 109.469 196.057 109.785C197.495 110.448 199.235 111.171 201.185 111.909C203.135 112.647 205.327 113.362 207.646 114.025C209.966 114.687 212.202 115.192 214.25 115.599C216.299 116.005 218.159 116.276 219.725 116.465C220.478 116.578 221.231 116.638 221.841 116.698C222.451 116.758 223.001 116.803 223.445 116.834L224.454 116.894C224.572 116.898 224.691 116.89 224.808 116.871Z" fill="#455A64"/>
<path d="M225.222 118.378C225.102 118.366 224.981 118.366 224.861 118.378L223.829 118.445L223.076 118.498H222.187C221.555 118.498 220.824 118.558 220.026 118.536H218.761C218.324 118.536 217.872 118.49 217.398 118.468C216.457 118.468 215.455 118.317 214.386 118.219C209.802 117.701 205.307 116.577 201.019 114.876C200.04 114.462 199.107 114.085 198.256 113.671C197.827 113.468 197.405 113.287 197.021 113.084L195.899 112.496C195.146 112.142 194.558 111.743 194.001 111.442L193.248 110.998L192.616 110.599L191.734 110.049C191.635 109.981 191.529 109.923 191.418 109.876L191.712 110.087L192.57 110.666L193.195 111.088L193.948 111.547C194.498 111.871 195.116 112.301 195.831 112.639L196.953 113.234C197.337 113.438 197.759 113.626 198.188 113.837C199.031 114.258 199.973 114.642 200.959 115.057C205.252 116.798 209.765 117.933 214.371 118.43C215.433 118.528 216.434 118.641 217.383 118.664C217.857 118.664 218.317 118.716 218.753 118.716H220.019C220.824 118.716 221.525 118.716 222.187 118.656L223.076 118.603L223.829 118.536L224.861 118.43L225.222 118.378Z" fill="white"/>
<path d="M230.84 173.199C230.84 173.199 230.84 173.153 230.84 173.055V172.626C230.84 172.257 230.787 171.707 230.704 171C230.491 169.001 230.169 167.015 229.74 165.051C229.213 162.566 228.422 159.636 227.406 156.428C226.389 153.22 225.192 149.734 223.949 146.059L217.534 127.233C216.705 124.846 216.027 122.903 215.568 121.548L215.026 120.004L214.875 119.605C214.861 119.559 214.843 119.513 214.823 119.469C214.823 119.469 214.823 119.522 214.86 119.612L214.981 120.019L215.493 121.578L217.39 127.286C219.017 132.113 221.261 138.762 223.746 146.112C224.981 149.787 226.201 153.273 227.218 156.474C228.234 159.674 229.048 162.588 229.59 165.073C230.035 167.027 230.379 169.003 230.621 170.992C230.712 171.692 230.757 172.25 230.795 172.619L230.84 173.04V173.199Z" fill="#455A64"/>
<path d="M220.636 151.631C220.632 151.515 220.62 151.399 220.598 151.285C220.561 151.037 220.508 150.705 220.448 150.284C220.312 149.418 220.101 148.168 219.823 146.624C219.273 143.544 218.437 139.297 217.36 134.635C216.284 129.974 215.177 125.787 214.348 122.775C213.919 121.269 213.595 120.049 213.301 119.213L213 118.249C212.971 118.135 212.931 118.024 212.88 117.918C212.899 118.035 212.926 118.151 212.963 118.264C213.023 118.505 213.113 118.829 213.219 119.236C213.46 120.102 213.791 121.314 214.198 122.813C215.018 125.825 216.103 130.027 217.21 134.681C218.317 139.334 219.145 143.582 219.732 146.654C220.019 148.16 220.252 149.418 220.425 150.299C220.501 150.713 220.568 151.052 220.613 151.293C220.61 151.406 220.618 151.519 220.636 151.631Z" fill="#455A64"/>
<path d="M287.423 163.966C288.08 161.932 288.527 159.835 288.756 157.709C289.17 154.056 289.178 153.868 288.372 152.257C287.566 150.645 286.113 149.997 285.465 149.199C284.818 148.401 287.325 147.422 289.516 148.921C291.708 150.419 293.41 153.258 293.869 153.936C296.188 157.332 298.199 157.422 298.199 157.422L306.987 155.163C306.987 155.163 308.817 152.505 310.436 152.859L311.144 152.987L311.43 152.821C311.595 152.723 311.783 152.669 311.975 152.664C312.167 152.659 312.358 152.703 312.528 152.792C312.698 152.881 312.843 153.012 312.949 153.173C313.055 153.333 313.118 153.518 313.132 153.71C313.132 153.973 313.067 154.231 312.943 154.463C312.318 155.728 306.716 160.698 306.43 162.039C306.144 163.379 306.43 165.503 303.967 167.867C301.505 170.232 298.583 171.143 295.526 171.527L295.051 172.815L285.661 167.596L287.423 163.966Z" fill="#FFBE9D"/>
<path d="M304.796 164.795C304.795 164.516 304.825 164.238 304.886 163.966C304.991 163.349 305.119 162.596 305.278 161.707C305.436 160.818 305.669 159.606 305.903 158.379C306.103 157.785 306.103 157.142 305.903 156.549C305.84 156.414 305.748 156.296 305.633 156.202C305.518 156.108 305.384 156.041 305.24 156.007C305.087 155.99 304.932 156.005 304.786 156.052C304.639 156.098 304.504 156.175 304.389 156.278C303.794 156.767 303.636 157.656 303.395 158.401C303.154 159.147 302.928 159.907 302.717 160.577C302.288 161.903 301.911 163.078 301.595 164.041V164.117H301.52C300.99 164.171 300.485 164.369 300.059 164.689C299.758 164.915 299.63 165.081 299.607 165.066C299.585 165.051 299.69 164.862 299.976 164.591C300.393 164.198 300.917 163.936 301.482 163.838L301.377 163.928C301.663 162.95 302.002 161.767 302.386 160.434C302.597 159.742 302.815 159.011 303.041 158.243C303.162 157.859 303.267 157.49 303.41 157.061C303.556 156.622 303.816 156.229 304.163 155.924C304.324 155.787 304.511 155.685 304.714 155.626C304.916 155.566 305.129 155.55 305.338 155.577C305.539 155.624 305.727 155.717 305.888 155.847C306.048 155.978 306.177 156.143 306.264 156.33C306.517 156.997 306.536 157.73 306.317 158.409C306.053 159.636 305.812 160.751 305.609 161.722C305.406 162.694 305.232 163.341 305.097 163.981C305.035 164.265 304.934 164.539 304.796 164.795Z" fill="#EB996E"/>
<path d="M311.385 153.055C310.702 154.576 309.902 156.041 308.99 157.437C308.192 158.904 307.278 160.304 306.257 161.624C306.939 160.103 307.74 158.638 308.651 157.242C309.451 155.776 310.365 154.376 311.385 153.055Z" fill="#EB996E"/>
<path d="M306.046 157.332C305.995 156.631 306.195 155.934 306.61 155.367C307.205 154.373 308.004 153.861 308.064 153.936C308.124 154.011 307.499 154.644 306.949 155.57C306.4 156.496 306.159 157.355 306.046 157.332Z" fill="#EB996E"/>
<path d="M294.441 155.329C294.866 155.635 295.218 156.031 295.473 156.489C296.172 157.553 296.61 158.767 296.753 160.032C296.895 161.297 296.738 162.578 296.294 163.771C296.143 164.273 295.886 164.738 295.541 165.134C295.481 165.134 295.759 164.584 296.023 163.68C296.377 162.513 296.49 161.286 296.354 160.075C296.218 158.863 295.837 157.691 295.232 156.632C294.773 155.819 294.396 155.397 294.441 155.329Z" fill="#EB996E"/>
<path d="M300.503 162.513C300.39 162.513 300.277 161.361 299.652 160.103C299.027 158.846 298.191 158.033 298.274 157.942C299.022 158.436 299.625 159.119 300.022 159.922C300.419 160.725 300.595 161.619 300.533 162.513H300.503Z" fill="#EB996E"/>
<path d="M302.793 158.718C302.35 159.073 301.836 159.33 301.286 159.471C300.775 159.721 300.214 159.855 299.645 159.862C299.645 159.757 300.285 159.418 301.151 159.109C301.659 158.85 302.222 158.716 302.793 158.718Z" fill="#EB996E"/>
<path d="M278.176 285.341L298.018 291.019C298.018 291.019 297.491 312.609 301.03 314.017L314.849 276.417L284.29 266.304L278.176 285.341Z" fill="#455A64"/>
<g opacity="0.6">
<path d="M300.202 278.707C300.433 278.377 300.777 278.144 301.169 278.052C301.561 277.961 301.973 278.017 302.326 278.21C302.665 278.427 302.907 278.767 303.002 279.158C303.098 279.549 303.039 279.962 302.838 280.311C302.592 280.661 302.224 280.908 301.807 281.003C301.389 281.097 300.951 281.033 300.579 280.823C300.244 280.56 300.025 280.176 299.97 279.753C299.915 279.331 300.028 278.904 300.285 278.564" fill="white"/>
</g>
<g opacity="0.6">
<path d="M314.871 276.417L311.791 275.401L299.743 312.172C299.8 312.629 299.972 313.065 300.241 313.438C300.511 313.812 300.87 314.112 301.286 314.31L314.871 276.417Z" fill="white"/>
</g>
<path d="M297.627 291.569C297.815 291.629 298.199 290.725 299.095 290.003C299.991 289.28 300.933 289.054 300.91 288.858C300.887 288.662 299.728 288.587 298.651 289.475C297.574 290.364 297.408 291.554 297.627 291.569Z" fill="#263238"/>
<path d="M297.973 296.102C298.146 296.207 298.726 295.507 299.713 295.13C300.699 294.754 301.595 294.837 301.648 294.656C301.701 294.475 300.684 294.001 299.464 294.498C298.244 294.995 297.8 296.042 297.973 296.102Z" fill="#263238"/>
<path d="M302.017 299.927C302.115 299.777 301.264 299.212 300.097 299.355C298.929 299.498 298.229 300.244 298.365 300.372C298.5 300.5 299.208 300.138 300.18 300.033C301.151 299.927 301.927 300.108 302.017 299.927Z" fill="#263238"/>
<path d="M293.244 289.776C293.44 289.776 293.462 288.82 293.877 287.788C294.291 286.757 294.886 286.049 294.758 285.898C294.63 285.748 293.711 286.32 293.252 287.54C292.792 288.76 293.071 289.821 293.244 289.776Z" fill="#263238"/>
<path d="M257.987 281.546L239.274 290.258C239.274 290.258 243.175 311.501 239.869 313.452L220.35 278.473L248.965 263.706L257.987 281.546Z" fill="#455A64"/>
<g opacity="0.6">
<path d="M235.192 278.436C234.913 278.146 234.536 277.969 234.134 277.94C233.733 277.911 233.334 278.031 233.016 278.277C232.718 278.547 232.534 278.92 232.501 279.32C232.469 279.72 232.591 280.118 232.843 280.431C233.138 280.741 233.538 280.929 233.964 280.958C234.391 280.988 234.813 280.856 235.147 280.589C235.433 280.278 235.585 279.868 235.573 279.446C235.56 279.024 235.383 278.624 235.079 278.33" fill="white"/>
</g>
<g opacity="0.6">
<path d="M220.35 278.473L223.234 276.967L240.93 311.418C240.943 311.878 240.84 312.333 240.632 312.743C240.425 313.154 240.118 313.506 239.741 313.768L220.35 278.473Z" fill="white"/>
</g>
<path d="M239.756 290.748C239.575 290.831 239.055 289.995 238.054 289.422C237.052 288.85 236.088 288.767 236.081 288.571C236.073 288.376 237.203 288.127 238.4 288.843C239.598 289.558 239.929 290.703 239.756 290.748Z" fill="#263238"/>
<path d="M240.11 295.273C239.967 295.401 239.281 294.799 238.242 294.581C237.203 294.362 236.337 294.581 236.262 294.415C236.186 294.249 237.105 293.624 238.393 293.918C239.68 294.212 240.275 295.191 240.11 295.273Z" fill="#263238"/>
<path d="M236.721 299.686C236.6 299.543 237.346 298.858 238.528 298.82C239.711 298.783 240.509 299.4 240.396 299.573C240.283 299.746 239.522 299.475 238.551 299.521C237.579 299.566 236.826 299.852 236.721 299.686Z" fill="#263238"/>
<path d="M243.8 288.285C243.604 288.285 243.431 287.374 242.866 286.418C242.301 285.461 241.593 284.859 241.699 284.693C241.804 284.528 242.798 284.949 243.453 286.079C244.108 287.209 243.98 288.3 243.8 288.285Z" fill="#263238"/>
<path d="M273.755 239.602C273.755 239.602 302.476 232.282 309.72 233.818C316.965 235.355 325.956 236.469 327.274 241.838C328.592 247.207 328.155 255.988 322.884 260.815C317.612 265.642 253.318 286.267 253.318 286.267L246.955 268.948L230.682 239.346C244.869 240.054 260.509 241.326 273.755 239.602Z" fill="#263238"/>
<path d="M251.473 269.806C251.64 269.712 251.817 269.636 252 269.58L253.506 269.015C254.839 268.518 256.752 267.765 259.079 266.756C265.126 264.084 270.873 260.78 276.225 256.899C279.35 254.64 282.25 252.29 284.991 250.347C287.406 248.587 289.992 247.074 292.709 245.829C294.552 245.003 296.497 244.428 298.493 244.12C299.033 244.03 299.579 243.972 300.127 243.947C300.315 243.928 300.504 243.928 300.692 243.947C300.692 243.992 299.939 244.037 298.515 244.285C296.549 244.651 294.637 245.26 292.822 246.1C290.136 247.364 287.58 248.89 285.194 250.656C282.468 252.599 279.591 254.926 276.459 257.223C271.087 261.125 265.292 264.409 259.184 267.012C256.842 268.006 254.907 268.722 253.559 269.173C252.889 269.407 252.362 269.557 252 269.67C251.828 269.729 251.652 269.774 251.473 269.806Z" fill="#455A64"/>
<path d="M220.403 237.681C220.403 237.681 211.69 240.407 209.356 252.471C207.021 264.535 213.301 278.149 214.875 280.122C216.449 282.095 246.955 283.413 246.955 283.413L289.75 289.995C289.75 289.995 294.464 286.267 295.405 278.195C296.158 272.072 295.458 270.243 295.458 270.243L249.523 248.307C249.523 248.307 228.069 236.168 220.403 237.681Z" fill="#263238"/>
<path d="M230.682 239.33C230.792 239.37 230.9 239.415 231.005 239.466L231.969 239.903L235.652 241.627L249.319 248.088L295.541 270.077L295.631 270.122V270.22C295.996 272.62 296.052 275.057 295.797 277.472C295.524 279.967 294.831 282.398 293.749 284.663C293.26 285.7 292.683 286.693 292.024 287.63C291.403 288.558 290.683 289.417 289.878 290.191L289.81 290.243H289.72L258.77 285.461C256.405 285.092 254.101 284.708 251.857 284.422C249.691 284.048 247.548 283.545 245.441 282.916C241.68 281.769 238.024 280.3 234.515 278.526C231.629 277.074 228.84 275.439 226.163 273.631C225.011 272.803 223.904 272.057 222.971 271.289C222.037 270.521 221.156 269.836 220.403 269.181C219.65 268.526 219.01 267.908 218.452 267.389C217.895 266.869 217.443 266.395 217.089 266.01C216.735 265.626 216.464 265.348 216.276 265.137C216.088 264.926 216.012 264.836 216.012 264.836L216.306 265.114L217.142 265.958C217.503 266.334 217.955 266.794 218.528 267.306C219.1 267.818 219.725 268.443 220.501 269.068C221.276 269.693 222.105 270.423 223.083 271.146C224.062 271.869 225.124 272.652 226.284 273.458C228.965 275.24 231.754 276.855 234.635 278.293C238.139 280.039 241.784 281.485 245.532 282.615C247.626 283.243 249.756 283.746 251.91 284.121C254.169 284.415 256.428 284.784 258.815 285.138L289.78 289.882L289.622 289.927C291.192 288.383 292.468 286.566 293.387 284.565C294.449 282.34 295.132 279.952 295.405 277.502C295.652 275.122 295.597 272.721 295.24 270.356L295.345 270.499L249.214 248.314L235.599 241.748L231.947 239.97L230.998 239.496C230.78 239.391 230.682 239.33 230.682 239.33Z" fill="#455A64"/>
<path d="M214.469 280.469C214.38 280.353 214.307 280.226 214.25 280.092C214.122 279.836 213.934 279.452 213.708 278.963C213.249 277.976 212.609 276.53 211.916 274.708C210.041 269.969 208.955 264.955 208.7 259.866C208.578 257.058 208.818 254.246 209.416 251.499C209.692 250.305 210.054 249.132 210.5 247.99C210.904 246.999 211.382 246.04 211.931 245.121C212.721 243.794 213.666 242.565 214.747 241.461C215.124 241.07 215.455 240.799 215.666 240.603C215.77 240.498 215.886 240.407 216.012 240.332C216.012 240.332 215.598 240.776 214.86 241.567C213.123 243.483 211.75 245.701 210.809 248.111C210.378 249.241 210.031 250.401 209.77 251.582C209.199 254.304 208.971 257.087 209.092 259.866C209.353 264.915 210.394 269.894 212.179 274.625C212.835 276.455 213.43 277.908 213.844 278.917L214.326 280.07C214.388 280.197 214.436 280.331 214.469 280.469Z" fill="#455A64"/>
<path d="M172.848 160.879C171.116 155.141 168.39 149.666 167.502 143.732L162.057 144.485C158.294 145.502 155.047 147.891 152.957 151.181C150.866 154.472 150.083 158.426 150.762 162.264C151.364 165.683 153.089 168.816 153.909 172.197C154.73 175.578 154.369 179.652 151.65 181.783C152.955 181.855 154.244 181.463 155.287 180.676C155.42 181.954 155.071 183.235 154.309 184.268C156.718 184.608 159.168 184.057 161.199 182.717C161.22 183.182 161.133 183.646 160.945 184.072C160.757 184.498 160.473 184.874 160.114 185.172C162.548 185.14 164.934 184.495 167.052 183.295C169.17 182.096 170.951 180.382 172.231 178.312C175.228 173.176 174.58 166.617 172.848 160.879Z" fill="#263238"/>
<path d="M156.259 160.171C155.4 154.35 160.37 147.302 166.222 146.692L180.183 147.151C181.123 147.184 182.036 147.473 182.823 147.989C183.611 148.504 184.242 149.224 184.648 150.073L191.388 188.606C191.388 188.606 194.144 200.579 183.579 202.085C174.091 203.441 172.502 193.44 172.502 193.44L171.252 186.166C171.252 186.166 163.631 187.469 160.077 178.214C158.307 173.605 157.215 166.64 156.259 160.171Z" fill="#FFBE9D"/>
<path d="M161.922 167.039C161.987 167.359 162.175 167.641 162.445 167.825C162.715 168.009 163.046 168.081 163.368 168.025C163.526 168.004 163.68 167.951 163.818 167.87C163.956 167.789 164.077 167.681 164.173 167.553C164.269 167.425 164.339 167.278 164.377 167.123C164.416 166.967 164.424 166.806 164.399 166.647C164.334 166.327 164.146 166.045 163.876 165.861C163.606 165.677 163.275 165.605 162.953 165.661C162.794 165.682 162.641 165.735 162.503 165.816C162.365 165.897 162.244 166.005 162.148 166.133C162.052 166.261 161.982 166.407 161.944 166.563C161.905 166.719 161.897 166.88 161.922 167.039Z" fill="#263238"/>
<path d="M159.03 164.908C159.218 165.036 160.001 164.155 161.289 163.868C162.577 163.582 163.721 164.049 163.834 163.868C163.947 163.688 163.669 163.53 163.179 163.311C162.526 163.034 161.801 162.968 161.108 163.123C160.421 163.268 159.796 163.626 159.324 164.147C159.015 164.531 158.94 164.847 159.03 164.908Z" fill="#263238"/>
<path d="M173.067 164.659C173.131 164.98 173.318 165.263 173.588 165.448C173.858 165.632 174.19 165.703 174.513 165.646C174.671 165.625 174.824 165.573 174.962 165.493C175.101 165.413 175.221 165.306 175.317 165.178C175.414 165.05 175.483 164.905 175.522 164.749C175.561 164.594 175.569 164.433 175.544 164.275C175.48 163.954 175.293 163.67 175.023 163.484C174.753 163.299 174.421 163.226 174.098 163.281C173.939 163.302 173.786 163.355 173.648 163.436C173.51 163.517 173.389 163.625 173.293 163.753C173.197 163.882 173.127 164.028 173.088 164.183C173.05 164.339 173.042 164.501 173.067 164.659Z" fill="#263238"/>
<path d="M171.229 162.528C171.418 162.656 172.201 161.775 173.526 161.496C174.851 161.218 175.951 161.669 176.064 161.496C176.177 161.323 175.906 161.15 175.416 160.931C174.759 160.658 174.034 160.593 173.338 160.743C172.652 160.889 172.03 161.247 171.561 161.767C171.222 162.174 171.139 162.475 171.229 162.528Z" fill="#263238"/>
<path d="M169.294 172.965C168.539 172.925 167.781 172.966 167.035 173.086C166.696 173.123 166.365 173.131 166.282 172.95C166.19 172.656 166.203 172.339 166.319 172.054C166.485 171.301 166.658 170.51 166.839 169.674C167.27 167.644 167.599 165.593 167.826 163.53C167.667 163.53 166.975 166.24 166.267 169.622L165.792 172.001C165.725 172.189 165.697 172.389 165.71 172.589C165.723 172.788 165.776 172.983 165.868 173.161C165.946 173.256 166.045 173.333 166.157 173.385C166.269 173.437 166.392 173.463 166.515 173.462C166.712 173.468 166.909 173.453 167.103 173.417C167.848 173.348 168.583 173.197 169.294 172.965Z" fill="#263238"/>
<path d="M171.207 186.226C175.729 185.335 179.915 183.208 183.3 180.081C183.3 180.081 181.44 187.461 171.651 188.606L171.207 186.226Z" fill="#EB996E"/>
<path d="M173.285 172.242C173.067 172.28 173.368 173.711 172.359 174.991C171.35 176.271 169.783 176.437 169.821 176.64C169.859 176.843 170.22 176.851 170.868 176.73C171.71 176.561 172.466 176.103 173.006 175.435C173.512 174.796 173.757 173.988 173.692 173.176C173.616 172.536 173.383 172.22 173.285 172.242Z" fill="#263238"/>
<path d="M170.732 158.025C170.973 158.401 172.043 157.859 173.443 157.656C174.844 157.452 176.064 157.611 176.124 157.189C176.124 156.986 175.845 156.662 175.288 156.436C174.602 156.125 173.841 156.02 173.097 156.135C172.375 156.242 171.704 156.571 171.177 157.076C170.77 157.452 170.627 157.844 170.732 158.025Z" fill="#263238"/>
<path d="M158.021 160.374C158.315 160.698 159.233 160.194 160.393 160.021C161.553 159.847 162.577 159.968 162.758 159.561C162.825 159.358 162.622 159.019 162.148 158.74C161.528 158.412 160.818 158.298 160.127 158.417C159.436 158.536 158.804 158.88 158.33 159.396C157.976 159.825 157.885 160.216 158.021 160.374Z" fill="#263238"/>
<path d="M161.229 144.854C158.97 150.841 164.753 152.015 167.886 153.778C171.018 155.54 174.505 156.534 177.984 157.452C178.806 157.509 179.584 157.844 180.189 158.403C180.794 158.961 181.191 159.71 181.312 160.525C181.955 162.593 182.598 164.661 183.24 166.73C183.76 168.187 184.085 169.706 184.204 171.248C184.264 172.015 184.171 172.787 183.932 173.518C183.693 174.249 183.312 174.926 182.811 175.51C183.255 175.462 183.684 175.323 184.072 175.103C184.461 174.883 184.8 174.586 185.07 174.23C185.189 176.481 184.703 178.722 183.662 180.721C185.065 180.687 186.43 180.261 187.603 179.492C188.777 178.723 189.712 177.641 190.304 176.369C190.492 177.387 191.074 178.29 191.923 178.884C192.269 179.185 192.909 179.373 192.751 178.944C192.447 177.954 192.196 176.949 191.998 175.932C193.384 176.497 193.738 176.934 196.674 176.03C195.312 175.125 194.314 173.767 193.858 172.197C193.858 172.197 194.656 173.823 197.194 173.025C195.152 171.257 193.885 168.759 193.662 166.067C193.451 162.302 193.594 157.784 192.819 154.064C192.134 150.292 190.184 146.865 187.292 144.35C184.789 142.457 181.849 141.226 178.745 140.773C175.448 140.204 172.078 140.204 168.782 140.773C166.703 141.119 162.17 141.865 161.199 144.877" fill="#263238"/>
<path d="M183.7 180.661C184.422 180.536 185.136 180.368 185.838 180.157C186.654 179.887 187.419 179.479 188.097 178.952C189.017 178.254 189.741 177.331 190.198 176.271L190.341 175.917L190.432 176.286C190.565 176.891 190.821 177.463 191.185 177.965C191.572 178.518 192.162 178.894 192.826 179.012L192.668 179.193C192.412 178.153 192.141 177.054 191.855 175.917L191.765 175.54L192.096 175.736C192.788 176.109 193.56 176.31 194.346 176.324C195.132 176.337 195.91 176.161 196.614 175.811V176.113C195.203 175.198 194.172 173.801 193.715 172.182L193.444 171.233L194.039 172.024C194.407 172.468 194.908 172.781 195.469 172.917C196.029 173.053 196.619 173.003 197.149 172.777L197.104 173.101C195.101 171.519 194.009 168.959 193.564 166.376C193.242 163.912 193.134 161.426 193.241 158.943C193.327 156.654 193.042 154.365 192.397 152.166C191.223 148.437 188.776 145.239 185.484 143.13C183.26 141.736 180.745 140.873 178.135 140.607C177.426 140.54 176.715 140.51 176.004 140.517H175.446H175.25C176.211 140.377 177.184 140.355 178.15 140.449C181.464 140.71 184.624 141.957 187.223 144.029C189.822 146.101 191.742 148.903 192.736 152.076C193.397 154.305 193.694 156.627 193.617 158.951C193.516 161.413 193.624 163.879 193.941 166.323C194.378 168.853 195.447 171.308 197.337 172.814L197.586 173.01L197.299 173.138C196.691 173.403 196.012 173.46 195.367 173.299C194.723 173.139 194.15 172.77 193.738 172.25L194.061 172.084C194.491 173.627 195.461 174.963 196.795 175.849L197.058 176.022L196.78 176.15C196.023 176.521 195.188 176.705 194.346 176.687C193.504 176.668 192.678 176.448 191.938 176.045L192.171 175.864L192.962 179.147L193.015 179.358H192.811C192.442 179.297 192.089 179.163 191.774 178.962C191.458 178.762 191.186 178.499 190.974 178.191C190.591 177.654 190.322 177.044 190.183 176.399H190.424C189.944 177.5 189.177 178.452 188.203 179.155C187.491 179.685 186.69 180.083 185.838 180.33C185.313 180.495 184.774 180.609 184.227 180.669C184.051 180.682 183.875 180.68 183.7 180.661Z" fill="#455A64"/>
<path d="M190.552 169.704C190.531 169.56 190.531 169.412 190.552 169.268C190.552 168.936 190.597 168.515 190.628 168.01C190.729 166.481 190.729 164.946 190.628 163.417C190.511 161.153 189.907 158.942 188.858 156.933C188.227 155.764 187.378 154.726 186.358 153.876C185.246 152.985 183.987 152.294 182.638 151.835C179.978 151.022 177.229 150.534 174.452 150.381C172.163 150.23 169.894 149.859 167.675 149.274C166.176 148.866 164.76 148.201 163.488 147.309C163.149 147.057 162.827 146.783 162.524 146.488C162.321 146.285 162.215 146.18 162.23 146.164C162.246 146.149 162.682 146.571 163.578 147.181C164.86 148.013 166.269 148.628 167.75 149.003C169.959 149.547 172.212 149.89 174.482 150.028C177.293 150.157 180.076 150.64 182.766 151.466C184.16 151.94 185.46 152.656 186.606 153.582C187.659 154.465 188.531 155.544 189.174 156.76C190.231 158.82 190.822 161.087 190.906 163.401C190.974 164.944 190.924 166.49 190.756 168.025C190.703 168.567 190.65 168.989 190.605 169.275C190.608 169.42 190.59 169.565 190.552 169.704Z" fill="#455A64"/>
<path d="M152.29 221.905L151.778 227.93C156.242 228.089 160.599 229.34 164.467 231.574L164.121 221.905H152.29Z" fill="#FFBE9D"/>
<path d="M160.054 262.727C160.054 262.727 154.083 279.294 158.736 287.389C163.39 295.484 165.054 296.712 170.958 296.365C176.862 296.019 180.838 291.531 182.043 289.806C183.248 288.082 185.808 264.256 185.808 264.256L184.769 241.891L166.997 242.681L160.054 262.727Z" fill="#263238"/>
<path d="M209.152 240.445C209.152 240.445 211.246 252.885 211.073 263.789C210.899 274.693 206.976 288.014 202.789 293.466C200.778 296.057 195.567 296.757 191.915 296.478C188.527 296.192 185.266 293.466 185.093 288.263C184.92 283.059 185.914 262.765 185.846 263.111C185.778 263.458 181.049 247.953 181.049 247.953L183.948 241.928L209.152 240.445Z" fill="#263238"/>
<path d="M186.712 259.03C186.694 260.651 186.545 262.267 186.267 263.864C186.117 265.48 185.84 267.081 185.439 268.654C185.453 267.033 185.602 265.416 185.883 263.819C186.03 262.203 186.307 260.601 186.712 259.03Z" fill="#455A64"/>
<path d="M158.736 287.389C158.644 287.302 158.563 287.203 158.495 287.096C158.273 286.806 158.089 286.49 157.946 286.154C157.429 284.913 157.116 283.595 157.019 282.254C156.681 278.865 157.102 274.166 158.172 269.128C159.07 264.821 160.33 260.596 161.937 256.5C162.569 254.933 163.134 253.691 163.541 252.84C163.752 252.408 163.917 252.084 164.038 251.869C164.151 251.65 164.218 251.537 164.234 251.545C164.21 251.671 164.167 251.793 164.106 251.906L163.684 252.9C163.315 253.766 162.788 255.024 162.178 256.598C160.64 260.704 159.411 264.921 158.503 269.211C157.441 274.226 156.997 278.88 157.245 282.224C157.312 283.546 157.579 284.851 158.036 286.094C158.435 286.96 158.774 287.359 158.736 287.389Z" fill="#455A64"/>
<g opacity="0.3">
<path d="M164.55 250.95L164.309 251.936C174.053 256.936 185.657 257.644 196.351 255.257C201.223 254.173 206.246 252.245 209.235 248.261C194.439 250.384 179.493 251.283 164.55 250.95Z" fill="black"/>
</g>
<path d="M167.321 189.381C167.321 189.381 158.285 190.578 155.446 203.877C152.772 216.453 151.68 221.905 151.68 221.905H168.639L167.321 189.381Z" fill="#F2B705"/>
<path d="M190.552 182.823C190.552 182.823 202.797 180.322 209.514 187.439C215.056 193.32 219.665 202.944 219.665 202.944L206.11 209.849L190.552 182.823Z" fill="#F2B705"/>
<path d="M167.321 189.381L171.395 188.116C171.395 188.116 177.02 190.519 182.096 189.073C188.436 187.258 190.379 182.815 190.379 182.815L200.613 183.44L207.232 215.278L211.08 248.201C194.37 254.128 178.3 256.658 163.714 251.349L165.002 246.996L163.706 209.616L167.321 189.381Z" fill="#F2B705"/>
<path d="M164.821 241.891C164.786 241.753 164.768 241.611 164.768 241.469L164.685 240.264C164.633 239.157 164.565 237.651 164.475 235.814C164.384 233.976 164.301 231.68 164.203 229.21C164.158 227.967 164.106 226.664 164.06 225.309C164.015 223.954 163.978 222.56 163.842 221.137C163.289 216.275 162.489 211.445 161.447 206.664C161.093 204.811 160.837 203.313 160.694 202.274C160.627 201.784 160.566 201.392 160.521 201.076C160.495 200.935 160.482 200.791 160.483 200.647C160.538 200.78 160.576 200.919 160.596 201.061C160.664 201.37 160.747 201.769 160.845 202.243L161.756 206.604C162.874 211.385 163.709 216.228 164.256 221.107C164.399 222.538 164.429 223.946 164.475 225.294C164.52 226.642 164.557 227.952 164.595 229.195C164.663 231.672 164.723 233.901 164.783 235.799C164.844 237.696 164.851 239.15 164.874 240.257V241.469C164.876 241.612 164.858 241.753 164.821 241.891Z" fill="#263238"/>
<path d="M199.724 236.725C199.408 236.934 199.076 237.118 198.73 237.275C198.083 237.613 197.119 238.065 195.929 238.6C192.803 239.96 189.599 241.134 186.335 242.117C183.071 243.103 179.759 243.92 176.41 244.564C175.13 244.82 174.083 244.986 173.398 245.091C173.025 245.163 172.648 245.206 172.268 245.219C172.624 245.088 172.993 244.995 173.368 244.941L176.38 244.293C178.925 243.736 182.404 242.892 186.237 241.74C190.07 240.588 193.429 239.33 195.839 238.344C197.043 237.847 198.022 237.433 198.685 237.139C199.018 236.969 199.366 236.83 199.724 236.725Z" fill="#263238"/>
<g opacity="0.3">
<path d="M161.033 203.877L160.845 204.224C160.041 206.709 159.885 209.358 160.389 211.921C160.894 214.483 162.043 216.875 163.729 218.87C163.235 213.808 162.333 208.794 161.033 203.877Z" fill="black"/>
</g>
<path d="M197.495 233.871C196.896 234.366 196.251 234.802 195.567 235.173C193.959 236.125 192.295 236.978 190.582 237.726C188.867 238.472 187.106 239.111 185.311 239.639C184.578 239.891 183.821 240.065 183.052 240.158C183.763 239.86 184.492 239.609 185.236 239.405C186.584 238.939 188.436 238.261 190.432 237.395C192.427 236.529 194.197 235.633 195.439 234.955C196.098 234.546 196.785 234.183 197.495 233.871Z" fill="#263238"/>
<path d="M217.646 200.451C217.646 200.451 219.906 206.121 221.668 210.993C223.565 216.174 227.12 227.696 219.589 230.422C213.866 232.485 211.02 225.956 211.02 225.956L206.411 209.751L210.666 207.492L209.303 203.478L217.646 200.451Z" fill="#FFBE9D"/>
<path d="M209.996 205.353C209.996 205.353 206.682 201.935 206.23 200.73L204.498 193.403C204.498 193.403 205.123 192.379 206.298 193.403C206.849 193.959 207.323 194.587 207.706 195.27L208.67 197.318L209.122 196.008L208.369 190.985C208.369 190.985 207.737 187.386 208.527 187.529C209.318 187.672 209.913 188.583 210.191 190.142L210.809 193.666C210.809 193.666 210.96 194.261 211.238 193.086C211.517 191.912 210.56 187.627 210.598 186.994C210.636 186.362 210.131 184.886 211.193 184.637C212.255 184.389 212.42 186.422 212.42 186.422L213.927 192.725C213.927 192.725 213.927 190.014 213.927 189.54C213.927 189.065 213.686 187.664 213.731 186.836C213.776 186.008 214.145 185.473 214.619 185.375C214.821 185.296 215.045 185.296 215.247 185.374C215.449 185.452 215.615 185.603 215.711 185.797L216.314 191.407C216.34 192.322 216.42 193.235 216.555 194.141C216.668 194.269 217.308 192.808 217.308 192.808L217.436 190.887C217.436 190.887 217.142 188.312 217.903 187.996C218.663 187.68 218.889 188.146 218.889 188.146L219.386 192.86L219.032 198.486L217.895 203.659L215.274 204.412L209.996 205.353Z" fill="#FFBE9D"/>
<path d="M213.663 226.092C213.663 226.092 213.588 226.092 213.482 225.971C213.317 225.838 213.168 225.686 213.038 225.52C212.558 224.901 212.203 224.195 211.991 223.441C211.365 220.971 211.156 218.413 211.374 215.873C211.533 213.365 211.333 210.847 210.779 208.395C210.342 206.52 209.898 205.383 209.958 205.383C210.113 205.617 210.238 205.87 210.327 206.136C210.62 206.849 210.872 207.578 211.08 208.32C211.716 210.776 211.958 213.318 211.795 215.851C211.713 217.23 211.713 218.613 211.795 219.992C211.859 221.118 212.028 222.234 212.3 223.328C212.482 224.061 212.785 224.758 213.196 225.392C213.46 225.866 213.686 226.069 213.663 226.092Z" fill="#EB996E"/>
<path d="M213.942 201.227C213.881 201.227 213.708 200.745 213.189 200.097C212.524 199.25 211.601 198.642 210.56 198.365C210.263 198.298 209.961 198.25 209.657 198.222C209.496 198.201 209.337 198.166 209.182 198.117C209.091 198.097 209.006 198.056 208.934 197.996C208.862 197.94 208.801 197.871 208.753 197.793C208.495 197.357 208.271 196.901 208.083 196.43C207.88 196.016 207.721 195.581 207.609 195.135C207.927 195.478 208.182 195.876 208.362 196.309C208.59 196.749 208.841 197.176 209.115 197.589C209.205 197.71 209.197 197.717 209.356 197.763C209.488 197.801 209.625 197.826 209.762 197.838C210.085 197.861 210.405 197.911 210.719 197.989C211.842 198.281 212.822 198.971 213.475 199.931C213.75 200.31 213.912 200.759 213.942 201.227Z" fill="#EB996E"/>
<path d="M158.661 227.907C158.49 227.654 158.26 227.446 157.991 227.301C157.723 227.155 157.423 227.076 157.117 227.071C156.506 227.065 155.897 226.989 155.303 226.845C154.843 226.672 154.452 226.356 154.007 226.145C153.435 225.884 152.795 225.809 152.178 225.931C151.561 226.053 150.997 226.364 150.566 226.822L150.22 226.604C149.955 226.411 149.643 226.293 149.317 226.262C148.991 226.232 148.663 226.29 148.367 226.431C147.772 226.717 147.255 227.144 146.861 227.673C145.664 229.185 144.885 230.985 144.602 232.892C144.489 233.645 144.527 234.526 145.159 234.918C145.389 235.036 145.647 235.088 145.904 235.07C146.162 235.051 146.41 234.962 146.62 234.812C147.038 234.507 147.385 234.113 147.637 233.66C148.504 232.288 149.193 230.81 149.685 229.262C149.213 231.107 148.885 232.985 148.706 234.88C148.648 235.361 148.695 235.849 148.841 236.311C148.895 236.529 149.009 236.727 149.171 236.882C149.333 237.038 149.535 237.145 149.754 237.191C149.974 237.236 150.202 237.219 150.412 237.14C150.623 237.062 150.806 236.926 150.942 236.748C151.2 236.444 151.406 236.101 151.552 235.731C152.302 234.107 152.931 232.431 153.435 230.716C153.08 232.485 152.878 234.281 152.833 236.085C152.779 236.389 152.801 236.702 152.899 236.995C152.996 237.288 153.165 237.553 153.39 237.764C153.588 237.873 153.812 237.925 154.038 237.914C154.264 237.904 154.483 237.831 154.67 237.704C155.039 237.443 155.332 237.09 155.521 236.68C156.477 234.82 156.425 232.515 157.607 230.791C157.946 230.366 158.262 229.923 158.556 229.466C158.699 229.234 158.783 228.971 158.802 228.699C158.82 228.428 158.772 228.156 158.661 227.907Z" fill="#FFBE9D"/>
<path d="M158.661 227.907C158.736 228.007 158.788 228.123 158.812 228.246C158.872 228.605 158.825 228.975 158.676 229.307C158.412 229.819 158.092 230.299 157.72 230.738C157.303 231.37 156.995 232.068 156.809 232.802C156.568 233.622 156.402 234.564 156.093 235.558C155.936 236.083 155.718 236.588 155.446 237.064C155.3 237.346 155.086 237.586 154.823 237.762C154.559 237.939 154.255 238.046 153.94 238.073C153.768 238.083 153.596 238.054 153.437 237.989C153.278 237.924 153.136 237.824 153.021 237.696C152.805 237.43 152.674 237.104 152.644 236.762C152.599 236.111 152.599 235.456 152.644 234.805C152.731 233.421 152.912 232.045 153.186 230.685L153.533 230.768C153.254 231.725 152.93 232.696 152.554 233.675C152.366 234.165 152.162 234.662 151.951 235.181C151.745 235.704 151.493 236.208 151.198 236.687C151.039 236.959 150.801 237.176 150.516 237.31C150.232 237.444 149.913 237.49 149.602 237.44C149.299 237.342 149.03 237.16 148.828 236.914C148.625 236.669 148.496 236.371 148.457 236.055C148.382 235.475 148.382 234.888 148.457 234.308C148.518 233.728 148.6 233.155 148.698 232.583C148.887 231.461 149.143 230.324 149.391 229.285L149.768 229.39C149.191 231.22 148.327 232.946 147.207 234.503C146.908 234.86 146.501 235.111 146.048 235.219C145.797 235.281 145.533 235.269 145.289 235.185C145.044 235.101 144.829 234.948 144.67 234.744C144.408 234.343 144.288 233.866 144.331 233.389C144.356 232.955 144.422 232.523 144.527 232.101C144.886 230.524 145.585 229.044 146.575 227.764C147.003 227.149 147.574 226.648 148.239 226.303C148.564 226.145 148.926 226.079 149.286 226.112C149.645 226.146 149.989 226.277 150.28 226.491L150.626 226.702H150.46C150.912 226.236 151.496 225.921 152.133 225.798C152.771 225.675 153.43 225.752 154.022 226.017C154.534 226.265 154.926 226.596 155.348 226.77C155.752 226.885 156.17 226.941 156.59 226.935C157.192 226.915 157.785 227.078 158.292 227.402C158.467 227.518 158.599 227.687 158.669 227.884C158.556 227.718 158.413 227.575 158.247 227.462C157.74 227.179 157.162 227.048 156.583 227.086C156.15 227.086 155.72 227.027 155.303 226.913C154.839 226.703 154.386 226.469 153.947 226.212C153.397 225.976 152.788 225.915 152.203 226.036C151.617 226.157 151.082 226.455 150.671 226.89L150.596 226.965L150.506 226.913L150.152 226.702C149.9 226.523 149.604 226.417 149.296 226.395C148.988 226.372 148.68 226.434 148.405 226.574C147.8 226.91 147.284 227.385 146.899 227.959C145.946 229.207 145.276 230.645 144.933 232.176C144.84 232.58 144.779 232.991 144.752 233.404C144.722 233.798 144.819 234.192 145.031 234.526C145.148 234.674 145.306 234.784 145.486 234.843C145.665 234.902 145.858 234.907 146.04 234.857C146.443 234.755 146.799 234.519 147.049 234.187C148.13 232.663 148.963 230.978 149.519 229.194L149.896 229.3C149.655 230.377 149.399 231.461 149.21 232.576C149.113 233.14 149.03 233.705 148.977 234.27C148.909 234.815 148.909 235.366 148.977 235.912C149.005 236.152 149.099 236.381 149.249 236.571C149.399 236.761 149.6 236.906 149.828 236.988C150.064 237.019 150.304 236.978 150.517 236.872C150.73 236.766 150.907 236.6 151.025 236.393C151.295 235.943 151.529 235.472 151.726 234.985C151.936 234.496 152.14 234.014 152.328 233.532C152.705 232.561 153.028 231.597 153.314 230.655L153.661 230.738C153.385 232.082 153.199 233.443 153.104 234.812C153.04 235.443 153.025 236.077 153.058 236.71C153.084 236.982 153.183 237.242 153.345 237.463C153.43 237.559 153.536 237.634 153.655 237.682C153.774 237.73 153.902 237.751 154.03 237.741C154.293 237.715 154.545 237.623 154.762 237.473C154.979 237.323 155.155 237.12 155.272 236.883C155.541 236.433 155.756 235.952 155.912 235.452C156.229 234.488 156.409 233.547 156.666 232.719C156.873 231.968 157.207 231.257 157.652 230.618C158.027 230.193 158.357 229.731 158.638 229.24C158.734 229.031 158.785 228.805 158.789 228.576C158.793 228.346 158.749 228.118 158.661 227.907Z" fill="#EB996E"/>
</svg>
