<svg width="25" height="25" viewBox="0 0 25 25" fill="none" xmlns="http://www.w3.org/2000/svg">
<path d="M4 8C4 6.59987 4 5.8998 4.27248 5.36502C4.51217 4.89462 4.89462 4.51217 5.36502 4.27248C5.8998 4 6.59987 4 8 4H17C18.4001 4 19.1002 4 19.635 4.27248C20.1054 4.51217 20.4878 4.89462 20.7275 5.36502C21 5.8998 21 6.59987 21 8V17C21 18.4001 21 19.1002 20.7275 19.635C20.4878 20.1054 20.1054 20.4878 19.635 20.7275C19.1002 21 18.4001 21 17 21H8C6.59987 21 5.8998 21 5.36502 20.7275C4.89462 20.4878 4.51217 20.1054 4.27248 19.635C4 19.1002 4 18.4001 4 17V8Z" stroke="#051A35"/>
<path d="M9 14C10.1046 14 11 13.1046 11 12C11 10.8954 10.1046 10 9 10C7.89543 10 7 10.8954 7 12C7 13.1046 7.89543 14 9 14Z" stroke="#051A35"/>
<path d="M11 12H16M16 12H17.85C17.9328 12 18 12.0672 18 12.15V14M16 12V14" stroke="#051A35" stroke-linecap="round"/>
</svg>
