<svg width="25" height="25" viewBox="0 0 25 25" fill="none" xmlns="http://www.w3.org/2000/svg">
<path d="M12.5 16C14.433 16 16 14.433 16 12.5C16 10.567 14.433 9 12.5 9C10.567 9 9 10.567 9 12.5C9 14.433 10.567 16 12.5 16Z" stroke="#051A35"/>
<path d="M20.688 11.4343C21.0762 11.9056 21.2703 12.1412 21.2703 12.5C21.2703 12.8588 21.0762 13.0944 20.688 13.5657C19.2679 15.2899 16.1357 18.5 12.5 18.5C8.86428 18.5 5.73207 15.2899 4.31198 13.5657C3.92382 13.0944 3.72974 12.8588 3.72974 12.5C3.72974 12.1412 3.92382 11.9056 4.31198 11.4343C5.73207 9.71014 8.86428 6.5 12.5 6.5C16.1357 6.5 19.2679 9.71014 20.688 11.4343Z" stroke="#051A35"/>
</svg>
