<svg width="25" height="25" viewBox="0 0 25 25" fill="none" xmlns="http://www.w3.org/2000/svg">
<path fill-rule="evenodd" clip-rule="evenodd" d="M16.4202 13.2988C16.4725 13.0407 16.5 12.7736 16.5 12.5C16.5 10.2909 14.7091 8.5 12.5 8.5C12.2264 8.5 11.9593 8.52746 11.7012 8.57977L12.6239 9.50251C14.1822 9.56583 15.4342 10.8178 15.4975 12.3761L16.4202 13.2988ZM9.89311 11.0143C9.64295 11.4523 9.5 11.9595 9.5 12.5C9.5 14.1569 10.8431 15.5 12.5 15.5C13.0405 15.5 13.5477 15.357 13.9857 15.1069L14.712 15.8332C14.0784 16.2545 13.3179 16.5 12.5 16.5C10.2909 16.5 8.5 14.7091 8.5 12.5C8.5 11.6821 8.74547 10.9216 9.16676 10.288L9.89311 11.0143Z" fill="#051A35"/>
<path fill-rule="evenodd" clip-rule="evenodd" d="M16.6537 17.7751L15.9193 17.0406C14.8553 17.6196 13.6987 18 12.5 18C10.8282 18 9.23816 17.2599 7.86714 16.2735C6.50006 15.29 5.39306 14.0918 4.69792 13.2478C4.27356 12.7326 4.22974 12.6435 4.22974 12.5C4.22974 12.3565 4.27356 12.2674 4.69792 11.7522C5.36721 10.9396 6.4183 9.79863 7.71572 8.83704L7.00139 8.12271C5.66991 9.13072 4.60383 10.2935 3.92604 11.1164L3.86723 11.1876C3.53671 11.587 3.22974 11.9579 3.22974 12.5C3.22974 13.0421 3.5367 13.413 3.86723 13.8124L3.92604 13.8836C4.65099 14.7638 5.82014 16.0327 7.28312 17.0853C8.74216 18.135 10.5361 19 12.5 19C14.0101 19 15.4196 18.4886 16.6537 17.7751ZM9.68993 6.56861C10.5698 6.21828 11.5135 6 12.5 6C14.4639 6 16.2579 6.865 17.7169 7.91472C19.1799 8.96727 20.349 10.2362 21.074 11.1164L21.1328 11.1876C21.4633 11.587 21.7703 11.9579 21.7703 12.5C21.7703 13.0421 21.4633 13.413 21.1328 13.8124L21.074 13.8836C20.5935 14.4669 19.918 15.221 19.0911 15.9697L18.383 15.2617C19.1787 14.5456 19.8338 13.8164 20.3021 13.2478C20.7265 12.7326 20.7703 12.6435 20.7703 12.5C20.7703 12.3565 20.7265 12.2674 20.3021 11.7522C19.607 10.9082 18.5 9.71001 17.1329 8.72646C15.7619 7.74007 14.1718 7 12.5 7C11.8056 7 11.1253 7.12768 10.469 7.34765L9.68993 6.56861Z" fill="#051A35"/>
<path d="M5.5 2.5L21.5 18.5" stroke="#051A35"/>
</svg>
