<svg width="48" height="48" viewBox="0 0 48 48" fill="none" xmlns="http://www.w3.org/2000/svg">
<path d="M24 26C27.3137 26 30 23.3137 30 20C30 16.6863 27.3137 14 24 14C20.6863 14 18 16.6863 18 20C18 23.3137 20.6863 26 24 26Z" stroke="#F2B705" stroke-linecap="round"/>
<path d="M24 42C33.9411 42 42 33.9411 42 24C42 14.0589 33.9411 6 24 6C14.0589 6 6 14.0589 6 24C6 33.9411 14.0589 42 24 42Z" stroke="#F2B705"/>
<path d="M36 37.4118C35.2922 35.2854 33.7324 33.4066 31.5628 32.0664C29.3932 30.7264 26.7348 30 24 30C21.2652 30 18.6068 30.7264 16.4372 32.0664C14.2675 33.4066 12.7078 35.2854 12 37.4118" stroke="#F2B705" stroke-linecap="round"/>
</svg>
