<svg width="25" height="25" viewBox="0 0 25 25" fill="none" xmlns="http://www.w3.org/2000/svg">
<path d="M21.1386 14.6361L21.0889 14.1386L21.0726 14.1402L21.0564 14.1429L21.1386 14.6361ZM21.1386 14.6361L21.1884 15.1337L21.2047 15.132L21.2208 15.1293L21.1386 14.6361ZM17.0979 20.1184L17.4146 19.7314L17.4103 19.728L17.0979 20.1184ZM17.0979 20.1184L16.7813 20.5054L16.7856 20.5088L17.0979 20.1184ZM7.90208 20.1189L7.58546 19.7319L7.57754 19.7384L7.56989 19.7452L7.90208 20.1189ZM7.90208 20.1189L8.21868 20.5058L8.2266 20.4994L8.23424 20.4926L7.90208 20.1189ZM3.86155 10.3638V9.86384H3.83661L3.8118 9.86633L3.86155 10.3638ZM3.86155 10.3638L3.86156 10.8638H3.8865L3.91131 10.8614L3.86155 10.3638ZM15.1337 3.81169C15.1126 3.60146 15.0947 3.41945 15.0695 3.2696C15.0435 3.11482 15.0051 2.96166 14.9281 2.81242L14.0394 3.2708C14.0497 3.29087 14.0658 3.3308 14.0833 3.43519C14.1017 3.54449 14.1163 3.68775 14.1386 3.91119L15.1337 3.81169ZM15.3286 5.01467C15.3173 4.99983 15.2806 4.93872 15.2421 4.72451C15.2044 4.51507 15.1755 4.23051 15.1337 3.81169L14.1386 3.91119C14.1788 4.31323 14.2116 4.64432 14.2579 4.90161C14.3033 5.15413 14.3731 5.41083 14.5335 5.62119L15.3286 5.01467ZM15.7928 5.20694C15.6148 5.23089 15.4375 5.15749 15.3286 5.01467L14.5335 5.62119C14.8604 6.04968 15.392 6.26987 15.9261 6.19801L15.7928 5.20694ZM16.7813 4.49415C16.4555 4.76069 16.2339 4.94152 16.0592 5.06296C15.8804 5.18717 15.8113 5.20445 15.7928 5.20694L15.9261 6.19801C16.1883 6.16274 16.4192 6.03055 16.6298 5.88412C16.8445 5.73493 17.1018 5.52396 17.4145 5.26811L16.7813 4.49415ZM17.6332 3.9329C17.4732 3.984 17.3377 4.06512 17.2099 4.15619C17.0861 4.24436 16.9448 4.36037 16.7813 4.49415L17.4145 5.26811C17.5883 5.12591 17.6999 5.03493 17.7902 4.97062C17.8764 4.9092 17.916 4.89234 17.9375 4.88547L17.6332 3.9329ZM18.686 3.98541C18.353 3.8411 17.9789 3.82244 17.6332 3.9329L17.9375 4.88547C18.0527 4.84865 18.1774 4.85487 18.2884 4.90297L18.686 3.98541ZM19.4778 4.62865C19.3285 4.47925 19.1993 4.34975 19.0849 4.24971C18.9668 4.14638 18.8401 4.05217 18.686 3.98541L18.2884 4.90297C18.3092 4.91195 18.3469 4.93267 18.4265 5.00236C18.51 5.07534 18.612 5.17697 18.7707 5.33575L19.4778 4.62865ZM20.3713 5.52211L19.4778 4.62865L18.7707 5.33575L19.6642 6.22922L20.3713 5.52211ZM21.0146 6.31396C20.9478 6.15988 20.8536 6.03314 20.7503 5.91502C20.6502 5.80065 20.5207 5.67151 20.3713 5.52211L19.6642 6.22922C19.823 6.38801 19.9246 6.49001 19.9976 6.57343C20.0673 6.6531 20.088 6.69082 20.097 6.71155L21.0146 6.31396ZM21.0671 7.3668C21.1775 7.02107 21.1589 6.647 21.0146 6.31396L20.097 6.71155C20.1451 6.82256 20.1513 6.94724 20.1145 7.06249L21.0671 7.3668ZM20.5058 8.21872C20.6396 8.0552 20.7556 7.91382 20.8438 7.79006C20.9348 7.66224 21.016 7.52676 21.0671 7.3668L20.1145 7.06249C20.1076 7.08401 20.0908 7.12359 20.0293 7.2098C19.965 7.30008 19.874 7.41168 19.7318 7.58548L20.5058 8.21872ZM19.793 9.20721C19.7955 9.18872 19.8128 9.11958 19.937 8.94084C20.0584 8.7661 20.2393 8.5445 20.5058 8.21872L19.7318 7.58548C19.476 7.8982 19.265 8.15547 19.1158 8.37015C18.9694 8.58084 18.8372 8.81168 18.8019 9.0739L19.793 9.20721ZM19.9853 9.6714C19.8424 9.56244 19.7691 9.38524 19.793 9.20721L18.8019 9.0739C18.7301 9.608 18.9503 10.1396 19.3787 10.4665L19.9853 9.6714ZM21.1883 9.86633C20.7694 9.82445 20.4849 9.79562 20.2754 9.75793C20.0612 9.71938 20.0001 9.68271 19.9853 9.6714L19.3787 10.4665C19.5891 10.6269 19.8458 10.6967 20.0983 10.7421C20.3556 10.7884 20.6867 10.8212 21.0888 10.8614L21.1883 9.86633ZM22.1876 10.0719C22.0384 9.99489 21.8852 9.95645 21.7304 9.93046C21.5805 9.9053 21.3985 9.88736 21.1883 9.86633L21.0888 10.8614C21.3122 10.8837 21.4555 10.8983 21.5648 10.9167C21.6692 10.9342 21.7091 10.9503 21.7292 10.9606L22.1876 10.0719ZM22.8949 10.8534C22.7615 10.5159 22.5102 10.2383 22.1876 10.0719L21.7292 10.9606C21.8367 11.0161 21.9205 11.1086 21.965 11.2211L22.8949 10.8534ZM23 11.8682C23 11.657 23.0003 11.4741 22.9901 11.3224C22.9797 11.1658 22.9567 11.0096 22.8949 10.8534L21.965 11.2211C21.9733 11.2421 21.9853 11.2835 21.9924 11.3891C21.9997 11.4997 22 11.6437 22 11.8682H23ZM23 13.1319V11.8682H22V13.1319H23ZM22.895 14.1464C22.9567 13.9903 22.9797 13.8341 22.9901 13.6775C23.0003 13.526 23 13.3431 23 13.1319H22C22 13.3564 21.9997 13.5003 21.9924 13.6109C21.9853 13.7165 21.9733 13.7578 21.965 13.7788L22.895 14.1464ZM22.1875 14.9282C22.5101 14.7618 22.7615 14.484 22.895 14.1464L21.965 13.7788C21.9205 13.8914 21.8367 13.9839 21.7292 14.0394L22.1875 14.9282ZM21.1884 15.1337C21.3986 15.1126 21.5805 15.0947 21.7304 15.0695C21.8851 15.0436 22.0383 15.0051 22.1875 14.9282L21.7292 14.0394C21.7091 14.0498 21.6692 14.0658 21.5648 14.0833C21.4555 14.1017 21.3123 14.1163 21.0889 14.1386L21.1884 15.1337ZM19.9857 15.3285C20.0006 15.3172 20.0617 15.2805 20.2758 15.242C20.4852 15.2043 20.7697 15.1755 21.1884 15.1337L21.0889 14.1386C20.6869 14.1788 20.356 14.2115 20.0987 14.2578C19.8463 14.3032 19.5897 14.3729 19.3794 14.5333L19.9857 15.3285ZM19.7934 15.7929C19.7694 15.6148 19.8428 15.4375 19.9857 15.3285L19.3794 14.5333C18.9507 14.8602 18.7304 15.3921 18.8023 15.9264L19.7934 15.7929ZM20.506 16.781C20.2395 16.4553 20.0588 16.2338 19.9373 16.0591C19.8132 15.8805 19.7959 15.8113 19.7934 15.7929L18.8023 15.9264C18.8377 16.1885 18.9698 16.4192 19.1162 16.6298C19.2653 16.8444 19.4762 17.1016 19.732 17.4142L20.506 16.781ZM21.0671 17.6326C21.0159 17.4727 20.9348 17.3372 20.8438 17.2095C20.7557 17.0858 20.6397 16.9444 20.506 16.781L19.732 17.4142C19.8741 17.5879 19.9651 17.6995 20.0294 17.7897C20.0908 17.8759 20.1076 17.9155 20.1145 17.937L21.0671 17.6326ZM21.0145 18.6858C21.1589 18.3526 21.1776 17.9784 21.0671 17.6326L20.1145 17.937C20.1514 18.0523 20.1451 18.177 20.097 18.2881L21.0145 18.6858ZM20.3715 19.4773C20.5208 19.328 20.6503 19.1989 20.7503 19.0846C20.8536 18.9665 20.9478 18.8398 21.0145 18.6858L20.097 18.2881C20.088 18.3088 20.0673 18.3465 19.9976 18.4261C19.9247 18.5095 19.8231 18.6115 19.6644 18.7702L20.3715 19.4773ZM19.4779 20.3709L20.3715 19.4773L19.6644 18.7702L18.7708 19.6638L19.4779 20.3709ZM18.6861 21.0141C18.8401 20.9474 18.9669 20.8532 19.085 20.7498C19.1994 20.6498 19.3285 20.5203 19.4779 20.3709L18.7708 19.6638C18.612 19.8226 18.51 19.9242 18.4266 19.9972C18.3469 20.0669 18.3092 20.0876 18.2885 20.0966L18.6861 21.0141ZM17.6332 21.0667C17.9789 21.1771 18.353 21.1585 18.6861 21.0141L18.2885 20.0966C18.1775 20.1447 18.0528 20.1509 17.9375 20.1141L17.6332 21.0667ZM16.7813 20.5054C16.9448 20.6392 17.0862 20.7552 17.2099 20.8434C17.3378 20.9344 17.4732 21.0156 17.6332 21.0667L17.9375 20.1141C17.916 20.1072 17.8764 20.0904 17.7902 20.0289C17.6999 19.9646 17.5884 19.8736 17.4146 19.7314L16.7813 20.5054ZM15.7928 19.7926C15.8113 19.7951 15.8805 19.8124 16.0592 19.9366C16.2339 20.058 16.4555 20.2389 16.7813 20.5054L17.4146 19.7314C17.1019 19.4756 16.8446 19.2646 16.6299 19.1154C16.4192 18.969 16.1884 18.8368 15.9262 18.8015L15.7928 19.7926ZM15.3286 19.9849C15.4376 19.8421 15.6148 19.7687 15.7928 19.7926L15.9262 18.8015C15.392 18.7297 14.8604 18.9499 14.5336 19.3784L15.3286 19.9849ZM15.1337 21.1881C15.1756 20.7692 15.2044 20.4846 15.2421 20.2751C15.2807 20.0608 15.3173 19.9997 15.3286 19.9849L14.5336 19.3784C14.3731 19.5887 14.3033 19.8455 14.2579 20.098C14.2116 20.3553 14.1789 20.6865 14.1386 21.0886L15.1337 21.1881ZM14.9281 22.1877C15.0051 22.0385 15.0435 21.8852 15.0695 21.7304C15.0947 21.5805 15.1127 21.3984 15.1337 21.1881L14.1386 21.0886C14.1163 21.3121 14.1017 21.4554 14.0833 21.5648C14.0658 21.6692 14.0497 21.7092 14.0394 21.7292L14.9281 22.1877ZM14.1467 22.8949C14.4841 22.7614 14.7617 22.5102 14.9281 22.1877L14.0394 21.7292C13.9839 21.8367 13.8914 21.9205 13.7789 21.965L14.1467 22.8949ZM13.1316 23C13.343 23 13.5259 23.0003 13.6776 22.9901C13.8342 22.9797 13.9905 22.9566 14.1467 22.8949L13.7789 21.965C13.7579 21.9733 13.7166 21.9853 13.6109 21.9924C13.5003 21.9997 13.3563 22 13.1316 22V23ZM11.8682 23H13.1316V22H11.8682V23ZM10.8534 22.8949C11.0096 22.9567 11.1658 22.9797 11.3224 22.9901C11.4741 23.0003 11.657 23 11.8682 23V22C11.6437 22 11.4997 21.9997 11.3891 21.9924C11.2835 21.9853 11.2421 21.9733 11.2211 21.965L10.8534 22.8949ZM10.0719 22.1876C10.2382 22.5102 10.5159 22.7615 10.8534 22.8949L11.2211 21.965C11.1086 21.9205 11.0161 21.8367 10.9606 21.7292L10.0719 22.1876ZM9.86634 21.1883C9.88736 21.3985 9.9053 21.5805 9.93046 21.7304C9.95645 21.8852 9.99489 22.0384 10.0719 22.1876L10.9606 21.7292C10.9503 21.7091 10.9342 21.6692 10.9167 21.5648C10.8983 21.4555 10.8837 21.3122 10.8614 21.0888L9.86634 21.1883ZM9.67139 19.9853C9.68271 20.0001 9.71938 20.0612 9.75793 20.2754C9.79562 20.4849 9.82445 20.7695 9.86634 21.1883L10.8614 21.0888C10.8212 20.6867 10.7884 20.3556 10.7421 20.0983C10.6967 19.8458 10.6269 19.5891 10.4664 19.3787L9.67139 19.9853ZM9.20722 19.793C9.38525 19.7691 9.56244 19.8425 9.67139 19.9853L10.4664 19.3787C10.1396 18.9503 9.60801 18.7301 9.07392 18.8019L9.20722 19.793ZM8.21868 20.5058C8.54447 20.2393 8.76609 20.0584 8.94084 19.937C9.11958 19.8128 9.18872 19.7955 9.20722 19.793L9.07392 18.8019C8.8117 18.8372 8.58085 18.9694 8.37015 19.1158C8.15547 19.265 7.89819 19.476 7.58546 19.7319L8.21868 20.5058ZM7.36673 21.0671C7.5267 21.016 7.66218 20.9349 7.79001 20.8438C7.91377 20.7557 8.05516 20.6396 8.21868 20.5058L7.58546 19.7319C7.41166 19.8741 7.30003 19.9651 7.20976 20.0294C7.12354 20.0908 7.08395 20.1077 7.06244 20.1145L7.36673 21.0671ZM6.31394 21.0146C6.64696 21.1589 7.021 21.1776 7.36673 21.0671L7.06244 20.1145C6.94719 20.1514 6.82251 20.1451 6.71151 20.097L6.31394 21.0146ZM5.52205 20.3713C5.67146 20.5207 5.8006 20.6503 5.91497 20.7503C6.0331 20.8536 6.15985 20.9479 6.31394 21.0146L6.71151 20.097C6.69078 20.0881 6.65306 20.0673 6.57339 19.9977C6.48996 19.9247 6.38796 19.823 6.22916 19.6642L5.52205 20.3713ZM4.62861 19.4779L5.52205 20.3713L6.22916 19.6642L5.33572 18.7708L4.62861 19.4779ZM3.98535 18.686C4.05212 18.8401 4.14632 18.9669 4.24966 19.085C4.34971 19.1994 4.47922 19.3285 4.62861 19.4779L5.33572 18.7708C5.17693 18.612 5.07529 18.51 5.00232 18.4266C4.93262 18.3469 4.9119 18.3092 4.90292 18.2885L3.98535 18.686ZM3.93284 17.6332C3.8224 17.979 3.84106 18.353 3.98535 18.686L4.90292 18.2885C4.85482 18.1775 4.84861 18.0528 4.88542 17.9375L3.93284 17.6332ZM4.49413 16.7813C4.36033 16.9448 4.24432 17.0862 4.15614 17.2099C4.06507 17.3378 3.98395 17.4733 3.93284 17.6332L4.88542 17.9375C4.89229 17.916 4.90915 17.8764 4.97058 17.7902C5.03489 17.6999 5.12588 17.5883 5.26808 17.4145L4.49413 16.7813ZM5.20694 15.7928C5.20445 15.8113 5.18716 15.8804 5.06295 16.0592C4.9415 16.2339 4.76067 16.4555 4.49413 16.7813L5.26808 17.4145C5.52394 17.1018 5.73491 16.8445 5.88411 16.6298C6.03054 16.4192 6.16274 16.1883 6.19801 15.9261L5.20694 15.7928ZM5.01466 15.3286C5.15749 15.4375 5.23088 15.6147 5.20694 15.7928L6.19801 15.9261C6.26986 15.392 6.04966 14.8604 5.62119 14.5335L5.01466 15.3286ZM3.81168 15.1337C4.23051 15.1755 4.51507 15.2044 4.7245 15.2421C4.93871 15.2806 4.99983 15.3173 5.01466 15.3286L5.62119 14.5335C5.41083 14.3731 5.15413 14.3033 4.90161 14.2579C4.64432 14.2116 4.31322 14.1788 3.91118 14.1386L3.81168 15.1337ZM2.81242 14.9281C2.96166 15.0051 3.11482 15.0435 3.2696 15.0695C3.41945 15.0947 3.60145 15.1126 3.81168 15.1337L3.91118 14.1386C3.68774 14.1163 3.54449 14.1017 3.43519 14.0833C3.3308 14.0658 3.29088 14.0497 3.27081 14.0394L2.81242 14.9281ZM2.10507 14.1465C2.23852 14.4841 2.48984 14.7618 2.81242 14.9281L3.27081 14.0394C3.16328 13.9839 3.07951 13.8914 3.03502 13.7789L2.10507 14.1465ZM2 13.1318C2 13.3431 1.99974 13.5259 2.00987 13.6776C2.02033 13.8341 2.04333 13.9904 2.10507 14.1465L3.03502 13.7789C3.02672 13.7578 3.0147 13.7165 3.00764 13.6109C3.00026 13.5003 3 13.3563 3 13.1318H2ZM2 11.8683V13.1318H3V11.8683H2ZM2.10513 10.8533C2.04335 11.0095 2.02034 11.1658 2.00987 11.3224C1.99974 11.4741 2 11.657 2 11.8683H3C3 11.6437 3.00026 11.4997 3.00765 11.3891C3.01471 11.2834 3.02673 11.2421 3.03504 11.2211L2.10513 10.8533ZM2.81229 10.0719C2.48982 10.2383 2.23857 10.5159 2.10513 10.8533L3.03504 11.2211C3.07952 11.1086 3.16327 11.0161 3.27076 10.9606L2.81229 10.0719ZM3.8118 9.86633C3.60152 9.88735 3.41947 9.9053 3.26957 9.93047C3.11476 9.95647 2.96156 9.99492 2.81229 10.0719L3.27076 10.9606C3.29084 10.9503 3.33076 10.9342 3.43518 10.9167C3.54452 10.8983 3.68781 10.8837 3.91131 10.8614L3.8118 9.86633ZM5.0151 9.67132C5.00026 9.68265 4.93914 9.71933 4.72487 9.75789C4.51538 9.7956 4.23073 9.82443 3.8118 9.86633L3.91131 10.8614C4.31346 10.8211 4.64464 10.7884 4.902 10.7421C5.15458 10.6966 5.41135 10.6268 5.62174 10.4663L5.0151 9.67132ZM5.20732 9.20725C5.23124 9.38524 5.15786 9.56238 5.0151 9.67132L5.62174 10.4663C6.05004 10.1395 6.27016 9.60804 6.19841 9.07408L5.20732 9.20725ZM4.4943 8.21844C4.76093 8.54432 4.94182 8.76599 5.0633 8.9408C5.18756 9.11959 5.20484 9.18875 5.20732 9.20725L6.19841 9.07408C6.16317 8.81178 6.03094 8.58087 5.88448 8.37012C5.73524 8.15537 5.5242 7.89802 5.26826 7.5852L4.4943 8.21844ZM3.93283 7.36614C3.98393 7.52617 4.06508 7.66171 4.15618 7.78959C4.24439 7.9134 4.36045 8.05484 4.4943 8.21844L5.26826 7.5852C5.12599 7.41132 5.03497 7.29966 4.97063 7.20935C4.90918 7.1231 4.89232 7.08349 4.88545 7.06197L3.93283 7.36614ZM3.98532 6.31371C3.84112 6.64663 3.82247 7.02052 3.93283 7.36614L4.88545 7.06197C4.84867 6.94676 4.85488 6.82213 4.90294 6.71116L3.98532 6.31371ZM4.62878 5.52153C4.47933 5.67099 4.34977 5.80018 4.24969 5.91459C4.14632 6.03276 4.05209 6.15955 3.98532 6.31371L4.90294 6.71116C4.91192 6.69042 4.93264 6.65269 5.00236 6.57299C5.07536 6.48953 5.17704 6.38749 5.33589 6.22864L4.62878 5.52153ZM5.5221 4.62822L4.62878 5.52153L5.33589 6.22864L6.22921 5.33532L5.5221 4.62822ZM6.31398 3.98494C6.15989 4.05171 6.03315 4.14591 5.91502 4.24925C5.80065 4.3493 5.6715 4.47882 5.5221 4.62822L6.22921 5.33532C6.388 5.17653 6.49001 5.07489 6.57343 5.00191C6.65311 4.93221 6.69082 4.91149 6.71155 4.90251L6.31398 3.98494ZM7.36677 3.93243C7.02105 3.82199 6.647 3.84065 6.31398 3.98494L6.71155 4.90251C6.82256 4.85442 6.94724 4.8482 7.06248 4.88501L7.36677 3.93243ZM8.21882 4.49378C8.05526 4.35997 7.91386 4.24394 7.79008 4.15575C7.66225 4.06467 7.52675 3.98354 7.36677 3.93243L7.06248 4.88501C7.08399 4.89188 7.12359 4.90874 7.20982 4.97018C7.30011 5.03451 7.41175 5.12551 7.58558 5.26774L8.21882 4.49378ZM9.20718 5.20654C9.1887 5.20405 9.11957 5.18676 8.94085 5.06255C8.76613 4.94111 8.54455 4.76029 8.21882 4.49378L7.58558 5.26774C7.89826 5.52357 8.1555 5.73451 8.37013 5.88369C8.58078 6.0301 8.81156 6.16229 9.07371 6.19759L9.20718 5.20654ZM9.67149 5.01422C9.56252 5.1571 9.38526 5.23052 9.20718 5.20654L9.07371 6.19759C9.60797 6.26954 10.1398 6.04927 10.4667 5.62062L9.67149 5.01422ZM9.86635 3.81155C9.82448 4.23026 9.79566 4.51474 9.75799 4.72412C9.71945 4.93828 9.6828 4.99938 9.67149 5.01422L10.4667 5.62062C10.627 5.4103 10.6968 5.15367 10.7422 4.90121C10.7885 4.64399 10.8212 4.31299 10.8614 3.91106L9.86635 3.81155ZM10.0718 2.81255C9.99485 2.96175 9.95643 3.11489 9.93046 3.26962C9.9053 3.41943 9.88737 3.60139 9.86635 3.81155L10.8614 3.91106C10.8837 3.68768 10.8983 3.54447 10.9167 3.43519C10.9342 3.33083 10.9502 3.29092 10.9606 3.27085L10.0718 2.81255ZM10.8536 2.10501C10.516 2.23847 10.2382 2.48986 10.0718 2.81255L10.9606 3.27085C11.0161 3.16329 11.1086 3.07949 11.2212 3.035L10.8536 2.10501ZM11.8681 2C11.6569 2 11.474 1.99974 11.3225 2.00986C11.1659 2.02031 11.0097 2.04331 10.8536 2.10501L11.2212 3.035C11.2422 3.0267 11.2835 3.01469 11.3891 3.00764C11.4997 3.00026 11.6436 3 11.8681 3V2ZM13.1318 2H11.8681V3H13.1318V2ZM14.1465 2.10507C13.9904 2.04333 13.8341 2.02033 13.6776 2.00987C13.5259 1.99974 13.3431 2 13.1318 2V3C13.3563 3 13.5003 3.00026 13.6109 3.00764C13.7165 3.0147 13.7578 3.02672 13.7789 3.03502L14.1465 2.10507ZM14.9281 2.81242C14.7618 2.48984 14.4841 2.23852 14.1465 2.10507L13.7789 3.03502C13.8914 3.07951 13.9839 3.16328 14.0394 3.2708L14.9281 2.81242ZM16 12.5C16 14.433 14.433 16 12.5 16V17C14.9853 17 17 14.9853 17 12.5H16ZM12.5 9C14.433 9 16 10.567 16 12.5H17C17 10.0147 14.9853 8 12.5 8V9ZM9 12.5C9 10.567 10.567 9 12.5 9V8C10.0147 8 8 10.0147 8 12.5H9ZM12.5 16C10.567 16 9 14.433 9 12.5H8C8 14.9853 10.0147 17 12.5 17V16Z" fill="#051A35"/>
</svg>
