<svg width="25" height="25" viewBox="0 0 25 25" fill="none" xmlns="http://www.w3.org/2000/svg">
<path d="M4.50008 8.49997L4.14653 8.14642L3.79297 8.49997L4.14653 8.85352L4.50008 8.49997ZM20.0001 10.5C20.0001 10.7761 20.224 11 20.5001 11C20.7762 11 21.0001 10.7761 21.0001 10.5H20.0001ZM8.14653 4.14642L4.14653 8.14642L4.85363 8.85352L8.85363 4.85352L8.14653 4.14642ZM4.14653 8.85352L8.14653 12.8536L8.85363 12.1464L4.85363 8.14642L4.14653 8.85352ZM4.50008 8.99997H18.5001V7.99997H4.50008V8.99997ZM18.5001 8.99997C19.3285 8.99997 20.0001 9.67154 20.0001 10.5H21.0001C21.0001 9.11926 19.8808 7.99997 18.5001 7.99997V8.99997Z" fill="#051A35"/>
<path d="M20.5 16.5L20.8536 16.1464L21.2071 16.5L20.8536 16.8536L20.5 16.5ZM3 14.5C3 14.2239 3.22386 14 3.5 14C3.77614 14 4 14.2239 4 14.5H3ZM16.8536 12.1464L20.8536 16.1464L20.1464 16.8536L16.1464 12.8536L16.8536 12.1464ZM20.8536 16.8536L16.8536 20.8536L16.1464 20.1464L20.1464 16.1464L20.8536 16.8536ZM20.5 17H5.5V16H20.5V17ZM5.5 17C4.11929 17 3 15.8807 3 14.5H4C4 15.3284 4.67157 16 5.5 16V17Z" fill="#051A35"/>
</svg>
