<svg width="24" height="24" viewBox="0 0 24 24" fill="none" xmlns="http://www.w3.org/2000/svg">
<path d="M12 13C13.6569 13 15 11.6569 15 10C15 8.34315 13.6569 7 12 7C10.3431 7 9 8.34315 9 10C9 11.6569 10.3431 13 12 13Z" stroke="#051A35" stroke-linecap="round"/>
<path d="M12 21C16.9706 21 21 16.9706 21 12C21 7.02944 16.9706 3 12 3C7.02944 3 3 7.02944 3 12C3 16.9706 7.02944 21 12 21Z" stroke="#051A35"/>
<path d="M18 18.7059C17.6461 17.6427 16.8662 16.7033 15.7814 16.0332C14.6966 15.3632 13.3674 15 12 15C10.6326 15 9.30341 15.3632 8.21858 16.0332C7.13375 16.7033 6.35391 17.6427 6 18.7059" stroke="#051A35" stroke-linecap="round"/>
</svg>
